<svg width="1084.55px" height="998.95px" viewBox="0 0 1084.55 998.95" xmlns="http://www.w3.org/2000/svg" xmlns:xlink="http://www.w3.org/1999/xlink">
  <defs/>
  <g>
    <path stroke="none" fill="#0099FF" d="M1083.9 367.75 L1084 367.65 1084.55 367.9 1085.5 369.1 1085.65 369.45 1085.45 370 1081.75 372.1 1080.5 373.1 663.9 776.2 634.5 804.85 632.7 806.85 631.1 809 629.7 811.3 628.55 813.65 551.6 994.25 549.7 998.65 549.45 998.95 549.1 999.05 548.7 998.95 548.45 998.65 471.85 805.05 469.65 800.8 466.65 796.9 464.35 794.7 6.45 406.95 3.05 403.9 1.1 401.6 1.2 401.1 1.8 400.8 4.95 402.2 537.75 662.1 540.4 663.1 542.75 663.25 545 662.6 547.35 661.2 721.35 539.05 895.45 417.05 897.95 415.45 900.6 414.05 903.4 412.9 906.2 412.05 1078.75 368.9 1083.9 367.75 M572.65 449.45 L572.8 449.55 582.1 449.8 591.4 450.4 595.1 450.95 598.45 451.95 600.1 452.65 601.65 453.45 604.5 455.35 605.8 456.45 608.25 458.85 610.5 461.55 612.55 464.55 616 471 619.05 478.5 621.35 486.2 622.55 491.45 624.25 502.05 625.5 513.95 626.95 533.7 628.7 560.1 628.7 561.3 628.35 563.25 627.4 565 626.75 565.75 625 567.1 530.65 629.65 529.3 630.4 527.75 631.05 526.25 631.35 525.05 631.2 515.7 627.1 488.25 614.55 487.85 614 505.7 575.6 514.35 555.3 520.45 540.45 526.35 525.5 532.75 508.4 533.75 504.8 534 503.3 534 500.65 533.75 499.6 533.3 498.65 532.6 497.75 530.7 496.35 527.95 495.25 524.25 494.35 518.05 493.3 510 492.3 506 492.2 504 492.3 500 492.9 496.1 494.1 494.2 494.95 490.7 497.1 490 497.15 488.9 496.55 488.7 495.95 490.95 485.05 492.15 481.45 494.2 477.25 496.6 473.4 499.35 469.9 502.45 466.75 505.9 463.95 509.65 461.5 513.7 459.4 518.05 457.65 527 454.85 531.5 453.7 540.55 451.85 545.1 451.15 554.25 450.1 563.45 449.55 572.65 449.45 M877.5 223.8 L877.65 223.7 878.25 224.05 886.35 238.5 889.7 244.8 891.3 246.95 892.3 247.85 894.5 249.1 895.9 249.55 903.1 250.7 908.75 251.8 919.55 254.05 920.05 254.55 919.9 255.2 908.35 267.75 903.35 272.9 902.55 274 901.5 276.25 901.25 277.45 901.15 280.05 904.25 303.7 904.2 304.05 903.8 304.45 903.3 304.4 887.35 296.95 881.85 294.65 879.9 294.1 877.75 293.9 875.6 294.1 873.6 294.65 868.2 296.9 852.3 304.35 851.6 304.3 851.3 303.65 853.4 286 853.9 280.05 853.8 278.15 853.35 276.15 852.55 274.25 851.5 272.65 847.65 268.25 835.3 255.05 835.35 254.35 835.75 254.1 853.35 250.7 859.2 249.4 860.9 248.8 862.55 247.8 864 246.55 865.1 245.15 868.15 240 876.9 224.15 877.5 223.8 M206 223.75 L205.9 223.8 206.5 224.15 215 239.6 218.1 244.75 219.4 246.35 221.1 247.75 223 248.85 224.95 249.55 230.65 250.9 247.8 254.2 248.3 254.65 248.15 255.3 236.5 267.95 231.5 273.15 230.75 274.2 229.75 276.35 229.5 277.5 229.4 279.95 232.45 303.85 232.45 304.15 232.1 304.55 231.55 304.55 215.45 297.05 209.95 294.7 208.1 294.2 206.05 294 204 294.15 202.15 294.65 196.65 296.95 180.5 304.45 179.95 304.45 179.6 304.05 179.55 303.75 181.65 285.9 182.2 279.9 182.15 278.1 181.75 276.25 181.05 274.5 180.05 273 176.1 268.5 163.65 255.15 163.7 254.45 164.1 254.2 181 250.75 188.1 249.55 189.35 249.15 191.4 248 192.25 247.25 193.75 245.3 205.4 224.1 206 223.75 M341.75 101.45 L341.75 101.35 342.35 101.7 350 115.3 358.45 131.1 359.45 132.5 360.55 133.65 361.75 134.6 363.1 135.4 366.15 136.5 375.65 138.2 398.65 142.65 399.15 143.1 399 143.75 388.05 155.55 375.6 168.6 374.75 169.8 373.6 172.3 373.3 173.65 373.2 176.5 377.55 209.95 377.55 210.25 377.2 210.65 376.65 210.65 362.5 204.1 346.45 196.4 343.35 195.55 341.8 195.45 340.25 195.55 337.1 196.4 321.2 204.05 307.05 210.55 306.5 210.55 306.15 210.15 306.1 209.85 310.4 175.35 310.35 173.2 310.15 172.2 309.3 170.35 307.85 168.55 284.5 143.65 284.55 142.95 284.95 142.7 307.2 138.25 316.8 136.65 318.7 136.1 320.35 135.35 321.9 134.4 323.25 133.25 324.45 131.9 325.6 130.25 333.8 114.85 341.15 101.8 341.75 101.45 M740.5 101.45 L740.6 101.55 741.2 101.9 757.85 132.1 759.35 134 760.25 134.75 762.25 135.85 763.45 136.25 797.45 142.75 797.95 143.2 797.8 143.85 788.25 154.3 783.2 159.65 776.2 166.55 774.1 169.4 772.8 172.4 772.2 175.6 772.25 179.2 773.8 188.8 774.7 195.95 776.25 209.95 776.2 210.3 775.8 210.65 775.3 210.6 760.45 203.9 754.55 200.9 750.3 198.45 747.4 197.15 744.55 196.3 743.15 196.05 740.4 195.9 737.65 196.15 733.5 197.35 730.65 198.65 723.5 202.5 717.6 205.3 705.9 210.6 705.2 210.55 704.9 209.95 706.3 196.85 707.15 190.1 708.85 179.3 708.8 175.35 707.95 171.7 706.9 169.35 704.55 166.05 699.85 161.55 695 156.65 683.25 143.55 683.25 143.2 683.75 142.75 706.1 138.3 715.6 136.7 717.4 136.2 719 135.5 720.55 134.6 721.9 133.5 723.05 132.25 724.15 130.65 732.45 115.05 739.9 101.8 740.5 101.45 M542 0.15 L542 0.1 542.6 0.45 549.85 13.35 566.7 43.9 572.15 54.1 573.9 56.8 576 58.75 578.55 60.1 581.6 60.9 638.05 71.55 642.05 72.6 642.45 72.9 642.5 73.55 608 110.55 598.75 120.1 597.9 121.25 596.85 123.65 596.45 126.25 596.65 129.15 604.15 187.8 604.2 190.65 604 191.1 603.55 191.3 603.25 191.25 598.55 189.15 546.65 164.75 544.2 163.8 541.85 163.5 539.5 163.8 537.05 164.7 485.65 188.9 480.15 191.35 479.6 191.35 479.25 190.95 479.2 190.65 483.5 155.6 486.35 134.45 486.65 129.8 486.6 127.85 486.35 126.05 485.95 124.35 485.35 122.7 484.5 121.1 483.45 119.45 480.55 115.8 441.15 73.6 441 72.95 441.5 72.5 482.8 64.45 495.95 62.65 499.15 62.1 503.65 60.8 506.35 59.55 507.6 58.75 508.7 57.85 510.7 55.8 513.3 52.05 514.8 49.25 520.5 37.45 540.8 0.9 541.3 0.45 542 0.15"/>
  </g>
</svg>