<svg width="1064.15px" height="1028.95px" viewBox="0 0 1064.15 1028.95" xmlns="http://www.w3.org/2000/svg" xmlns:xlink="http://www.w3.org/1999/xlink">
  <defs/>
  <g>
    <path stroke="none" fill="#FFFF00" d="M635.95 321.3 L636.05 321.35 636.4 321.45 636.7 321.95 640.3 358.5 643.25 383.95 644.9 396.65 648.5 421.9 650.5 434.5 654.8 459.55 659.6 484.5 662.2 496.9 667.8 521.6 674 546.15 680.75 570.5 688.1 594.7 692 606.75 700.3 630.65 709.25 654.4 718.9 677.95 729.25 701.25 740.35 724.35 752.2 747.25 760.05 761.55 768.2 775.65 776.6 789.55 785.3 803.2 798.9 823.25 813.15 842.8 828.1 861.8 838.45 874.15 843.75 880.2 854.6 892.15 860.15 898 871.45 909.55 877.25 915.2 889.1 926.35 895.15 931.8 907.5 942.5 913.8 947.75 929.35 960.05 945.25 971.75 953.35 977.35 969.85 988.05 978.25 993.15 986.75 998.05 995.35 1002.75 1004.1 1007.25 1012.95 1011.6 1021.9 1015.75 1031 1019.65 1040.2 1023.35 1050.95 1027.45 1051.85 1027.85 1052.15 1028.15 1052.2 1028.6 1051.95 1029.1 1051.55 1029.25 967.55 1029.25 951.05 1029.1 942.2 1029.45 939 1029.25 935.85 1028.8 932.75 1028.15 929.7 1027.25 923.75 1024.95 915.45 1021 904.9 1015.55 889.5 1006.85 879.5 1000.7 864.9 991 855.45 984.2 841.65 973.5 832.7 966.05 819.65 954.45 811.2 946.4 798.85 933.9 790.85 925.25 783.05 916.4 775.4 907.35 766.9 896.75 758.7 886 750.8 875.1 743.2 864.05 735.85 852.8 725.35 835.7 715.45 818.25 709.15 806.45 703.1 794.5 697.25 782.45 691.65 770.25 686.25 757.95 681.05 745.55 676.05 733.05 671.25 720.45 663 697.3 659.1 685.65 651.8 662.25 645.1 638.7 638.95 615 636.1 603.1 630.75 579.2 625.9 555.15 621.5 531 617.65 507.45 614.2 483.85 611.1 460.2 608.4 436.5 606.05 412.8 604.05 389.05 602.35 365.25 600.95 339.85 601.4 337.45 601.9 336.45 602.7 335.5 604.7 334.15 613.6 330.6 635.95 321.3 M488.1 346.3 L488 346.4 503.2 352.4 518.5 358.7 519.05 359.1 519.65 360.05 520.3 362.25 520.45 363.75 519.95 422.65 519.1 481.55 517.5 554.95 516.5 591.65 515.2 628.35 513.5 668.65 511.55 708.95 509.35 749.25 506.85 789.5 504.6 819.95 501.95 850.35 499 880.7 495.8 911.05 492.35 939.6 490.3 953.8 488 968 485.45 982.15 481 1003.25 477.6 1017.25 475.35 1025.5 474.35 1027.5 473 1028.7 471.9 1029.15 469.3 1029.45 230.65 1029.3 230.3 1029.05 230.15 1028.65 230.4 1028.1 252.4 1012.25 264 1003.65 275.3 994.65 282.2 988.7 288.9 982.55 295.4 976.25 301.75 969.8 307.9 963.2 313.9 956.45 319.7 949.55 325.35 942.55 330.85 935.4 341.4 920.75 351.4 905.7 360.9 890.25 365.45 882.4 371.95 870.7 378.2 858.9 384.15 847 389.85 835 395.3 822.9 400.55 810.7 405.55 798.45 410.35 786.1 414.95 773.65 419.35 761.15 423.55 748.55 431.4 723.15 438.6 697.5 444.9 673 450.4 649.8 455.45 626.5 457.8 614.8 462.2 591.4 466.15 567.9 469.65 544.35 472.7 520.7 474.05 508.85 477.05 478.65 478.65 460.3 481.6 423.6 487.15 350.15 487.45 346.9 487.75 346.4 488.1 346.3 M580.2 344.45 L580.1 344.4 580.45 344.5 580.75 345.05 583 385.2 584.1 398.6 590.65 467.6 594.2 502.1 598.15 536.55 600.95 557.65 604.15 578.7 607.75 599.65 611.75 620.55 618.45 651.75 623.4 672.45 631.5 703.35 638.9 728.95 646.95 754.3 651.25 766.85 655.75 779.35 660.45 791.75 665.35 804.05 670.45 816.25 675.8 828.35 681.4 840.35 687.25 852.25 696.5 869.95 706.35 887.35 713.25 898.8 718.35 906.85 728.95 922.6 740.15 937.85 745.95 945.3 751.95 952.6 758.1 959.75 764.4 966.75 770.9 973.55 777.6 980.2 784.5 986.7 791.55 993 798.85 999.1 806.35 1005.05 814.05 1010.8 820.65 1015.4 827.4 1019.85 840.15 1027.65 840.45 1028.2 840.35 1028.6 840.05 1028.85 836.1 1029.15 598.9 1029.25 596.35 1029 594.6 1028.25 593.75 1027.5 592.65 1025.55 589.2 1012.5 586.45 1000.7 583.95 988.9 581.7 977.05 579.65 965.15 576.05 941.25 572.5 913.7 568.95 882.6 565.85 851.45 563.15 820.25 560.85 789.05 557.9 742.15 554.75 679.6 553.1 639.95 551.7 600.3 550.55 560.65 548.85 481.35 547.8 402.05 547.45 362.35 547.6 360.25 548.1 358.7 548.6 358 550.2 356.75 580.2 344.45 M431.05 323.6 L431.05 323.75 448.3 330.5 465.55 337.6 466.05 338 466.55 339 467 341.4 467.05 342.85 465.1 378.1 464 392.15 463.25 399.15 456 462.45 454.05 478.25 449.7 509.8 447.25 525.55 444.35 542.7 441.2 559.8 437.8 576.8 434.15 593.75 430.25 610.6 426.05 627.35 419.2 652.35 414.25 668.9 409 685.35 403.45 701.7 394.45 726.05 388.05 742.15 381.3 758.15 374.15 774 366.65 789.75 360.95 801.15 355.05 812.4 348.95 823.55 342.65 834.55 336.1 845.4 329.35 856.05 322.4 866.55 315.2 876.9 307.75 887.05 296.15 902 288.1 911.7 279.8 921.25 271.2 930.6 257.8 944.25 248.5 953.1 235.8 964.45 229.3 969.9 216.05 980.4 202.4 990.35 188.4 999.7 181.25 1004.15 166.6 1012.6 151.55 1020.4 136.1 1027.6 132.85 1028.8 131.05 1029.2 129.4 1029.35 74.3 1029.45 19.2 1029.45 17.65 1029.25 17.35 1028.95 17.3 1028.5 17.7 1028 30.2 1023.2 39.65 1019.3 49 1015.15 58.2 1010.8 67.25 1006.25 76.2 1001.5 85.05 996.6 93.75 991.5 102.35 986.2 110.85 980.7 119.2 975.05 127.45 969.2 135.6 963.2 151.6 950.7 159.45 944.2 173.55 931.9 179.85 926.2 192.1 914.55 198.1 908.6 209.8 896.5 215.5 890.35 226.65 877.85 232.1 871.5 242.75 858.6 247.95 852.05 258.05 838.75 263 832 272.6 818.35 286.45 797.4 299.6 775.95 312.05 754 323.85 731.55 334.7 709.35 341.45 694.65 347.95 679.85 357.15 657.45 365.7 634.85 371.1 619.7 376.25 604.45 381.1 589.1 385.75 573.65 390.15 558.15 394.3 542.55 398.25 526.9 401.95 511.15 405.45 495.35 408.75 479.5 412.4 460.55 417.3 432.05 421.55 403.45 424.05 384.35 426.3 365.2 428.3 346 430.1 326.75 430.4 324.2 430.7 323.7 431.05 323.6 M850.8 587.8 L850.7 587.75 866.4 588 867.3 588.5 868.2 589.8 868.9 591.3 869.25 592.75 870.75 604.1 872.5 615.45 874.45 626.75 877.9 643.6 880.55 654.75 883.5 665.85 886.75 676.85 890.85 689.2 895.85 702.8 901.35 716.15 907.4 729.2 914.05 741.9 917.6 748.15 925.2 760.35 929.25 766.3 933.5 772.15 937.95 777.9 942.6 783.55 947.25 788.9 952.05 794.05 956.95 799 962 803.75 967.2 808.3 972.55 812.65 978 816.75 983.65 820.6 992.4 825.95 998.4 829.2 1007.75 833.55 1014.2 836.1 1020.85 838.4 1027.65 840.4 1038.2 842.75 1049 844.3 1063.5 846 1064.05 846.4 1064.1 970.75 1063.75 971.35 1063.1 971.35 1054.3 966.05 1044.85 960.05 1035.55 953.9 1026.45 947.55 1017.5 941 1008.75 934.3 1000.2 927.4 991.8 920.3 983.6 913 975.6 905.5 967.75 897.8 960.1 889.9 952.65 881.75 945.4 873.4 938.35 864.85 931.45 856.05 925.9 848.6 915.35 833.5 905.5 818.15 896.4 802.55 888 786.7 880.25 770.6 873.15 754.25 866.7 737.65 860.85 720.8 855.6 703.75 850.95 686.5 846.85 669 843.3 651.3 840.25 633.4 837.7 615.35 836.6 606.25 834.8 588.45 835 588 835.45 587.8 850.8 587.8 M197.55 586.7 L197.6 586.45 227.4 586.45 227.9 586.65 228.05 587.15 224.9 615.5 222.3 634.3 219.15 652.65 217.35 661.8 213.35 679.95 211.1 688.95 206.15 706.85 200.6 724.55 197.55 733.35 190.95 750.75 183.65 767.95 179.95 776 172.2 791.7 168.1 799.4 159.55 814.45 150.5 829.05 140.95 843.2 130.9 856.9 120.35 870.15 109.3 882.95 97.75 895.3 91.8 901.3 79.5 913 66.75 924.25 53.5 935.1 39.8 945.5 25.6 955.5 10.95 965.05 3.45 969.7 1.2 970.9 0.35 970.95 -0.05 970.35 0 847.5 0.55 847.05 20.2 844.45 28.1 843.1 35.25 841.45 41.55 839.65 50.75 836.5 56.7 834.1 62.5 831.45 68.15 828.6 73.65 825.5 79 822.2 84.25 818.65 89.35 814.9 94.35 810.95 99.2 806.8 103.95 802.5 108.55 798 117.45 788.5 123.85 780.95 129.9 773.25 135.65 765.35 141.05 757.3 146.15 749.1 153.25 736.55 157.6 728 161.7 719.3 167.35 706.05 170.8 697.05 174 687.95 177 678.75 179.75 669.4 182.3 660 184.65 650.5 186.45 642.65 189.65 626.85 196.85 587.25 197.1 586.85 197.55 586.7 M873.05 414.8 L873.1 414.65 875.35 414.9 877.1 415.6 878.45 416.95 879.55 419 880.65 421.95 883.45 430.65 886.15 440.4 887.95 445.05 890.1 449.55 897.3 462.8 900.6 469.55 907.75 487.15 927.5 532.65 928.25 534.7 928.85 536.95 929.2 539.2 929.35 541.45 929.45 579.6 929.3 580 928.9 580.25 925.55 580.9 923.15 581 921.6 580.7 920.3 580 919.25 579 918.3 577.4 917.65 575.8 916.85 574.8 916.35 574.45 914.6 573.9 911.15 573.75 907.1 574.35 904.4 575.05 900.85 576.45 898.95 577.6 896.6 579.65 891.5 583.15 890.85 583 889.9 582.05 889.85 517.3 889.65 517.1 883.5 517.1 883.3 517.3 883.3 573.1 883.1 573.55 882.65 573.75 821.65 573.7 821.25 573.1 821.25 517.4 821.05 517.2 814.9 517.2 814.7 517.4 814.6 582.95 814.35 583.2 813.7 583.2 808.8 580.65 804.6 577.2 801.15 575.35 797.35 574.1 793.5 573.6 791.1 573.75 789.95 573.95 788.15 574.65 787 575.75 786.05 578.2 785.1 579.6 784.45 580.2 783.2 580.95 781 581.45 779.35 581.45 775.9 581 775.55 580.45 775.1 570.85 774.45 563.5 774.25 559.65 774.35 552 774.65 548.25 775.65 540.8 776.4 537.1 778.25 529.85 780.65 522.65 783.5 515.55 789.8 502.3 792.6 496 803.3 470.45 806.2 464.2 811.75 453.25 816.05 443.45 819.8 433.45 825.05 417.7 825.85 416.75 826.85 415.95 827.9 415.45 828.5 415.35 842.7 416.4 852.35 416.5 862 416.35 863 416.2 864.95 415.45 866.05 415.2 873.05 414.8 M188.2 415.1 L188.15 415 202.95 416.4 207.55 416.5 220.6 415.95 234.75 414.95 235.85 415.05 237.4 415.6 238.1 416.15 238.65 416.9 239.1 417.95 239.75 420.75 240.85 424.1 243.6 433.8 246.5 441.65 249.8 449.3 260.85 471.8 264.35 479.4 272.1 498.4 286.75 532.05 287.55 534.35 288.2 536.9 288.6 539.4 288.75 541.9 288.85 579.55 288.55 580.1 285.1 580.8 283.45 580.95 281.1 580.65 279.8 580 278.75 579 277.8 577.4 277.15 575.75 276.35 574.75 275.85 574.4 274.2 573.85 270.75 573.7 266.65 574.2 263.95 574.85 260.4 576.15 258.65 577.2 255.65 580.35 253.9 581.65 252.1 582 249.9 581.9 249.5 581.7 249.3 581.25 249.3 517.25 249.1 517.05 242.9 516.75 242.7 516.95 242.7 572.95 242.3 573.55 181.4 573.6 180.95 573.4 180.75 572.95 180.75 517.25 180.55 517.05 174.4 517.05 174.2 517.25 174.2 581.05 174.1 581.45 173.4 581.85 171.95 582.25 171.2 582.3 170.05 582.1 169.1 581.65 168.1 580.9 165.15 577.65 164.35 577.05 162.35 575.95 159.85 575 157.15 574.25 154.4 573.8 151.85 573.65 149.55 573.85 148.6 574.1 147.35 574.75 146.5 575.8 145.95 577.4 145.1 579.05 144.1 580.15 142.8 580.9 141.2 581.3 138.65 581.35 135 580.9 134.45 580.5 134.55 570 133.9 558.9 133.9 555.25 134.3 548 134.7 544.45 135.95 537.4 136.75 533.9 138.75 527 139.95 523.55 142.65 516.75 149.05 503.25 152.1 496.35 163.75 468.55 166.9 461.75 172.55 450.7 174.55 446.2 178 437.1 184.4 417.75 185.3 416.35 185.95 415.75 187.25 415.2 188.2 415.1 M199.75 424.9 L199.75 424.85 198.45 425 197.1 425.4 195.95 426.05 195.3 426.8 190.35 438.65 185.5 450.85 185.6 450.95 192 448 195.35 446.8 198.65 445.8 201.95 445.05 205.25 444.5 208.5 444.15 211.75 444.05 215 444.15 218.25 444.5 221.5 445.05 224.8 445.8 231.4 447.95 237.55 450.7 237.7 450.5 228.55 427.9 228.05 427.1 227.25 426.35 226.35 425.8 225.55 425.6 212.65 425.1 199.75 424.9 M845.85 425.2 L845.95 425.1 838.95 425.25 837.05 425.9 835.6 427 830.6 439 826 450.75 826.1 450.85 832.4 447.95 835.7 446.75 839 445.75 842.3 445 845.55 444.45 848.8 444.1 852.05 444 855.3 444.1 858.55 444.4 861.8 444.95 865.1 445.7 871.7 447.85 877.9 450.6 878.05 450.4 873.9 439.7 869.55 429.05 868.8 427.85 867.7 426.75 866.4 425.9 865.2 425.55 858.75 425.3 845.85 425.2 M374.8 159.65 L374.7 159.6 436.85 191.35 437.8 191 440 188.45 440.8 187.8 442.25 187 444.7 186.4 447.5 186.55 449.5 186.95 453.25 188.05 457.7 189.95 460.35 191.5 462.75 193.3 465.9 196.55 468.6 200.45 471.5 206.3 473.75 212 474.6 214.9 475.25 217.75 475.7 220.8 475.85 223.85 475.3 234.7 475.3 238.55 475.7 246.15 476.65 253.6 477.35 257.3 479.15 264.6 480.25 268.2 482.85 275.35 486 282.4 489.3 289.1 492.65 299.2 493.95 302.5 496.9 308.8 500.4 314.7 504.4 320.25 506.6 322.85 511.4 327.8 514 330.1 516.75 332.3 523.95 337.35 525.65 339.2 525.8 339.6 525.65 340 525.15 340.25 524.85 340.2 502.15 328.4 500.45 327.85 499.55 327.85 498.7 328.05 497.85 328.5 496.85 329.3 496.2 329.6 495.1 329.7 493.9 329.55 492.95 329.25 483.05 324.5 473.3 319.55 472.3 318.8 471.1 317.4 470.7 316.5 470.65 314.6 470.45 313.55 470.05 312.6 469.45 311.75 467.9 310.45 378.8 263.9 376.65 262.5 375.75 261.65 374.6 259.8 374.1 257.55 374.05 256.1 374.15 160.3 374.45 159.75 374.8 159.65 M689 159.65 L689.1 159.65 689.45 159.75 689.75 160.3 689.85 256.35 689.65 258.8 689.35 259.85 688.3 261.65 687.45 262.5 685.35 263.85 595.1 311.05 593.75 312.2 593.25 312.95 592.75 314.7 592.65 316.45 591.8 317.95 590.85 318.9 589.8 319.65 585.95 321.7 570.8 329.25 569.5 329.75 568.25 329.95 567 329.85 565.6 329.3 563.95 328.1 562.4 328.35 560 329.4 548.35 335.3 542.45 338.1 539.95 339.2 539.35 339.15 539 338.7 539.25 338.05 552.65 327 558 322.4 559.9 320.55 561.6 318.55 563.1 316.4 564.3 314.1 569.8 301.1 585.85 262.05 586.55 260.05 587.05 258 587.55 253.8 588 240.6 588.1 234 587.9 225.7 588.25 220.9 588.85 217.8 589.65 214.8 591.65 208.85 594.85 200.75 595.9 198.85 597.1 197.1 599.75 194.25 601.2 193.05 604.35 191.1 607.75 189.55 618.8 185.8 620.2 186.1 621.7 187 626.15 191.6 626.4 191.65 689 159.65 M531.85 0.5 L531.8 0.8 532.4 1.15 545.7 24.7 550.8 34.35 553.2 39.25 554.1 41.55 554.8 43.95 555.75 48.95 556.95 59.15 567.15 128.75 568.1 133.15 569.65 137.4 579.85 159.9 590.25 182.3 591.05 184.4 591.3 186.3 591.15 187.4 590.4 189.2 586 195.25 584.35 197.85 581.55 203.15 579.35 208.65 577.7 214.3 576.6 220.15 576.05 226.15 576.05 232.35 576.4 238.15 576.45 243.3 576.15 248.45 575.15 256.1 574.1 261.15 572.75 266.15 571.15 271.1 567.75 279.95 565.6 286.05 564.5 290.15 563.45 295.6 562.65 298.75 560.6 304.7 559.35 307.5 556.35 312.75 552.75 317.55 548.55 321.9 543.75 325.85 538.4 329.4 534.35 331.6 532.4 332.15 531.45 332.2 530.45 332.05 528.6 331.4 524.65 329.2 519.45 325.7 514.8 321.8 510.7 317.5 507.15 312.8 504.2 307.65 502.95 304.9 500.95 299.05 500.2 295.95 499.3 291.3 498.05 286.85 494.55 277.8 492.35 271.35 490.5 264.85 489.05 258.25 487.95 251.6 487.25 244.9 486.9 234.75 487.25 225.8 487.25 221.6 486.6 215.45 485.75 211.5 484.5 207.7 483.7 205.85 481.8 202.25 479.45 198.75 476 194.3 474.55 191.65 473.6 188.9 473.35 187.55 473.2 184.85 473.6 182 474 180.6 475.15 177.7 479.05 170.45 483.05 161.25 488.4 150.75 491.1 144.55 493.35 138.2 496.1 128.5 498.15 118.65 499.25 111.95 504.4 74.3 508.95 43.45 509.6 40.3 510.05 39.25 531.25 0.85 531.85 0.5 M532.25 137.8 L530.2 138.15 528.15 139.15 527.15 139.9 525.25 141.85 524.4 143.05 521.4 148.25 519.7 151.9 518.3 155.65 516.4 162.65 515.25 167.75 513.45 177.95 512.3 188.15 511.8 198.4 511.95 208.65 512.75 218.9 514.2 229.15 515.15 234.25 516.95 242.1 517.8 244.85 519.85 250.2 522.3 255.4 525.1 260.35 526.6 262.4 528.25 263.8 530 264.6 531.85 264.85 533.75 264.55 535.6 263.7 537.4 262.3 539.1 260.4 540.95 257.65 542.6 254.75 544 251.75 546.2 245.8 548.6 237.15 549.8 231.3 550.75 225.4 552 213.5 552.7 201.5 551.1 182.1 550.1 174.45 548.55 167.1 546.55 160.05 544.1 153.1 542.7 149.7 541.2 146.35 538.85 141.8 538.05 140.7 536.25 139.05 534.3 138.1 532.25 137.8 M684.85 68.3 L684.75 68.35 685.35 68.75 685.95 70.2 687.1 89.25 687.7 103.6 687.7 117.3 687.35 126.2 686.75 135.1 685.85 143.9 685.5 145.05 684.8 146.05 683.9 147 678.35 151.35 677.9 151.5 676.65 150.75 676.4 150.2 676.5 135.3 676.35 130.25 674.65 105.35 674.75 94.7 675.15 87.6 675.85 80.55 677 73.05 677.85 72.05 678.9 71.3 684.85 68.3 M378.4 69.35 L378.5 69.2 383.9 70.2 385.5 70.7 386.45 71.45 386.85 72.35 386.95 73.1 387.05 78.85 388.4 101.95 388.5 109.65 388.15 119.75 386.3 149.35 386.1 149.8 385.65 150 381.6 149.1 380.05 148.4 379.35 147.9 378.45 146.85 378.05 146.1 377.6 144.55 377.35 142.45 377.25 137.2 375.65 108.15 375.45 98.45 375.7 91.25 376.3 84 377.75 69.95 378 69.5 378.4 69.35"/>
  </g>
</svg>