<?xml version="1.0" encoding="iso-8859-1"?>
<!DOCTYPE svg PUBLIC "-//W3C//DTD SVG 1.1//EN" "http://www.w3.org/Graphics/SVG/1.1/DTD/svg11.dtd">
<svg version="1.1" id="Capa_1" xmlns="http://www.w3.org/2000/svg" xmlns:xlink="http://www.w3.org/1999/xlink" x="0px" y="0px"
	 viewBox="0 0 216.469 216.469" style="enable-background:new 0 0 216.469 216.469;" xml:space="preserve">
<path fill="#cc0000" d="M214.273,152.826l-57.628,57.629c-1.465,1.464-3.385,2.196-5.304,2.196s-3.839-0.732-5.304-2.196
	c-2.929-2.93-2.929-7.678,0-10.607l16.867-16.868c-9.43-5.278-25.926-13.529-42.63-17.237l-11.832,11.832
	c-1.465,1.464-3.384,2.196-5.304,2.196s-3.839-0.732-5.303-2.196c-2.929-2.93-2.929-7.678,0-10.607l3.118-3.118
	c-14.598,0.287-26.568,4.081-30.434,5.45l-4.033,4.033c-1.406,1.406-3.314,2.196-5.303,2.196h-8.485
	c-1.989,0-3.897-0.79-5.303-2.196l-4.258-4.258c-1.407-1.406-2.197-3.314-2.197-5.304v-8.485c0-1.989,0.79-3.896,2.197-5.304
	l4.03-4.03c1.362-3.854,5.136-15.804,5.436-30.42l-3.102,3.102c-1.464,1.464-3.384,2.196-5.303,2.196s-3.839-0.732-5.303-2.196
	c-2.929-2.93-2.929-7.678,0-10.607l11.832-11.832c-3.708-16.703-11.959-33.2-17.237-42.631L16.621,70.432
	c-1.464,1.464-3.384,2.196-5.303,2.196c-1.92,0-3.839-0.732-5.303-2.196c-2.929-2.93-2.929-7.678,0-10.607L63.643,2.196
	c2.929-2.928,7.678-2.928,10.606,0c2.929,2.93,2.929,7.678,0,10.607L50.632,36.42l21.065,38.803l7.738-7.738
	c2.929-2.928,7.678-2.928,10.606,0c2.929,2.93,2.929,7.678,0,10.607L79.161,88.973l8.79,16.193l20.035-20.035
	c1.918-1.918,3.892-3.845,5.909-5.774l-3.869-0.396c-4.121-0.422-7.119-4.104-6.697-8.225c0.421-4.121,4.094-7.121,8.225-6.697
	l17.133,1.754c27.691-24.466,57.096-46.005,58.644-47.135c2.985-2.179,7.113-1.86,9.728,0.753c2.613,2.614,2.933,6.742,0.753,9.728
	c-1.13,1.548-22.67,30.953-47.136,58.645l1.754,17.132c0.422,4.12-2.576,7.803-6.697,8.225c-0.259,0.026-0.518,0.04-0.772,0.04
	c-3.799,0-7.057-2.876-7.452-6.737l-0.396-3.867c-1.929,2.016-3.856,3.991-5.774,5.908l-20.035,20.035l16.193,8.79l10.881-10.881
	c2.93-2.928,7.678-2.928,10.607,0c2.929,2.93,2.929,7.678,0,10.607l-7.738,7.738l38.802,21.064l23.617-23.617
	c2.93-2.928,7.678-2.928,10.607,0C217.201,145.148,217.201,149.896,214.273,152.826z M35.147,181.321
	c2.929,2.93,2.929,7.678,0,10.607l-22.343,22.344c-1.464,1.464-3.384,2.196-5.303,2.196s-3.839-0.732-5.303-2.196
	c-2.929-2.93-2.929-7.678,0-10.607l22.343-22.344C27.469,178.393,32.218,178.393,35.147,181.321z M145.91,70.559
	c1.465,1.464,3.385,2.196,5.304,2.196c1.919,0,3.839-0.732,5.304-2.196l12.61-12.61c2.929-2.93,2.929-7.678,0-10.607
	c-2.93-2.928-7.678-2.928-10.607,0l-12.61,12.61C142.982,62.881,142.982,67.629,145.91,70.559z"/>
</svg>
