<svg xmlns="http://www.w3.org/2000/svg" height="512pt" version="1.1" viewBox="0 -16 512 512" width="512pt">
<g id="surface1">
<path fill="#cc0000" d="M 208.53125 381.039062 C 194.410156 396.480469 174.089844 406.160156 151.511719 406.160156 C 138.96875 406.160156 127.128906 403.171875 116.660156 397.871094 L 76.960938 460.371094 C 98.890625 472.78125 124.199219 479.859375 151.140625 479.859375 C 193.851562 479.859375 232.480469 462.050781 259.988281 433.46875 C 250.269531 426.941406 241.171875 419.449219 232.769531 411.058594 C 223.578125 401.859375 215.46875 391.828125 208.53125 381.039062 Z M 208.53125 381.039062 " />
<path fill="#cc0000" d="M 429.011719 148.039062 L 414.25 91.21875 L 376.039062 91.21875 C 375.121094 86.089844 373.828125 81.078125 372.21875 76.21875 C 370.511719 71.039062 368.429688 66.03125 366 61.21875 C 347.71875 24.941406 310.121094 0 266.800781 0 L 247.160156 0 C 185.941406 0 136.140625 49.800781 136.140625 111.011719 L 136.140625 141 L 91.449219 141 L 76.878906 197.050781 C 54.988281 209.421875 36.46875 227.089844 23.039062 248.480469 C 7.96875 272.488281 0 300.238281 0 328.71875 C 0 374.359375 20.328125 415.339844 52.410156 443.070312 L 92.929688 379.289062 C 81.28125 365.75 74.230469 348.140625 74.230469 328.878906 C 74.230469 286.210938 108.828125 251.609375 151.511719 251.609375 C 162.140625 251.609375 172.269531 253.761719 181.488281 257.640625 C 185.019531 232.519531 193.78125 208.398438 207.339844 186.789062 C 210.808594 181.261719 214.570312 175.941406 218.589844 170.839844 L 210.828125 141 L 166.140625 141 L 166.140625 111.011719 C 166.140625 66.339844 202.480469 30 247.160156 30 L 266.800781 30 C 292.710938 30 315.828125 42.230469 330.660156 61.21875 C 334.28125 65.851562 337.398438 70.871094 339.949219 76.21875 C 342.230469 80.980469 344.050781 86 345.359375 91.21875 L 307.46875 91.21875 L 292.699219 148.039062 C 268.398438 160.339844 247.871094 179 233.320312 201.851562 C 219.179688 224.019531 210.671875 250.121094 209.800781 278.148438 C 209.75 279.75 209.71875 281.359375 209.71875 282.96875 C 209.71875 307.300781 215.46875 330.28125 225.679688 350.628906 C 234.410156 368.058594 246.421875 383.558594 260.898438 396.328125 L 269.089844 383.441406 L 296.671875 340.019531 C 283.25 324.859375 275.101562 304.941406 275.101562 283.160156 C 275.101562 272.011719 277.230469 261.351562 281.121094 251.570312 C 293.71875 219.789062 324.78125 197.261719 360.988281 197.261719 C 370.710938 197.261719 380.058594 198.878906 388.78125 201.878906 C 389.441406 202.101562 390.109375 202.339844 390.761719 202.578125 C 391.269531 202.769531 391.78125 202.960938 392.289062 203.160156 L 393.789062 203.761719 C 425.050781 216.558594 447.058594 247.289062 447.058594 283.160156 C 447.058594 320.28125 423.488281 351.890625 390.488281 363.828125 C 389.179688 364.308594 387.851562 364.761719 386.5 365.179688 C 386 365.339844 385.488281 365.488281 384.980469 365.640625 C 377.371094 367.859375 369.320312 369.050781 360.988281 369.050781 C 346.269531 369.050781 332.410156 365.328125 320.289062 358.78125 L 293.371094 401.171875 L 285.300781 413.890625 C 307.53125 426.75 333.328125 434.109375 360.859375 434.109375 C 444.328125 434.109375 512 366.441406 512 282.96875 C 512 224.019531 478.25 172.960938 429.011719 148.039062 Z M 165.601562 207.359375 L 136.679688 207.359375 L 136.679688 178.441406 L 165.601562 178.441406 Z M 375.320312 159.601562 L 346.398438 159.601562 L 346.398438 130.679688 L 375.320312 130.679688 Z M 375.320312 159.601562 "  />
</g>
</svg>