<svg width="1792.4px" height="1754.85px" viewBox="0 0 1792.4 1754.85" xmlns="http://www.w3.org/2000/svg" xmlns:xlink="http://www.w3.org/1999/xlink">
  <defs/>
  <g>
    <path stroke="none" fill="#7FFF00" d="M674.8 1078.6 L674.75 1078.55 675.9 1078.8 676.35 1079.25 678.25 1082.45 678.95 1084.1 679.45 1085.85 679.5 1088 679 1089.8 677.9 1091.6 676.15 1093.3 672.4 1096.05 625.5 1125.05 601.95 1139.45 578.2 1153.5 558.4 1164.5 518.3 1185.55 498.45 1196.35 490.7 1201.05 483.4 1206.25 476.5 1211.9 470 1218 463.85 1224.5 458.05 1231.35 452.6 1238.55 447.5 1246.1 434.7 1266.3 421.5 1286.2 410.4 1301.2 399.05 1316.05 387.95 1331 377.6 1346.45 365.45 1366.35 353.8 1386.6 342.8 1407.15 332.6 1428.1 323.75 1448.4 315.7 1469.1 308.45 1490.1 302.2 1511.3 296.65 1534.15 292 1557.3 284.1 1603.8 281.7 1621.25 280.3 1638.75 279.75 1656.2 279.95 1673.7 280.7 1691.2 281.9 1708.7 285.1 1743.75 285.2 1746.25 284.55 1753.95 284.05 1754.5 283.7 1754.6 281.9 1754.9 281.3 1754.7 280.9 1754.2 279.4 1750.75 278.6 1748.65 278.1 1746.55 273.85 1721.45 270.3 1696.25 266.65 1661.8 264.25 1627.3 264 1609.8 264.6 1592.4 266 1575.1 268.1 1557.9 270.85 1540.75 274.2 1523.7 278.05 1506.7 282.35 1489.75 288.25 1468.05 294.5 1446.45 301.15 1425 308.2 1403.7 315.7 1382.6 323.7 1361.65 332.2 1340.9 341.3 1320.35 348.7 1304.55 356.4 1288.9 364.45 1273.45 372.9 1258.25 381.8 1243.3 391.25 1228.65 401.3 1214.4 412.05 1200.55 416.7 1195.15 431.25 1179.9 431.35 1179.55 430.85 1176.9 430.55 1176.6 363.35 1176.6 362.65 1176.35 362.25 1175.7 362.05 1173.75 362.25 1173 362.9 1172.55 403.25 1163.8 436.2 1155.9 469 1147.35 501.65 1138.3 534.2 1128.75 566.65 1118.9 631.4 1098.7 640.55 1095.05 649.35 1090.4 658.15 1085.3 667 1080.5 668.2 1080 671 1079.15 674.8 1078.6 M1146.1 1095.1 L1146.25 1095.05 1216.05 1116.3 1251.25 1126.85 1286.5 1137.15 1321.9 1147 1357.4 1156.3 1393.1 1164.95 1428.35 1172.65 1428.7 1172.8 1429.15 1173.35 1429.25 1175.75 1429 1176.15 1428.2 1176.5 1359.15 1176.5 1358.9 1176.85 1360.6 1181.5 1361.05 1182.15 1372.35 1193.2 1382.7 1204.95 1392.2 1217.2 1401 1229.95 1409.25 1243.1 1417.05 1256.5 1424.5 1270.1 1431.8 1283.85 1446.1 1312.45 1459.2 1341.5 1471.2 1370.9 1482.15 1400.7 1492.1 1430.85 1501.15 1461.3 1509.35 1492.05 1516.8 1523.05 1520.65 1541.85 1523.65 1560.65 1525.8 1579.55 1527.05 1598.5 1527.45 1617.45 1526.95 1636.5 1525.55 1655.55 1523.25 1674.55 1521.45 1693.6 1520 1712.65 1519.35 1715.3 1516.25 1721.7 1515.85 1722.15 1515.25 1722.3 1513.05 1721.85 1512.5 1721.55 1512.2 1720.75 1512.45 1702.25 1512.1 1683 1509.3 1637.3 1507.45 1614.55 1504.85 1591.9 1501.55 1569.75 1497.6 1547.65 1492.8 1525.75 1487 1504.15 1479.9 1482.2 1471.85 1460.5 1463 1439.15 1453.5 1418.1 1443.6 1398.35 1432.9 1378.9 1410.6 1340.6 1406.65 1334.35 1402.25 1328.3 1397.45 1322.55 1392.3 1317.05 1385.6 1309.55 1379.55 1301.4 1374.15 1293 1369.1 1284.4 1359.25 1267 1354.05 1258.45 1348.4 1250.2 1342.15 1241.95 1335.65 1234 1328.85 1226.35 1321.75 1219.1 1314.25 1212.2 1306.35 1205.8 1298 1199.85 1289.1 1194.4 1150.75 1116.25 1146.55 1113.8 1143.65 1111.85 1141.7 1110.05 1141.1 1109.1 1140.65 1107.85 1140.65 1105.8 1141 1104.35 1142.25 1101.3 1145.15 1095.7 1145.55 1095.25 1146.1 1095.1 M890.7 274.15 L890.5 274 900.55 274.45 910.25 276.5 919.65 279.75 966.55 298.5 989.75 308.55 1012.5 319.5 1033.15 331.25 1052.7 344.55 1070.9 359.15 1087.95 375 1103.85 392.05 1118.7 410.2 1132.5 429.3 1145.4 449.4 1150.9 459.15 1159.05 469.9 1163.75 477.9 1167.55 486.35 1170.5 495.05 1172.75 504.1 1174.4 513.25 1175.65 522.5 1176.6 531.8 1177.55 538.15 1179.05 544.45 1182.85 557 1193.55 588.9 1196.35 599.55 1197.6 607.55 1198.05 615.25 1197.75 623 1196.75 630.75 1195.1 638.2 1192.85 645.8 1190.15 653.2 1185 665.6 1180.3 681.6 1175.35 696.95 1169.45 711 1166.2 720.4 1164 730 1163.1 742.7 1162.65 745.35 1161.95 747.9 1161.05 750.5 1158.75 755.45 1156.25 760.05 1154.5 762.25 1152.3 763.85 1149.75 764.7 1147 764.85 1144.35 764.3 1141.75 763.05 1139.45 761.1 1137.4 758.25 1135.65 754.1 1131.85 739.2 1131.65 737.7 1131.85 735.55 1132.3 734.35 1133.4 732.6 1135.55 730.6 1139.05 728 1140.65 726.65 1143.45 723.6 1145.8 720.15 1160 694.1 1166.9 680.95 1173.4 667.6 1176.5 659.75 1178.8 651.8 1180.3 643.7 1181.1 635.55 1181.25 627.4 1180.85 619.15 1179.95 610.85 1178.65 602.5 1177.9 599.85 1176.8 597.3 1175.3 594.85 1168.2 587.3 1163.75 581.25 1160.35 575.1 1157.65 568.55 1155.6 561.65 1154.15 554.6 1153.2 547.4 1152.05 532.4 1151.45 528.8 1151 527.15 1149.75 523.8 1148.95 522.25 1147.95 520.8 1145.4 518.15 1143.8 516.95 1142 515.85 1140 514.9 1138.95 514.05 1138.2 513 1137 510.15 1136.55 508.35 1136.3 505.25 1138 496.2 1138.35 489.05 1137.7 482.2 1136.1 475.65 1133.55 469.35 1130.2 463.3 1126.05 457.45 1121.25 451.8 1099.05 426.85 1091.35 418.85 1085.15 413 1078.65 407.45 1071.85 402.3 1064.75 397.55 1062.1 396.2 1059.35 395.4 1056.55 395.15 1053.7 395.4 1051 396.2 1048.4 397.4 1045.85 399.1 1043.5 401.25 1041.6 403.5 1040.3 405.85 1039.45 408.35 1039.1 410.85 1039.2 413.4 1039.65 415.95 1040.45 418.5 1041.55 421.1 1044.85 427.45 1048.5 433.55 1052.55 439.25 1057.05 444.45 1062.05 449.1 1067.75 453.2 1074.1 456.6 1086.65 461.4 1091.8 464.2 1096.65 467.55 1101.1 471.15 1102.35 472.45 1103.35 473.9 1104.2 475.55 1104.9 477.35 1105.4 479.2 1105.7 481.05 1105.7 482.75 1105.45 484.05 1104.8 485.5 1103.8 486.9 1102.55 488.25 1101.1 489.5 1099.5 490.6 1097.7 491.55 1096.15 492.1 1094.6 492.45 1091.35 492.65 1082.3 492.65 1079.3 493.05 1076.4 493.9 1073.6 495.35 1070.95 497.6 1064.55 505.1 1059.45 513.25 1055.9 522.05 1054.3 531.35 1054.05 543.25 1054.55 555.35 1055.5 567.45 1056.5 579.5 1057.1 581.85 1058.2 584.05 1059.65 586.2 1081.8 618.2 1084.9 623.7 1086.9 629 1087.95 634.45 1088.05 640.05 1087.15 645.4 1085.45 650.55 1082.85 655.9 1075.5 667.35 1073.85 670.6 1072.5 673.9 1071.55 677.35 1071 681 1071 684.75 1071.55 688.75 1072.7 693.45 1074.25 697.55 1076.15 700.95 1078.5 703.75 1081.35 706 1084.75 707.75 1086.7 708.45 1091.15 709.55 1097.65 710.7 1101.1 711.85 1103.95 713.35 1106.15 715.25 1107.8 717.5 1108.8 720.2 1109.2 723.45 1108.9 726.85 1108.05 729.9 1106.8 732.3 1105 734.5 1102.45 736.4 1099.7 737.6 1096.55 738.2 1093.2 738.25 1078 735.85 1067.4 735.8 1057.45 737.35 1048.05 740.4 1039.1 744.8 1030.6 750.45 1022.45 757.2 1014.6 764.9 1005.25 776.1 997.35 788.15 990.55 800.75 978.55 826.65 972.2 839 964.9 850.75 953.75 864.95 951.9 868.25 950.35 872 949.05 875.95 945.4 888.9 944.15 892.7 944.4 893.05 950.95 893.1 956.6 892.65 960.25 892.7 963.9 893.15 967.5 893.9 971.1 895 974.55 896.3 977.95 897.85 989.85 903.75 998.55 907.55 1007.35 910.85 1016.3 913.65 1025.4 915.85 1034.75 917.45 1044.15 918.35 1053.7 918.5 1061.15 917.9 1068.7 916.45 1076.05 914.3 1083.1 911.55 1091.5 907.25 1099.75 902.25 1107.9 897.05 1116.2 892.15 1121.15 889.65 1126.25 887.45 1137.25 883.4 1138.3 883.3 1140.05 883.5 1141.65 884 1142.5 884.55 1142.85 885.15 1143.15 886.4 1143.2 888.25 1142.85 890.05 1142 891.75 1134.05 900.85 1125.65 909.4 1123.2 911.3 1115.7 915.25 1115.6 915.65 1119.35 920.55 1119.75 920.65 1154.2 905.15 1154.7 905.05 1155.5 905.35 1158.45 908.1 1161.1 911.8 1163 915.85 1164.2 920.3 1164.75 924.8 1164.65 929.8 1163.95 934.7 1162.65 939.6 1160.6 945 1158.1 950.2 1155.35 954.85 1152.3 959.15 1148.95 963.1 1145.4 966.7 1141.5 970.15 1137.45 973.25 1133.25 976.15 1128.9 978.8 1124.4 981.3 1115.15 985.95 1101 992.4 1095.8 995 1091.05 997.95 1086.65 1001.2 1082.5 1004.75 1078.5 1008.55 1074.65 1012.55 1067.75 1020.3 1067.8 1020.4 1072.65 1018.7 1097.2 1008.5 1121.55 998 1125.25 996.05 1128.75 993.75 1132.05 991.1 1150.05 974 1165.65 960.85 1181.9 948.75 1198.75 937.65 1216.2 927.5 1234.2 918.25 1252.8 909.9 1311.65 887 1331.7 879.9 1352.1 874.3 1370.5 870.35 1389 866.8 1407.55 863.8 1426.2 861.55 1444.95 860.15 1463.75 859.75 1482.6 860.5 1501.4 862.55 1511.35 864.7 1521.15 867.85 1539.9 874.6 1540.3 875.25 1540.3 875.65 1540.1 876.1 1539.75 876.4 1520.7 888.3 1520.6 888.7 1523.1 892.2 1524.05 893.1 1539.85 905.9 1554.75 919.4 1569 933.6 1582.55 948.35 1595.6 963.55 1608.2 979.15 1620.5 995.1 1632.55 1011.25 1652.55 1039.95 1670.85 1069.4 1687.45 1099.65 1702.4 1130.65 1715.65 1162.35 1727.3 1194.8 1737.3 1228 1745.7 1261.85 1757.15 1317.25 1768.75 1377.75 1769.35 1382.6 1769.55 1387.4 1769.15 1392.1 1768.05 1396.5 1765.9 1401.1 1762.85 1405.1 1759.3 1408.3 1758.95 1408.5 1758.35 1408.55 1757.9 1408.35 1757.6 1407.95 1755.5 1403.4 1754.85 1401.3 1744.55 1356.6 1739.95 1334.1 1734.55 1294.75 1731.1 1278.35 1726.65 1262.3 1721.4 1246.5 1715.6 1230.9 1709.35 1215.45 1702.9 1200.1 1687.8 1164.65 1678.7 1144.75 1669.1 1125.15 1658.8 1105.95 1647.75 1087.15 1635.85 1068.9 1622.95 1051.2 1608.95 1034.15 1594.9 1018.55 1580.4 1003.5 1565.4 989 1549.9 975.05 1533.9 961.75 1517.3 949.1 1500.1 937.1 1482.3 925.8 1471.2 919.8 1460 915.05 1448.6 911.45 1437.05 908.9 1425.4 907.4 1413.6 906.9 1401.65 907.25 1389.6 908.5 1370 911.35 1350.55 914.6 1331.2 918.4 1312 922.7 1292.9 927.6 1273.95 933.15 1255.15 939.4 1236.55 946.4 1219.5 953.7 1203 961.8 1187 970.65 1171.4 980.2 1156.2 990.35 1141.3 1001 1126.65 1012.05 1112.15 1023.55 1098.3 1033.65 1083.8 1042.8 1069 1051.6 1054.35 1060.65 1051.9 1062.4 1049.6 1064.45 1047.75 1066.65 1046.45 1069.1 1039.95 1087.6 1037.2 1097 1032.8 1117.1 1029.7 1127.1 1025.8 1136.6 1021.05 1145.6 1015.6 1154 1009.25 1162 1002 1169.6 994.05 1176.55 992.75 1177.4 991.4 1178 989.45 1178.2 988.9 1178.1 988.5 1177.8 988.25 1177.4 988.2 1176.95 989.35 1169.25 991.75 1160.95 992.55 1155.5 992.65 1150.1 992.2 1144.75 991.3 1139.5 990.1 1134.2 986.75 1122.15 986 1120.6 984.15 1117.95 975 1107.85 965.55 1098 963.15 1096.1 960.5 1094.85 957.65 1094.2 954.6 1094.1 951.4 1094.6 947.95 1095.65 944.45 1097.25 936.75 1101.8 932.45 1103.65 928.25 1104.75 924.15 1105.2 920.25 1105 916.2 1104.05 912.4 1102.35 902.2 1095.25 895.65 1092.35 889.05 1090.9 882.4 1090.65 875.85 1091.45 869.25 1093 862.7 1095.15 856.15 1097.65 849 1100.95 842.15 1104.9 828.65 1113.45 825.3 1115.8 822.4 1118.3 819.8 1121.1 817.7 1124.15 816 1127.45 814.8 1131 814.05 1134.8 813.85 1138.75 813.9 1143.95 814.1 1149.05 814.55 1154.1 815.3 1159.15 816.45 1164.05 818.15 1168.8 820.5 1173.45 824.95 1179.9 826.2 1182.3 827.25 1185.25 826.85 1186.1 826.15 1186.35 825.6 1186.2 823.25 1184.85 819.15 1182.25 815.2 1179.25 811.7 1175.95 808.8 1172.45 806.35 1168.35 804.5 1163.6 800.8 1144.3 796.75 1130.55 791.75 1117 786.25 1103.65 784.5 1099.85 782.55 1096.4 780.4 1093.05 778.05 1089.85 773 1083.7 767.7 1077.6 761.7 1071.45 755.4 1066.4 748.8 1062.35 741.85 1059.2 734.6 1056.85 727.05 1055.2 719.3 1054.15 706.6 1053.25 702.25 1052.45 698.1 1051.1 694.45 1049.25 691.2 1046.75 688.35 1043.6 685.95 1039.9 682.8 1032.65 681.4 1030.2 679.8 1027.8 676.1 1023.3 674.05 1021.15 669.8 1017.2 657.5 1006.7 644.9 996.9 632.05 987.7 618.9 979.1 605.5 971.05 591.85 963.6 577.95 956.65 563.8 950.25 549.45 944.35 534.85 938.95 520.05 934 505.05 929.45 489.85 925.35 474.5 921.65 458.95 918.35 432.25 913.45 410.35 909.75 399.4 908.35 388.4 907.4 377.4 907.1 366.25 907.55 355.15 908.95 348 910.2 340.9 911.75 334 913.75 330.7 915 327.5 916.45 302.85 929.9 279.45 944.8 257.25 961.1 236.15 978.65 216.1 997.4 197.05 1017.35 178.9 1038.35 161.6 1060.35 152.9 1072.45 144.75 1084.85 137.05 1097.55 129.8 1110.45 122.9 1123.6 116.3 1136.9 109.95 1150.35 103.8 1163.9 89 1197.5 81.9 1214.4 75.2 1231.45 68.95 1248.65 63.25 1266.05 58.2 1283.7 53.95 1301.65 38.25 1378.65 33.35 1400.35 32.95 1401 32.25 1401.25 29.15 1401.05 28.55 1400.55 26.55 1383.2 25.75 1374.3 25.45 1365.4 25.95 1352.25 27.15 1339.2 28.95 1326.25 31.3 1313.45 34.05 1300.65 37.15 1287.95 40.5 1275.25 49.35 1243.55 54.85 1224.6 60.6 1205.75 66.65 1187 73.15 1168.4 80.2 1149.95 87.9 1131.75 96.3 1113.75 110.5 1086.5 125.8 1060 142.15 1034.3 159.5 1009.35 177.85 985.1 197.2 961.6 217.5 938.75 238.75 916.6 242.45 913.05 254.3 903.15 271.15 889.55 271.15 889.15 249.15 875.35 248.8 875 248.65 874.5 248.7 874.1 249.2 873.45 271.25 869.2 282.3 867.45 293.2 866.7 340 867.45 408.2 870.05 418.95 870.85 429.5 872.4 440.4 874.85 451.2 877.95 461.85 881.55 496.35 894.6 520.35 903.9 544.15 913.7 567.55 924.35 584.35 933.3 600.6 943.3 616.5 954 632.2 964.95 636.05 967.9 639.7 971.1 643.2 974.45 653.35 985 660.4 991.7 679.15 1007.15 698.05 1022.3 701.05 1024.4 704.15 1025.85 707.4 1026.75 710.85 1027.2 714.4 1027.3 718.25 1027.15 726.05 1026.5 726.15 1026.2 705.55 1007.7 703 1005.75 697.55 1002.15 695.05 999.95 650.75 951.5 645.8 946.25 640.7 941.2 635.2 936.35 633.15 934.3 631.45 931.85 630.25 929.05 629.45 925.9 629.2 922.75 629.35 919.65 629.9 916.35 630.85 912.95 632.15 909.75 633.75 906.75 635.8 903.7 638.1 901 640.7 898.6 643.45 896.6 646.55 894.9 649.85 893.65 650.55 893.6 651.55 893.9 653.65 895.25 655.2 896.75 655.7 897.5 656 898.5 656.2 902.1 657 905.3 658.3 908.25 660.05 910.9 662.15 913.25 664.55 915.35 667.1 917.2 669.8 918.95 676.9 923 684.1 926.35 691.55 929.25 699.15 931.65 706.9 933.65 714.75 935.3 730.65 937.9 732.95 937.95 735.4 937.6 736.3 936.9 736.2 936.5 716.5 929.1 706.55 925.05 696.95 920.3 692.3 917.35 688.1 914.05 684.2 910.3 680.6 906.2 677.3 901.85 674.3 897.25 671.55 892.45 669.35 888.15 669.25 887.55 669.5 887 670.45 885.8 670.85 885.5 671.35 885.4 672 885.6 678.3 890.15 681.75 892.8 694.25 904 704.25 911.15 715.1 916.95 726.8 921.05 738.05 923.6 749.4 925.4 760.6 926.25 771.75 926.1 782.8 924.75 793.7 922.15 804.55 918.1 820.55 909.75 826.15 907.6 831.95 905.9 839.75 903.95 841.45 903.3 842.75 902.5 843.75 901.5 844.45 900.35 844.9 899 845.15 897.3 845.2 895.3 844.35 886.95 842.5 878.95 839.9 871.15 836.65 863.3 831.8 852.95 826.5 842.9 820.8 833.15 814.75 823.6 808.4 814.25 801.85 805.05 788.1 786.9 782.25 778.5 771.65 761.05 766 752.5 760.6 746.15 754.75 741.35 748.3 737.8 741.55 735.4 734.45 734 727 733.45 719.4 733.6 711.5 734.3 701.75 736.35 696.95 737.65 692.5 739.1 688.4 740.75 684.7 742.6 681.35 744.65 678.35 746.95 675.6 749.55 673.2 752.35 671.05 755.5 669.2 758.95 667.6 762.7 666.25 766.75 665.05 771.25 664.1 776.15 663.35 781.45 662.35 791.6 661.3 812.15 660.6 822.3 660.4 823.45 659.6 825.55 658.4 827.5 657 828.9 656.2 829.4 653.8 830.35 651.75 830.85 649.45 831.1 647.2 831 645.2 830.65 643.15 830.05 641.25 829.2 639.3 828 637.65 826.7 636.15 825.2 634.9 823.5 633.95 821.8 633.15 819.65 632.7 817.5 632.6 815.4 632.8 812.95 634.3 804.45 636.25 796 638.85 787.8 644.6 774.95 645.95 769.9 646.4 765.1 646 760.45 644.85 755.9 643.1 751.55 640.75 747.3 631.4 733.55 625.9 723.45 621.4 713.1 617.7 702.45 614.7 691.65 612.2 680.65 610.1 669.55 608.25 658.35 606.45 645.05 605.25 631.9 604.65 618.85 604.7 605.95 605.35 593.15 606.6 580.5 608.4 567.95 610.8 555.5 613.75 543.2 617.25 531 621.3 518.9 625.9 506.9 631 495.05 636.65 483.3 642.8 471.65 651.4 456.65 658.4 441.65 660.25 438 662.2 434.55 664.55 431.15 673.25 419.65 682.3 408.3 691.75 397.55 702.15 387.5 722.6 369.75 743.5 352.35 764.95 335.75 787.15 320.35 798 313.45 809.1 306.8 820.4 300.45 831.9 294.5 843.65 289 855.65 284 867.9 279.55 880.3 275.8 890.7 274.15 M1117.2 1054.6 L1117.3 1054.75 1118 1055 1118.4 1055.65 1119.55 1061.95 1120 1065.55 1119.95 1068.9 1119.45 1072.1 1118.7 1075.1 1117.6 1078.1 1116.25 1080.85 1114.6 1083.5 1112.7 1086 1110.35 1088.55 1105 1093.7 1102.45 1096.7 1100.1 1099.95 1089.5 1117.2 1089.55 1117.6 1091.75 1119.3 1092.15 1119.3 1103.55 1110.35 1103.9 1110.15 1104.65 1110.15 1105.2 1110.55 1105.35 1110.85 1104.8 1120.45 1103.6 1131.4 1101.85 1142.05 1099.55 1152.35 1096.6 1162.35 1092.95 1172.05 1088.55 1181.45 1083.3 1190.55 1079.7 1195.7 1075.9 1200.25 1071.7 1204.5 1067.35 1208.25 1062.8 1211.5 1057.85 1214.55 1052.8 1217.2 1047.6 1219.55 1042.25 1221.65 1036.75 1223.55 1031.1 1225.25 1019.45 1228.35 1004.4 1231.9 1003.55 1231.75 1003.15 1231.25 1003.05 1230.6 1003.3 1230.05 1015.8 1216.05 1022.7 1208.7 1029.75 1202.15 1036.05 1196 1041.15 1189.4 1045.2 1182.4 1048.35 1175 1050.75 1167.3 1052.55 1159.4 1054 1151.3 1055.15 1143.05 1055.9 1135.15 1055.95 1131.15 1055.2 1121.6 1055.5 1116.45 1056.45 1111.4 1058.05 1106.4 1060.1 1101.75 1062.6 1097.25 1065.5 1092.85 1068.6 1088.55 1075.95 1079.4 1079.85 1075.05 1083.95 1070.95 1088.25 1067.1 1092.85 1063.55 1097.65 1060.4 1103 1057.6 1106.55 1056.35 1110.3 1055.6 1117.2 1054.6 M715.7 1076.55 L715.7 1076.5 720.25 1076.55 724.55 1077.1 728.55 1078.2 732.2 1079.85 735.6 1082.05 738.8 1084.95 741.6 1088.3 744.1 1092.2 763.4 1123.8 769.3 1134.5 771.85 1140.5 773.65 1146.7 774.75 1153.15 775.85 1173.45 778.1 1186.9 781.6 1200.05 786.15 1212.95 787.6 1216.1 792.3 1224.05 792.45 1224.6 792.3 1225.15 791.9 1225.55 791.05 1225.65 784.85 1224 776.7 1221.2 769.1 1217.85 762.1 1214.05 755.4 1209.6 749.3 1204.75 743.8 1199.45 738.75 1193.6 734.2 1187.2 730.25 1180.45 726.85 1173.25 724.05 1165.7 721.75 1157.6 720.05 1149 718.9 1140 718.45 1131.85 718.8 1131.15 719.15 1130.95 719.85 1130.9 742.1 1135.95 742.4 1135.7 742.2 1133.15 741.2 1129.95 739.5 1126.8 737.25 1123.9 734.5 1121.25 731.25 1118.9 727.65 1117 719.1 1113.95 703.4 1107.55 701.55 1106.5 700.25 1105.5 699.15 1104.3 698.25 1102.85 697.75 1101.5 697.55 1100.3 697.6 1097.35 698.2 1094.2 700.95 1083.8 702.3 1081.25 703.9 1079.55 705.8 1078.3 707.8 1077.55 710.35 1077 715.7 1076.55 M543.7 976.05 L543.6 976.1 554.1 976.2 564.7 977.9 575.3 980.3 585.1 982.3 585.5 982.45 585.95 983.1 585.65 986 585.4 986.6 584.85 986.95 582.8 987.6 580.3 988.1 565.25 989.35 550.65 991.65 536.2 994.9 522 998.9 508 1003.6 494.1 1008.8 480.35 1014.35 466.7 1020.15 464.3 1021.3 462.05 1022.75 459.95 1024.4 455.85 1028.25 450.3 1034.55 448.9 1036.55 448.15 1038.35 448 1039.95 448.45 1041.5 449.45 1042.7 450.85 1043.65 452.9 1044.5 455.25 1045.05 526.15 1056.7 527.75 1057.35 528.55 1058.1 528.85 1058.65 528.8 1059.3 528.45 1059.75 527.9 1059.95 517.75 1061.1 506.05 1062.2 493.4 1063.15 455.3 1066.65 442.6 1067.5 429.85 1067.9 417.1 1067.7 404.3 1066.75 390.3 1065.1 376.35 1063.1 362.5 1060.7 348.8 1057.8 335.25 1054.35 321.85 1050.3 308.65 1045.55 295.75 1040.1 283.45 1033.65 271.55 1026.15 247.05 1009.55 246.05 1008.55 245.35 1007.5 244.95 1006 245.05 1004.8 245.55 1003.6 246.45 1002.4 247.7 1001.3 270.7 983.6 273.6 981.75 275.05 981.2 276.7 980.95 278.05 981.05 279.6 981.55 281.25 982.5 286.75 987 290.8 989.7 295.15 992 299.55 993.85 346.7 1010.6 394 1026.65 395.8 1027.05 397.65 1027.2 399.65 1027.1 403.65 1026.3 405.7 1025.65 409.45 1024.15 426.75 1015.4 444 1006.35 461.4 997.7 479.15 990.2 494.8 985.05 510.95 981.05 527.3 978.1 543.7 976.05 M1244.5 975.3 L1244.55 975.35 1250.65 975.6 1268.45 977.95 1285.65 981.6 1302.6 986.5 1319.05 992.4 1335.15 999.25 1350.95 1006.95 1366.5 1015.35 1383.3 1025.1 1386.65 1026.45 1390.3 1027.3 1393.75 1027.4 1395.4 1027.15 1409.5 1023.4 1423.55 1019.45 1437.55 1015.2 1451.4 1010.55 1465.05 1005.45 1478.4 999.8 1491.5 993.45 1508.15 984.3 1511.5 983.1 1513.15 982.8 1515.85 982.75 1518.45 983.35 1520.85 984.45 1523.25 986.05 1534.25 994.9 1543.6 1001.7 1544.85 1003 1545.6 1004.35 1545.85 1006.05 1545.5 1007.4 1544.85 1008.5 1543.5 1010 1541.85 1011.35 1531 1019.05 1519.95 1026.25 1508.65 1032.9 1497.05 1038.95 1485.15 1044.4 1472.9 1049.2 1460.3 1053.25 1447.35 1056.6 1431 1060 1414.65 1062.9 1398.25 1065.2 1381.8 1066.85 1365.35 1067.7 1348.8 1067.65 1332.2 1066.7 1303.85 1063.25 1268.05 1060.65 1261.9 1059.6 1261.35 1059 1261.35 1058 1261.85 1057.4 1262.25 1057.3 1281.55 1055.1 1301.55 1052.35 1319.85 1048.75 1337.9 1044.2 1338.7 1043.7 1339.4 1042.9 1340.1 1041.8 1341.25 1039.2 1341.6 1038 1341.6 1036.7 1332.95 1027 1330.6 1024.75 1328.2 1022.75 1325.65 1021 1323 1019.6 1309.45 1013.8 1295.8 1008.25 1282.05 1003.1 1268.15 998.5 1254.05 994.55 1239.75 991.4 1225.15 989.15 1210.3 987.95 1209 987.75 1205.25 986.5 1204.75 986.2 1204.5 985.65 1204.5 985.25 1204.9 984.6 1208.95 983.05 1221.05 979.1 1226.95 977.55 1232.8 976.35 1238.55 975.6 1244.5 975.3 M902.35 880.45 L902.45 880.35 897.7 897.9 893.55 916.45 893.45 917.8 893.95 922 894.55 928.85 894.6 932.05 894.1 935.3 884.65 965.75 875.45 996.15 872.35 1007.55 869.6 1019.05 867.45 1030.7 866.2 1042.25 866.5 1044.1 867.55 1046.15 869.15 1048.15 871.25 1050.25 876.15 1054.15 881.15 1057.55 882.15 1058 884.35 1058.3 885.6 1058.2 888.25 1057.55 891.05 1056.4 893.65 1054.9 895.9 1053.15 897.65 1051.25 898.55 1049.45 900.7 1039.95 901.8 1036.7 902.8 1035.1 904.05 1033.8 906.45 1031.7 907.2 1031.4 908.05 1031.75 911.4 1035.4 912.4 1037 913 1038.8 913.3 1040.7 913.25 1042.65 912.25 1047.45 912.2 1049.85 912.65 1051.75 913.7 1053.35 915.15 1054.45 917 1055.2 919.25 1055.65 922.05 1055.85 930.25 1056.95 932.65 1057.1 937.2 1057.1 939.4 1056.75 941.5 1056.05 943.3 1054.9 944.85 1053.2 946.15 1050.85 948.45 1045.1 949.3 1042.25 949.8 1039.35 949.9 1036.45 949.45 1033.5 948.4 1030.55 946.6 1027.35 942.75 1021.25 939.35 1014.85 936.65 1008.3 934.7 1001.55 933.1 991.55 931.45 971.65 930.4 961.7 925.8 931.7 920.7 901.8 920.05 899.7 917.65 895.55 917.45 895.6 907.45 979.15 907.1 979.85 906.35 980.15 905.6 979.9 905.2 979.25 904.1 972.6 903.25 959.3 903.35 946 904.5 919.4 904.7 906.15 904.1 892.8 902.35 880.45 M837.6 933.3 L837.55 933.4 831 934 824.8 935.4 818.85 937.45 813.05 939.95 795.8 948.4 790 950.85 788.75 951.75 787.75 953 785.85 955.85 785.85 956.2 787.05 958.55 787.45 958.7 797.9 955.7 801.35 954.45 814.55 948.8 818.95 947.25 823.5 946 828.15 945.25 832.85 945.05 841.1 945.95 842.65 945.9 844.05 945.6 845.25 944.95 846.25 943.8 846.85 942.25 847.05 940.2 846.85 938.05 846.25 936.3 845.35 935.1 844.2 934.3 842.85 933.8 841.2 933.45 837.6 933.3 M1734.2 316.05 L1734.2 316.2 1734.7 316.3 1735.1 316.65 1738.1 320.95 1739.75 323.5 1741.1 326.15 1752.85 356.85 1766.75 390.6 1774.55 414.45 1780.8 438.6 1785.55 463 1788.95 487.6 1791.1 512.4 1792.15 537.4 1792.2 562.55 1791.25 582.8 1789.4 603.05 1787.2 623.3 1785.25 643.6 1781.55 675.05 1775.95 706.05 1768.85 736.75 1760.65 767.25 1756.7 779.55 1751.75 791.5 1745.65 802.95 1728.05 828.75 1709.1 859.5 1698.85 874.25 1685.75 890.6 1672.05 906.5 1644.05 937.9 1641.65 940.3 1638.9 942.7 1636.1 944.8 1631.4 947.95 1629.5 948.8 1627.65 949.3 1625.55 949.35 1623.7 949 1622.05 948.3 1620.05 946.95 1605.7 933.3 1593 921.75 1592.7 921.35 1592.6 920.9 1592.7 920.45 1593 920.1 1606.9 909.1 1620.75 896.9 1633.7 884.2 1645.85 871 1657.2 857.3 1667.8 843.15 1677.7 828.5 1687 813.4 1700.5 788.55 1712.5 763 1723.45 736.95 1733.8 710.6 1740.1 693.45 1745.75 676.2 1750.75 658.8 1755.05 641.3 1758.65 623.65 1761.55 605.85 1763.75 587.9 1765.2 569.8 1766.2 542.2 1765.75 514.65 1763.5 487.15 1759.2 459.85 1734.1 337.05 1733.25 332.1 1731.7 317.55 1732.05 316.95 1732.35 316.75 1734.2 316.05 M65.85 321.5 L65.6 321.55 66.1 321.65 67.45 322.4 67.75 323.05 67.7 323.55 46 385.1 41.3 399.6 37.05 414.15 33.25 428.85 30.05 443.65 27.5 458.6 25.7 473.65 24.7 488.9 24.05 510.45 23.75 532 23.95 553.5 24.9 574.95 26.75 596.3 29.7 617.5 33.9 638.55 39.6 659.4 48.3 686.6 57.55 713.55 62.45 726.9 67.6 740.15 73 753.3 78.7 766.25 84.7 779.1 91.1 791.75 97.9 804.2 105.1 816.45 112.75 828.45 120.9 840.2 129.55 851.7 138.75 862.95 152.15 877.8 166.25 892.25 195.05 921.2 195.05 922.05 194.8 922.4 183.05 934.55 176.15 941.35 169 947.85 167.65 948.5 166.35 948.7 164.65 948.65 161.05 947.9 159.15 947.2 157.55 946.35 156.4 945.55 135.85 926.8 126.15 917 117.35 906.5 101.75 885.05 86.65 863.15 55.8 817.55 54.6 816.15 45.75 807.35 38.55 798.05 32.55 788 27.75 777.35 24 766.35 21.1 755 18.85 743.4 17.15 731.65 7.3 655.1 3.25 616.75 0.65 578.35 -0.05 557.1 -0.2 535.85 0.3 514.6 1.6 493.4 3.8 472.25 7.05 451.2 11.45 430.3 17.1 409.6 21.05 397.95 25.6 386.55 30.7 375.45 36.3 364.6 42.35 354 48.85 343.6 55.7 333.4 62.8 323.5 64.25 322.25 65.25 321.65 65.85 321.5 M966.45 915.45 L966.25 915.45 964.55 915.5 961.15 916.1 957.9 917.3 955.15 919 953.9 920.05 952.3 922.05 952.4 922.45 959.6 927 967.45 930.95 975.55 934 983.95 936.3 992.55 937.9 1001.4 938.85 1010.6 939.3 1019.5 939.25 1019.65 938.95 1017.8 936.15 1015.45 935.05 1013.25 934.45 1003.15 932.55 998.25 931.3 993.5 929.75 988.95 927.85 984.35 925.4 980.15 922.55 974.6 917.95 973.15 917.05 969.9 915.85 968.2 915.55 966.45 915.45 M1359.3 0.15 L1359.1 0.05 1359.6 0.15 1360 0.5 1374.95 21.9 1382.4 33.15 1389 44.8 1400.9 68.95 1412.1 93.4 1422.6 118.1 1432.4 143.1 1441.4 168.4 1449.55 194 1456.85 219.9 1463.25 246.1 1469.2 274.2 1474.4 302.4 1478.8 330.7 1482.3 359.1 1484.9 387.55 1486.55 416.15 1487.2 444.85 1486.75 473.6 1487.25 479.85 1487.55 480 1494.8 473.75 1501.25 466.55 1506.45 458.7 1510.35 450.05 1514.95 437.65 1519.85 425.5 1525.1 413.5 1530.8 401.75 1536.95 390.25 1543.65 379 1550.95 368.1 1558.85 357.6 1560.45 356 1561.6 355.3 1562.15 355.15 1562.8 355.35 1563.2 355.85 1563.25 356.5 1560.9 369.3 1558 383.55 1530.35 500.1 1529.2 504.05 1527.65 507.8 1525.75 511.25 1523.55 514.5 1521 517.65 1518.2 520.6 1515.2 523.4 1488.4 545.85 1465.4 566.3 1442.85 587.35 1420.75 608.85 1405.95 624.45 1392.1 640.8 1378.95 657.65 1340.9 709.3 1327.8 726.15 1314.1 742.4 1310.45 746.95 1300.7 761.6 1275.35 797.3 1249.7 832.85 1233.65 854.05 1217.1 874.85 1214.4 877.8 1211.4 880.6 1205.75 885.55 1205 885.85 1203.3 885.2 1202.85 884.85 1202.65 884.3 1202.15 878.45 1202.15 875.3 1202.45 873.85 1205.5 867.35 1207.5 861.9 1209.05 856.35 1210.25 850.65 1213.1 833.4 1214.2 827.7 1218.2 811.15 1223.15 795.05 1228.95 779.35 1235.6 764.05 1242.95 749.05 1251 734.35 1259.65 719.85 1268.9 705.55 1279.05 691.45 1289.9 678.25 1301.45 665.8 1313.6 654 1326.25 642.75 1339.4 632 1352.95 621.65 1366.75 611.65 1375.05 605.3 1382.9 598.5 1390.25 591.2 1397.2 583.5 1403.75 575.45 1409.9 567.1 1415.7 558.5 1421.2 549.65 1424.55 542.45 1426.8 534.7 1433.6 501.05 1436.75 483.55 1439.5 466 1441.7 448.4 1443.4 430.75 1444.45 413.05 1444.8 395.3 1444.4 377.5 1443.1 349 1441.6 320.55 1439.55 292.15 1436.65 263.85 1434.3 246.1 1431.55 228.45 1428.35 210.85 1424.65 193.35 1420.45 176 1415.7 158.8 1410.35 141.75 1404.4 124.8 1381.4 65.1 1358.05 5.6 1357.45 3.4 1357.2 1.65 1357.5 1.05 1357.8 0.85 1359.3 0.15 M431.45 0.6 L431.3 0.55 433.5 1.45 433.85 2.2 433.75 2.65 409.25 64.9 388.35 119.3 377.05 152.8 367.9 186.85 360.75 221.35 355.45 256.25 352.35 284.1 350 312 348.15 340 346.6 368 346.05 382.9 346 397.9 346.6 412.85 347.85 427.75 350.85 451.1 358.05 497.75 361.35 521 363.45 531.95 366.8 542.05 371.2 551.5 376.5 560.4 382.55 568.8 389.2 576.95 396.25 584.85 408.65 598.15 423.2 615.35 428.1 621 433.15 626.45 438.45 631.6 444.1 636.35 456.1 645.9 467.85 655.6 479.35 665.55 490.55 675.8 501.45 686.35 512.05 697.2 522.25 708.4 532.1 720 540.3 730.05 548.45 740.2 556.4 750.5 563.95 761.05 571 771.95 577.3 783.2 582.75 794.95 587.25 807.3 591.05 822.35 593.8 837.7 598.3 868.65 598.35 869.65 598.05 871.4 596.45 876.45 596.3 876.75 595.75 877.15 595 877.15 594.65 876.95 588.05 871.05 584.85 868 582 864.7 542.75 810.9 515.3 774.65 487.55 737.35 473.55 718.8 459.25 700.5 444.5 682.55 429.15 665.1 413 648.25 383.15 618.5 368.15 603.75 353 589.15 337.65 574.8 322 560.75 306 547.1 289.55 533.95 282.9 529.3 279.7 526.85 277 524.1 270 515.8 265.6 510 263.8 507.1 262.25 504.05 261.1 500.85 256.3 482.4 252.2 463.9 248.75 445.3 245.8 426.6 243.3 407.85 241.15 389.05 237.55 351.4 237.6 349.05 237.85 347.2 238.3 346.7 238.6 346.55 240.45 346.15 241.1 346.35 241.5 346.9 253.25 380.35 267.9 422.95 270.95 431.15 274.25 439.2 277.95 447.05 282.05 454.65 286.7 462 292 469 297.95 475.6 299.1 476.65 303.9 480.3 304.3 479.95 303.75 448.65 304.35 416.6 306.05 384.8 308.9 353.25 312.95 321.95 318.15 290.85 324.5 259.95 332.05 229.3 340.4 199.05 344.85 184 349.5 169 354.4 154.15 359.55 139.35 365 124.7 370.75 110.2 376.8 95.8 383.25 81.6 390.1 67.55 397.35 53.7 405.05 40.05 413.2 26.6 421.85 13.35 430.55 1.05 430.95 0.7 431.45 0.6 M651.9 839.15 L651.85 839 654.95 839.3 657.8 840.05 660.3 841.15 662.45 842.65 664.15 844.45 665.4 846.55 666.15 848.9 666.35 851.45 665.95 853.95 665.1 856.2 663.75 858.25 662 860 659.9 861.4 657.5 862.45 654.85 863.1 651.9 863.3 648.55 862.95 645.7 862.15 642.9 860.8 640.45 859.1 638.45 857.05 636.95 854.8 636 852.35 635.7 849.75 636.05 847.4 636.95 845.25 638.4 843.4 640.3 841.85 642.85 840.55 645.55 839.7 648.65 839.2 651.9 839.15 M1122.9 765.7 L1123 765.75 1127.25 767.65 1128.55 768.55 1166.95 802.25 1170.85 805.85 1174.05 809.4 1176.45 812.95 1178.1 816.5 1178.95 820.15 1178.95 824.2 1178.15 828.2 1176.6 832.35 1175.7 834.1 1173.25 837.6 1170.25 840.65 1168.7 841.8 1167 842.8 1158.4 845.85 1155.35 847.3 1152.55 849.05 1150.1 851.15 1148 853.65 1146.35 856.6 1145.1 860.1 1144.7 860.85 1143.75 861.75 1141.9 862.5 1141 862.45 1140.45 861.75 1139.6 858.4 1138.9 854.1 1139.1 850.85 1139.95 847.75 1142.55 839.7 1144.15 831.8 1144.65 824.05 1144.1 816.45 1142.45 809.05 1139.7 801.75 1135.9 794.6 1129.5 785.35 1128.15 782.95 1126.9 780.25 1121.9 767.25 1121.95 766.3 1122.5 765.8 1122.9 765.7 M840.9 795.3 L841 795.25 840.75 795.4 840.9 796.55 841.15 797.1 845.45 802.85 849.2 808.95 852.25 815.05 854.85 821.55 856.9 828.2 858.5 834.95 859.7 841.9 860.8 851.25 861.35 853.6 862.2 855.7 863.55 857.4 865.65 858.7 868.2 859.65 873.2 861.15 873.55 860.9 874.3 856.4 874.55 853.9 874.25 851.6 873.35 849 868.7 838.6 867.7 836 866.95 833.25 865.65 824.45 863.65 818.9 860.9 814.15 857.4 809.8 853.5 805.9 849.2 802.15 840.9 795.3 M782 820.15 L782 820.1 783.85 820.2 787.3 821 790.45 822.4 793.45 824.4 795.95 826.9 797.95 829.75 799.35 832.95 799.85 834.65 800.15 836.35 800.3 838.15 800.2 839.9 799.55 843.45 798.25 846.75 796.45 849.7 794.1 852.3 791.55 854.2 788.45 855.6 785.35 856.25 783.65 856.3 781.85 856.1 778.6 855.15 775.4 853.5 772.4 851.2 769.75 848.4 767.6 845.25 766.05 842 765.15 838.4 765.05 836.65 765.35 833.5 766.25 830.4 767.9 827.35 769.85 825.05 772.55 822.85 775.45 821.35 778.65 820.45 782 820.15 M959.25 798.95 L959.2 798.9 955.15 801.25 954.4 802.05 942.7 822.25 931.4 842.7 931.15 843.6 931.15 844.55 931.7 847.05 932.6 849.2 933.3 850.05 936 850.15 938.8 849.85 941.2 849.1 942.2 848.5 942.85 847.8 946.3 842.55 949.45 837 952.25 831.2 954.6 825.25 956.55 819 958.05 812.5 959.05 805.7 959.55 799.15 959.25 798.95 M702.7 422.15 L702.65 422.05 702.25 422.05 696.65 427.2 693.8 430.05 691.3 433.1 675.9 455.95 660.8 478.95 655.6 488.1 652.05 497.1 650.1 506.1 649.85 515 651.2 523.85 654.25 532.5 658.95 541.05 667.25 551.9 668.85 554.35 670 556.8 670.7 559.3 670.95 562.1 670.65 564.75 669.8 567.6 666.2 575.5 664.8 580.5 664.25 585.4 664.45 590.25 665.35 595.05 666.9 599.85 669.05 604.6 674.9 614.75 677.6 620.25 682.75 631.5 685.7 638.55 691.3 647 694.4 653.05 696.25 659.1 696.75 664.6 696.05 670.25 693.95 676.1 690.65 681.8 686.05 687.7 680.65 693.05 675.2 697.05 669.45 699.85 663.3 701.35 657.25 701.45 651.15 700.25 645.15 697.75 639.45 694.15 639.15 694.3 639.85 700.2 640.5 703.05 641.3 705.6 642.25 707.75 643.4 709.65 644.7 711.15 646.15 712.35 647.85 713.3 649.7 713.9 651.7 714.2 653.85 714.2 656.2 713.9 658.7 713.3 661.45 712.35 669.3 709 671.75 708.2 674.25 707.75 676.65 707.65 679.4 708 682.05 708.85 685.75 710.7 687.1 710.95 688.5 710.95 691.6 710.55 696.2 709.3 698.85 708.1 704.2 704.8 706.8 703.75 709.65 702.9 712.15 701.95 714.45 700.8 716.6 699.5 718.5 698.05 720.15 696.45 721.6 694.8 722.85 692.95 723.9 691 724.75 688.95 725.45 686.8 725.95 684.55 726.25 682.25 726.35 677.45 724.35 660.05 722.1 645.25 718.85 630.65 708.8 601.1 704.95 585.35 701.75 569.55 698.35 553.75 695.3 542.6 691.5 531.55 686.95 520.8 679.95 507.35 678.7 504.35 677.9 501.45 677.5 498.65 677.55 495.6 678.05 492.7 678.9 489.7 686.5 470.85 704.3 423.7 704.2 423.3 702.7 422.15"/>
  </g>
</svg>