<?xml version="1.0" encoding="iso-8859-1"?>
<!DOCTYPE svg PUBLIC "-//W3C//DTD SVG 1.1//EN" "http://www.w3.org/Graphics/SVG/1.1/DTD/svg11.dtd">
<svg version="1.1" id="Capa_1" xmlns="http://www.w3.org/2000/svg" xmlns:xlink="http://www.w3.org/1999/xlink" x="0px" y="0px"
	 width="31.484px" height="31.484px" viewBox="0 0 31.484 31.484" style="enable-background:new 0 0 31.484 31.484;"
	 xml:space="preserve">
<g>
	<g>
		<polygon fill="#0a8bd6" points="31.484,29.196 28.368,27.244 28.368,28.563 2.583,28.563 2.583,3.45 3.905,3.45 1.952,0.335 0,3.45 1.321,3.45 
			1.321,29.827 28.368,29.827 28.368,31.149 		"/>
		<polygon fill="#0a8bd6" points="3.825,23.142 4.365,23.469 6.163,20.505 8.395,20.505 8.395,20.221 10.722,22.405 10.722,24.489 13.562,24.489 
			13.562,21.647 12.926,21.647 15.001,14.113 15.12,14.113 17.018,19.676 16.402,19.676 16.402,22.517 19.242,22.517 19.242,20.41 
			21.254,18.938 21.254,19.083 23.303,19.083 25.035,22.2 24.764,22.2 24.764,25.04 27.604,25.04 27.604,22.2 26.643,22.2 
			27.702,11.549 28.945,11.549 28.945,8.709 26.105,8.709 26.105,11.549 27.066,11.549 26.009,22.2 25.757,22.2 24.025,19.083 
			24.096,19.083 24.096,16.243 21.254,16.243 21.254,18.155 19.175,19.676 17.684,19.676 15.786,14.113 16.402,14.113 
			16.402,11.273 13.562,11.273 13.562,14.113 14.346,14.113 12.271,21.647 10.838,21.647 8.395,19.354 8.395,17.664 5.555,17.664 
			5.555,20.29 		"/>
	</g>
</g>
</svg>
