<?xml version="1.0" encoding="UTF-8"?>
<!DOCTYPE svg PUBLIC "-//W3C//DTD SVG 1.1//EN" "http://www.w3.org/Graphics/SVG/1.1/DTD/svg11.dtd">
<svg xmlns="http://www.w3.org/2000/svg" xml:space="preserve" width="173.821mm" height="200.151mm" version="1.1" style="shape-rendering:geometricPrecision; text-rendering:geometricPrecision; image-rendering:optimizeQuality; fill-rule:evenodd; clip-rule:evenodd"
viewBox="0 0 17382 20015"
 xmlns:xlink="http://www.w3.org/1999/xlink">
 <g id="Layer_1">
   <path fill="#FF6F00" d="M1008 5495c46,-11 289,-161 352,-198l171 -100c21,-13 38,-21 59,-34 40,-25 78,-43 119,-68l1464 -846c22,-13 38,-21 60,-34 40,-25 78,-43 118,-68 79,-48 156,-88 236,-136l1407 -812c193,-118 395,-224 590,-341l1058 -611c270,-164 551,-310 821,-474 23,-14 35,-22 58,-34l763 -440c23,-14 36,-22 59,-35 57,-31 126,-62 174,-104l349 201c310,189 630,355 940,542 233,141 470,265 703,407 194,118 396,224 590,341 39,23 79,44 119,67 18,11 38,23 58,35 21,13 38,21 59,34l940 542c271,165 550,309 821,474 40,24 76,46 118,69l940 542c78,47 154,87 230,133 78,46 157,89 236,137 41,24 78,43 119,67l117 69c84,46 154,91 237,136l881 508c25,13 33,24 62,31l0 8687c-51,11 -130,66 -176,94 -21,13 -37,23 -59,35l-1997 1152c-180,97 -352,211 -531,308 -26,13 -35,20 -59,33l-704 406c-23,14 -35,22 -58,35l-291 166c-23,13 -36,21 -58,35 -24,14 -37,20 -60,34 -81,48 -154,88 -236,137 -42,25 -76,42 -118,67l-1058 611c-315,175 -623,366 -939,542 -277,153 -545,320 -822,474 -117,65 -241,131 -353,206 -22,-32 -74,-48 -109,-68 -289,-167 -661,-374 -934,-540l-1057 -611c-40,-23 -79,-46 -118,-68 -21,-12 -40,-22 -60,-34 -20,-12 -37,-23 -58,-34l-585 -338c-40,-23 -80,-46 -118,-68 -80,-46 -158,-89 -237,-136l-354 -205c-21,-13 -38,-21 -59,-34 -271,-165 -551,-309 -822,-474 -213,-130 -430,-243 -643,-372l-236 -137c-43,-24 -76,-44 -119,-68l-1642 -948c-59,-33 -307,-188 -358,-200l0 -8687zm-1008 -576l0 9838c50,27 282,173 339,187l0 152 265 150c269,149 530,313 799,462l1326 765c289,161 650,388 929,537 23,12 39,22 64,37 26,16 45,25 69,40l671 388c46,26 89,50 135,77l129 74c45,27 89,54 134,78l198 115c286,170 580,328 865,498 92,55 175,103 269,155l863 499c243,145 494,277 736,424 23,14 42,24 64,38l736 424c48,26 86,51 133,78l132 80c179,-95 358,-201 532,-306l532 -306c24,-13 41,-24 64,-38l5132 -2962c26,-14 41,-24 64,-37l1728 -999c24,-13 45,-26 71,-39 136,-74 266,-159 403,-232l0 -9838c-59,-31 -110,-60 -168,-95 -51,-31 -113,-78 -171,-91l0 -153 -328 -188c-198,-120 -403,-227 -601,-347l-666 -384c-46,-28 -83,-47 -129,-74 -48,-28 -87,-49 -135,-77l-332 -193c-23,-14 -40,-23 -64,-37l-532 -307c-195,-119 -400,-225 -596,-344 -287,-174 -584,-337 -875,-505l-397 -229c-22,-14 -40,-23 -64,-38 -484,-288 -982,-556 -1466,-845l-204 -118c-25,-13 -39,-22 -65,-37 -23,-12 -41,-24 -63,-38l-800 -461c-47,-28 -89,-49 -135,-77 -88,-54 -174,-99 -262,-153l-135 -77c-46,-27 -88,-51 -134,-77l-534 -313c-202,107 -400,226 -596,344l-930 535c-201,122 -406,228 -606,350 -217,132 -444,249 -660,381 -46,28 -86,52 -135,78l-1068 617c-45,27 -86,51 -134,77 -48,26 -87,51 -133,78 -329,195 -668,374 -994,573l-1138 657c-239,145 -487,273 -725,418 -25,15 -45,28 -69,41 -45,24 -89,50 -134,78l-532 306c-48,25 -87,50 -134,78 -24,14 -43,25 -64,37l-474 271z"/>
   <path fill="#FF6F00" d="M6325 10211c0,-461 91,-832 296,-1228 98,-189 292,-449 438,-595 135,-135 331,-285 495,-385 286,-174 654,-304 988,-341 174,-19 367,-28 544,-9 97,10 164,14 262,34 149,30 314,77 452,133 139,55 265,121 394,198 103,62 252,161 327,257 90,118 162,229 234,358 415,743 401,1756 -46,2491 -21,34 -39,61 -58,94 -58,98 -252,333 -328,409 -135,135 -331,286 -495,386 -158,96 -329,172 -505,231 -312,104 -688,155 -1027,119 -50,-6 -81,-6 -131,-14 -205,-30 -394,-78 -583,-153 -35,-15 -67,-27 -100,-43l-147 -74c-175,-97 -243,-137 -403,-265 -141,-113 -326,-466 -401,-632 -112,-247 -206,-617 -206,-971zm-1347 -390l0 136c1,44 9,52 9,101 -1,165 40,409 81,571l185 577c11,28 20,51 33,77 46,98 90,196 145,287 120,200 244,407 405,578l207 224c78,69 152,142 234,206 232,179 470,342 736,466 27,13 44,18 71,31 379,184 917,302 1340,302 350,0 634,-22 949,-101 112,-28 229,-58 332,-99l237 -93c126,-55 241,-120 359,-184 138,-74 275,-166 394,-266 80,-66 165,-129 238,-203 38,-39 71,-71 110,-110 44,-44 91,-85 128,-134l223 -277c314,-418 529,-951 618,-1464 111,-644 36,-1286 -185,-1885 -19,-51 -46,-105 -66,-155 -67,-167 -167,-346 -267,-495 -16,-25 -27,-41 -44,-66l-184 -247c-11,-14 -14,-15 -24,-27l-233 -258c-23,-22 -36,-27 -60,-51 -20,-19 -34,-36 -54,-55l-175 -147c-383,-306 -837,-532 -1312,-653 -713,-181 -1398,-135 -2090,98l-310 130c-236,118 -460,247 -665,410l-122 99c-80,71 -153,136 -229,211 -38,39 -62,72 -101,110l-76 86c-121,152 -237,308 -337,475l-80 141c-16,27 -25,44 -39,71l-70 150c-200,411 -311,984 -311,1433z"/>
 </g>
</svg>
