<svg height="565pt" viewBox="-17 -20 565.33157 565" width="565pt" xmlns="http://www.w3.org/2000/svg">
	<path fill="#ff7100" d="m285.445312 296.0625c3.417969 0 6.191407-2.773438 6.191407-6.191406 0-3.421875-2.773438-6.191406-6.191407-6.191406-3.417968 0-6.191406 2.773437-6.191406 6.195312.003906 3.414062 2.773438 6.183594 6.191406 6.1875zm0 0"/>
	<path fill="#ff7100" d="m146.871094 316.285156c21.238281 50.507813 67.695312 85.949219 122.027344 93.082032 54.328124 7.140624 108.363281-15.097657 141.933593-58.40625-4.109375.082031-8.277343.121093-12.496093.125-43.6875 0-93.433594-4.15625-144.726563-12.238282-35.960937-5.59375-71.59375-13.125-106.738281-22.5625zm0 0"/>
	<path fill="#ff7100" d="m210.820312 223.230469c5.730469 0 10.371094-4.640625 10.371094-10.367188.003906-5.730469-4.640625-10.371093-10.367187-10.371093-5.730469-.003907-10.371094 4.640624-10.371094 10.367187.003906 5.726563 4.644531 10.363281 10.367187 10.371094zm0 0"/>
	<path fill="#ff7100" d="m4.867188 220.71875c-2.644532 16.808594 39 45.164062 115.828124 69.675781-6.785156-33.695312-3.3125-68.652343 9.980469-100.355469-83.03125.285157-123.445312 15.703126-125.808593 30.679688zm0 0"/>
	<path fill="#ff7100" d="m256.328125 321.589844c65.984375 10.398437 122.476563 13.355468 166.511719 11.503906 34.636718-60.5 24.382812-136.714844-25.015625-185.90625-49.40625-49.191406-125.660157-59.121094-186.015625-24.226562-60.347656 34.894531-89.789063 105.9375-71.804688 173.289062 38.210938 10.84375 77.0625 19.304688 116.324219 25.339844zm111.503906-92.390625c23.617188 0 42.757813 19.144531 42.757813 42.761719 0 23.617187-19.140625 42.765624-42.757813 42.765624-23.617187 0-42.761719-19.144531-42.761719-42.761718.023438-23.609375 19.152344-42.738282 42.761719-42.765625zm-82.386719 37.015625c13.070313 0 23.660157 10.589844 23.660157 23.660156 0 13.066406-10.589844 23.65625-23.660157 23.65625-13.066406 0-23.65625-10.589844-23.65625-23.65625.011719-13.0625 10.597657-23.648438 23.65625-23.660156zm-74.625-81.191406c15.375-.003907 27.835938 12.464843 27.835938 27.835937.007812 15.375-12.460938 27.835937-27.832031 27.835937-15.375 0-27.835938-12.460937-27.835938-27.835937.019531-15.363281 12.464844-27.820313 27.832031-27.835937zm0 0"/>
	<path fill="#ff7100" d="m393.125 271.964844c0 13.96875-11.328125 25.292968-25.292969 25.292968-13.972656 0-25.292969-11.324218-25.292969-25.292968 0-13.972656 11.320313-25.300782 25.292969-25.300782 13.964844 0 25.292969 11.328126 25.292969 25.300782zm0 0"/>
	<path fill="#ff7100" d="m526.617188 302.90625c1.621093-10.320312-15.070313-29.539062-65.953126-51.335938.046876 1.621094.070313 3.242188.070313 4.871094.03125 26.132813-5.945313 51.921875-17.464844 75.382813 51.371094-4.285157 81.28125-15.804688 83.347657-28.917969zm0 0"/>
	<path fill="#ff7100" d="m137.929688 430.445312-36.449219-5.296874c-2.84375-.410157-5.304688-2.195313-6.578125-4.773438l-16.296875-33.035156-16.308594 33.035156c-1.269531 2.578125-3.730469 4.359375-6.574219 4.773438l-36.453125 5.296874 26.375 25.714844c2.0625 2.007813 3.003907 4.902344 2.515625 7.734375l-6.226562 36.308594 32.601562-17.140625c2.542969-1.339844 5.585938-1.339844 8.128906 0l32.605469 17.140625-6.222656-36.3125c-.488281-2.835937.453125-5.726563 2.511719-7.734375zm0 0"/>
	<path fill="#ff7100" d="m488.417969 131.058594-2.4375 14.199218 12.75-6.703124c2.542969-1.339844 5.585937-1.339844 8.128906 0l12.75 6.703124-2.4375-14.199218c-.488281-2.835938.453125-5.730469 2.515625-7.734375l10.3125-10.058594-14.25-2.070313c-2.847656-.414062-5.308594-2.199218-6.582031-4.777343l-6.367188-12.914063-6.375 12.921875c-1.273437 2.578125-3.734375 4.359375-6.582031 4.773438l-14.253906 2.074219 10.316406 10.050781c2.058594 2.007812 3 4.90625 2.511719 7.734375zm0 0"/>
	<path fill="#ff7100" d="m233.902344 37.488281-2.4375 14.203125 12.75-6.707031c2.542968-1.335937 5.582031-1.335937 8.128906 0l12.746094 6.707031-2.433594-14.203125c-.488281-2.835937.453125-5.730469 2.511719-7.734375l10.3125-10.058594-14.25-2.070312c-2.84375-.414062-5.304688-2.199219-6.578125-4.777344l-6.371094-12.9140622-6.371094 12.9179682c-1.273437 2.578126-3.734375 4.363282-6.582031 4.777344l-14.253906 2.070313 10.316406 10.054687c2.058594 2.007813 2.996094 4.902344 2.511719 7.734375zm0 0"/>
	<path fill="#ff7100" d="m42.417969 63.953125c0 11.710937-9.492188 21.207031-21.207031 21.207031-11.71875 0-21.210938-9.496094-21.210938-21.207031 0-11.71875 9.492188-21.210937 21.210938-21.210937 11.714843 0 21.207031 9.492187 21.207031 21.210937zm0 0"/>
	<path fill="#ff7100" d="m521.507812 482.261719c0 23.429687-18.992187 42.421875-42.417968 42.421875-23.425782 0-42.421875-18.992188-42.421875-42.421875 0-23.425781 18.996093-42.417969 42.421875-42.417969 23.425781 0 42.417968 18.992188 42.417968 42.417969zm0 0"/>
</svg>