<?xml version="1.0" encoding="utf-8"?>
<!DOCTYPE svg PUBLIC "-//W3C//DTD SVG 1.1//EN" "http://www.w3.org/Graphics/SVG/1.1/DTD/svg11.dtd">
<svg version="1.1" id="Layer_1" xmlns="http://www.w3.org/2000/svg" xmlns:xlink="http://www.w3.org/1999/xlink" x="0px" y="0px"
	 width="909.352px" height="757.507px" viewBox="0 0 909.352 757.507" enable-background="new 0 0 909.352 757.507"
	 xml:space="preserve">
<g id="Layer_3">
	<path fill="#FF6F00" d="M409,472c-1.75-3.625-14.75,5.25-1.333,37.668c11.221,27.111,228.333,175.666,237.833,167
		c13.844-12.631-48.5-136.334-48.5-136.334c4,2.5,70.24,112.096,71.32,126.949c1.18,16.219-31.153,34.719-48.153,34.885
		C525.25,695,364.782,541.021,346,494.333c-17.5-43.5-1-65.832-8-65.834c-7,0-34,27.25-38.5,71
		c-3.752,36.482-12.875,241.75,6.25,241.75c7,0,21.286-23.65,29.583-35.582c8.651-12.441,14.024-22.006,61.478-101.785
		c-5.13,15.283-60.351,130.957-74.396,147.711c-7.747,9.24-30.791,7.977-51.414-6.094c-21.5-14.666-24-103-24-120
		s5.333-112.832,28-178.166s67-92.417,67-95.583s-38.707-3.255-80.5,29.25C205.25,424.75,22.394,595.392,33,606
		c5.833,5.834,134.917-45.25,141.417-48.25s-120.5,65.918-138.5,63.418S16,599.333,16,594.333c0-25.334,56.333-88.334,69-98
		S280.75,295,411,295c10.583,0-4-25.75-65.25-25.75S13.625,304,13.625,314.125C13.625,324,154.75,361.5,159.5,363S0,342.25,0,320.5
		c0-15,15.416-29.088,26-36c24.5-16,127-42.5,354.5-42.5c64,0,117.843,36.581,120.667,42.583c2.083,4.167,12.75-5.667,0.519-36.744
		c-10.745-27.303-228.333-175.667-237.833-167c-13.844,12.63,48.5,136.334,48.5,136.334c-4-2.5-70.24-112.096-71.32-126.95
		c-1.18-16.218,31.153-34.718,48.153-34.884c94.917,7.167,255.384,161.146,274.167,207.833c17.5,43.5,1,65.833,8,65.834
		s34-27.25,38.5-71c3.752-36.481,12.875-241.75-6.25-241.75c-7,0-21.286,23.65-29.584,35.583
		c-8.65,12.441-14.023,22.006-61.478,101.784c5.129-15.282,60.351-130.957,74.396-147.711c7.747-9.24,30.791-7.976,51.413,6.094
		c21.5,14.667,24,103,24,120s-5.332,112.833-28,178.167c-22.666,65.334-67,92.417-67,95.583s38.707,3.256,80.5-29.25
		c56.25-43.75,239.106-214.393,228.5-225c-5.832-5.834-134.916,45.25-141.416,48.25s120.5-65.917,138.5-63.417
		s19.916,21.833,19.916,26.833c0,25.334-56.332,88.335-69,98.001c-12.666,9.666-195.75,201.333-326,201.333
		c-10.584,0,4,25.75,65.25,25.75s332.125-34.75,332.125-44.875c0-9.875-141.125-47.375-145.875-48.875s159.5,20.75,159.5,42.5
		c0,15-15.414,29.088-26,36c-24.5,16-127,42.5-354.5,42.5C464.852,515.507,411.824,478.001,409,472z"/>
</g>
</svg>
