<?xml version="1.0" encoding="utf-8"?>
<!DOCTYPE svg PUBLIC "-//W3C//DTD SVG 1.1//EN" "http://www.w3.org/Graphics/SVG/1.1/DTD/svg11.dtd">
<svg version="1.1" id="Layer_1" xmlns="http://www.w3.org/2000/svg" xmlns:xlink="http://www.w3.org/1999/xlink" x="0px" y="0px"
	 width="2000px" height="2000px" viewBox="0 0 2000 2000" enable-background="new 0 0 2000 2000" xml:space="preserve">
<g>
	<path stroke="none" fill="#FF4000" d="M617.867,1374.4c4.266,0,7.199,0,9.866,0c84.267,0,168.267,0,252.533,0.267c6.134,0,8.8-1.867,10.4-7.467
		c9.333-32,10.666-63.733,0-96c-1.867-5.6-4-8-10.667-8c-133.066,0.267-266.4,0.267-399.467,0c-5.066,0-10.667-1.6-14.934-4.267
		c-82.934-48.8-168.533-91.733-255.466-132.8c-49.6-23.2-99.467-45.601-149.333-68.533c-1.867-0.801-3.467-1.601-5.066-3.734
		c2.667,0,5.066,0,7.733,0c251.2,0,502.399,0,753.6,0.268c7.467,0,9.867-2.4,12-9.067c9.601-30.933,9.066-61.6-1.333-92.267
		c-1.333-3.733-2.934-5.333-7.2-5.333c-8.267,0.267-16.8,0-25.066,0c-244,0-488,0-732,0c-2.4,0-4.8,0-7.467,0
		c-0.267-0.267-0.267-0.8-0.533-1.066c1.866-0.8,3.733-1.867,5.6-2.667c76.8-36,154.133-70.667,229.867-108.267
		c59.733-29.601,117.333-63.2,176.267-94.934c3.2-1.6,7.2-2.399,10.933-2.399c129.067,0,258.134-0.268,387.2,0
		c6.667,0,9.333-2.134,11.2-8.268c9.867-32,9.867-63.732-0.533-95.732c-1.6-5.334-4.267-7.2-9.867-7.2
		C786.4,627.2,706.934,627.2,627.2,627.2c-2.667,0-5.334,0-8.267,0c0-1.066,0-1.867,0.267-2.134
		c40-47.466,72-100.533,102.399-154.133C783.467,361.6,837.066,248,888.533,133.6c14.133-31.733,28-63.467,41.867-95.467
		c5.6-12.8,14.933-20.267,29.066-20.267c14.133,0,23.467,7.467,29.066,20.267c45.066,104.8,92.267,208.534,143.733,310.4
		c39.2,77.601,80,154.134,129.066,225.867c9.867,14.399,20.267,28,31.2,42.933c-10.133,1.067-20,1.867-29.867,2.934
		C1212,626.134,1163.733,640.533,1120,667.2c-66.4,40.267-109.066,99.2-133.601,172c-20.8,61.6-26.399,125.333-23.466,190.133
		c2.133,49.334,10.133,97.601,27.466,144.268c27.2,72.8,72.8,130.133,141.601,167.732c41.066,22.4,85.333,34.934,131.733,40
		c9.066,1.067,17.866,1.601,26.933,2.667c0.268,0,0.534,0.533,1.334,1.067c-3.467,4.533-7.2,9.066-10.667,13.866
		c-42.934,57.6-78.399,120-112.267,183.2c-14.4,26.934-28,54.133-42.133,81.066c-1.334,2.667-4,5.6-6.667,6.934
		c-86.4,43.733-176,78.4-270.134,102.133c-5.333,1.334-5.866-1.333-7.732-4.8c-36-71.467-71.2-143.2-108.534-214.133
		c-30.933-58.934-65.6-115.733-106.933-168.267C624,1381.866,621.333,1378.667,617.867,1374.4z"/>
	<path stroke="none" fill="#FF4000" d="M1818.133,925.6c25.601-61.333,35.467-207.466-24.266-319.733c17.866-12.267,32.8-28,45.066-48
		c6.666,11.467,12.8,21.601,18.4,32.268c26.133,50.399,40.533,104,45.066,160.267c5.333,67.2-1.6,133.333-21.066,197.866
		c-1.334,4.533,0,5.867,3.732,7.467c12.268,5.066,24.534,10.4,36.534,15.733c12.8,5.6,20,14.934,20,29.333
		c-0.267,14.134-7.467,23.2-20,28.533C1814.4,1075.467,1708.268,1124,1604,1176.8c-24,12.267-48,25.066-72,37.601
		c-2.133,1.066-4.266,2.133-8,4c0-3.467,0-6.134,0-8.534c0-79.466,0-158.933,0-238.399c0-16.267-6.133-22.4-22.666-22.4
		c-81.6,0-162.934,0-244.533,0c-10.134,0-10.667,0.267-13.601,10.134c-8.8,29.066-8.8,58.133,0,87.2
		c2.134,6.933,5.601,9.6,13.066,9.6c43.733-0.267,87.467-0.267,131.467,0c10.4,0,11.733,1.333,11.733,11.733
		c0,57.066,0,114.133,0,171.2c0,17.866-10.666,29.066-28.533,30.133c-39.2,2.667-78.4,2.667-117.066-7.466
		c-73.066-18.934-117.334-67.467-138.667-138.134c-9.866-32.8-14.133-66.667-15.2-100.8c-1.333-44,0.533-88,10.934-130.934
		c8.8-36.8,23.467-70.667,49.867-98.4c23.466-24.8,52.533-40.267,84.8-49.333c46.666-13.066,94.133-19.467,142.399-13.866
		c34.134,3.733,66.4,13.866,96.533,30.666c106.667,60,217.067,113.067,328.534,163.467
		C1815.2,924.533,1816.533,925.066,1818.133,925.6z"/>
	<path stroke="none" fill="#FF4000" d="M881.066,1853.333c-22.133,4.801-43.199,9.867-64.8,14.134c-58.399,12-117.333,19.2-177.066,20.8
		c-75.467,2.133-149.867-5.066-222.667-26.4c-70.666-20.8-134.667-53.6-189.066-104.267
		c-59.733-55.733-97.867-123.733-115.467-203.2c-18.667-84-12.533-167.199,7.2-249.866c12.533-52.533,30.933-102.934,53.6-152
		c0.8-1.866,1.867-3.467,2.934-5.866c4.8,2.133,9.066,4.267,13.867,6.666c-4.267,10.4-8.533,20.267-12.267,30.4
		c-22.4,56.8-38.667,115.467-45.6,176.267c-9.333,82.933-2.133,163.467,33.333,240c36.267,78.133,94.667,135.2,170.4,175.467
		c56.267,29.866,116.267,46.933,179.2,55.466c108.267,14.934,215.2,4.801,321.066-19.466
		c158.399-36.534,304.533-102.667,440.8-190.667c94.134-60.533,180.533-130.667,258.934-210.4
		c75.2-76.267,140.8-159.467,194.133-252.533c1.067-2.133,2.934-4.267,4.801-5.333c28.266-13.333,56.8-26.4,86.933-40.533
		c-3.466,7.466-6.133,13.066-9.066,18.666C1756.8,1237.6,1685.6,1333.066,1602.4,1420
		c-119.201,124.8-255.467,227.733-408.001,308.533c-40,21.066-81.6,39.467-122.399,58.667c-5.066,2.399-8.267,5.066-10.667,10.399
		c-24.533,55.733-49.6,111.2-74.399,166.667c-7.2,16-22.4,23.2-38.134,18.133c-9.333-3.199-15.2-9.6-19.2-18.666
		c-14.934-34.4-30.399-68.801-45.6-103.2C883.2,1858.134,882.133,1856,881.066,1853.333z"/>
	<path stroke="none" fill="#FF4000" d="M1711.2,369.066c62.933,0,112.8,50.4,112.8,114.134c0,61.6-50.666,112-112.533,112.267
		c-62.667,0.267-113.334-50.934-113.334-114.667C1598.133,419.467,1649.066,369.066,1711.2,369.066z"/>
	<path stroke="none" fill="#FF4000" d="M1598.4,383.733c-8,12.267-15.467,24-22.934,35.467c-17.867-5.333-36-11.2-54.133-16
		c-49.334-13.067-99.467-18.934-150.4-20.533c-57.066-1.601-113.6,2.933-169.867,12c-3.732,0.533-5.866,0.267-7.467-3.467
		c-2.133-5.067-5.066-9.6-8.266-15.733C1324.267,348.533,1461.867,342.934,1598.4,383.733z"/>
</g>
</svg>
