<?xml version="1.0" encoding="iso-8859-1"?>
<svg version="1.1" id="Capa_1" xmlns="http://www.w3.org/2000/svg" xmlns:xlink="http://www.w3.org/1999/xlink" x="0px" y="0px"
	 viewBox="0 0 84.112 84.112" style="enable-background:new 0 0 84.112 84.112;" xml:space="preserve">
<path fill="#ffb000" d="M68.449,48.757H41.99l-3.873,3.873h7.409v23.581H27.479c-5.495,0-10.11-3.783-11.412-8.878
	c-0.14,0.003-0.28,0.01-0.421,0.01c-1.212,0-2.423-0.118-3.617-0.351c1.231,7.417,7.688,13.092,15.449,13.092h40.97
	c8.637,0,15.664-7.026,15.664-15.663C84.112,55.784,77.086,48.757,68.449,48.757z M64.88,76.014H51.911
	c-0.917,0-1.66-0.743-1.66-1.66c0-0.917,0.743-1.66,1.66-1.66H64.88c0.917,0,1.66,0.743,1.66,1.66
	C66.54,75.271,65.797,76.014,64.88,76.014z M71.497,76.014h-0.644c-0.917,0-1.66-0.743-1.66-1.66c0-0.917,0.743-1.66,1.66-1.66
	h0.644c0.917,0,1.66,0.743,1.66,1.66C73.157,75.271,72.414,76.014,71.497,76.014z M55.692,8.6
	c-2.947-2.948-6.881-4.571-11.076-4.571c-4.195,0-8.128,1.623-11.076,4.571l-28.97,28.97C1.623,40.517,0,44.45,0,48.645
	c0,4.195,1.623,8.128,4.571,11.076c3.054,3.054,7.064,4.58,11.076,4.58c4.011,0,8.023-1.527,11.076-4.58l28.97-28.97
	c2.948-2.948,4.571-6.881,4.571-11.076C60.264,15.48,58.64,11.547,55.692,8.6z M23.984,56.982c-4.598,4.597-12.078,4.597-16.674,0
	c-2.216-2.216-3.437-5.177-3.437-8.337c0-3.16,1.221-6.121,3.437-8.337l12.761-12.761l16.674,16.674L23.984,56.982z M50.291,30.396
	l-9.17,9.17c-0.324,0.324-0.749,0.486-1.174,0.486c-0.425,0-0.85-0.162-1.174-0.486c-0.648-0.648-0.648-1.699,0-2.347l9.171-9.17
	c0.648-0.648,1.699-0.648,2.347,0C50.939,28.697,50.939,29.748,50.291,30.396z M54.97,25.717l-0.455,0.455
	c-0.324,0.324-0.749,0.486-1.174,0.486c-0.425,0-0.849-0.162-1.174-0.486c-0.648-0.648-0.648-1.699,0-2.347l0.455-0.455
	c0.648-0.648,1.699-0.648,2.347,0C55.618,24.018,55.618,25.069,54.97,25.717z"/>
</svg>
