<svg width="2405.1px" height="1818.1px" viewBox="0 0 2405.1 1818.1" xmlns="http://www.w3.org/2000/svg" xmlns:xlink="http://www.w3.org/1999/xlink">
  <defs/>
  <g>
    <path stroke="none" fill="#FF0000" d="M2112.3 906.3 L2111.95 906.35 2112.9 906.7 2113.4 907.4 2113.45 907.85 2113.45 921.15 2112.8 945.25 2111.55 969.25 2109.7 993.1 2107.2 1016.8 2104.1 1040.35 2100.4 1063.8 2096.1 1087.1 2091.15 1110.25 2085.6 1133.25 2079.45 1156.1 2072.65 1178.85 2065.25 1201.45 2057.2 1223.9 2048.55 1246.2 2039.25 1268.35 2029.35 1290.2 2028.25 1293.2 2027.85 1295.8 2028.05 1297.95 2028.75 1299.8 2029.8 1301.45 2042.05 1314.9 2049.2 1323.7 2055.9 1332.75 2062.1 1342.05 2067.8 1351.55 2073 1361.25 2077.7 1371.15 2081.9 1381.2 2085.6 1391.4 2088.8 1401.7 2091.5 1412.1 2093.7 1422.6 2095.4 1433.2 2096.65 1443.85 2097.4 1454.5 2097.65 1465.2 2097.4 1475.9 2096.65 1486.55 2095.4 1497.2 2093.65 1507.8 2091.4 1518.3 2088.65 1528.7 2085.4 1539 2081.65 1549.2 2077.45 1559.25 2072.75 1569.1 2067.55 1578.8 2061.85 1588.3 2055.65 1597.55 2048.95 1606.55 2041.75 1615.3 2034.05 1623.8 2026.7 1631.2 2019.1 1638.25 2011.25 1644.9 2003.15 1651.1 1994.85 1656.9 1986.35 1662.3 1977.7 1667.3 1968.85 1671.9 1959.85 1676.1 1950.7 1679.9 1941.4 1683.25 1932 1686.2 1922.5 1688.75 1912.9 1690.85 1903.2 1692.55 1893.45 1693.85 1883.65 1694.7 1873.8 1695.15 1863.9 1695.15 1854 1694.75 1844.1 1693.9 1834.2 1692.65 1824.35 1690.95 1814.5 1688.8 1804.7 1686.25 1795 1683.25 1785.35 1679.8 1775.8 1675.9 1766.35 1671.6 1757 1666.85 1747.8 1661.65 1736.2 1654.55 1733.9 1653.55 1731.75 1653 1729.7 1652.9 1727.65 1653.2 1725.55 1653.95 1723.35 1655.1 1696.95 1672.7 1684.8 1680.45 1672.6 1687.95 1660.3 1695.25 1647.95 1702.35 1635.5 1709.25 1623 1715.95 1610.4 1722.45 1597.75 1728.75 1585 1734.8 1572.15 1740.65 1559.25 1746.3 1546.25 1751.75 1533.2 1757 1520.05 1762 1506.85 1766.8 1493.55 1771.4 1480.15 1775.8 1466.7 1779.95 1453.15 1783.9 1439.55 1787.65 1425.85 1791.15 1412.1 1794.45 1398.25 1797.55 1384.3 1800.4 1370.3 1803.05 1356.2 1805.45 1342.05 1807.65 1327.8 1809.65 1313.45 1811.4 1299.05 1812.95 1277.1 1814.9 1255.3 1816.35 1233.6 1817.35 1212.05 1817.85 1190.6 1817.9 1169.3 1817.5 1148.1 1816.6 1127.05 1815.25 1106.15 1813.4 1085.35 1811.1 1064.7 1808.3 1044.15 1805.05 1023.75 1801.3 1003.5 1797.05 983.35 1792.35 963.35 1787.15 943.45 1781.5 923.7 1775.35 904.1 1768.7 884.65 1761.6 865.3 1754 846.1 1745.95 827.05 1737.4 808.15 1728.35 789.35 1718.8 770.7 1708.8 752.2 1698.3 733.85 1687.3 715.65 1675.85 697.6 1663.9 679.65 1651.45 661.85 1638.5 644.25 1625.1 627.1 1611.45 610.35 1597.5 594.05 1583.3 578.15 1568.8 562.7 1554.05 547.65 1539 533.05 1523.7 518.85 1508.1 505.1 1492.25 491.75 1476.1 478.85 1459.7 466.35 1443 454.3 1426.05 442.65 1408.85 431.45 1391.35 420.65 1373.6 410.3 1355.6 400.35 1337.3 390.8 1318.75 381.7 1299.95 373 1280.85 364.75 1261.5 356.9 1241.9 349.5 1222 342.5 1201.85 335.95 1181.45 329.8 1160.8 324.1 1139.9 318.8 1118.7 313.9 1097.25 309.45 1075.55 305.9 1056.1 302.85 1036.6 300.25 1017.05 298.15 997.45 296.5 977.8 295.3 958.1 294.55 938.35 294.25 918.6 294.25 909.75 294.45 908.95 295.05 908.4 296.1 907.85 296.8 907.65 297.4 907.8 297.9 908.15 347.7 961.5 364.25 979.65 365.35 981.2 366.05 982.7 367.05 986.2 368.15 993.6 371.6 1013 375.45 1032.15 379.65 1051.1 384.2 1069.85 389.15 1088.4 394.45 1106.75 400.15 1124.85 406.2 1142.75 412.6 1160.45 419.4 1177.95 426.55 1195.25 434.1 1212.3 442 1229.15 450.25 1245.8 458.9 1262.25 467.9 1278.45 477.3 1294.45 487.05 1310.25 497.15 1325.85 507.65 1341.2 518.5 1356.35 529.7 1371.3 541.3 1386.05 553.25 1400.55 565.6 1414.85 578.3 1428.95 591.35 1442.85 604.8 1456.5 618.6 1469.95 632.8 1483.2 647.35 1496.2 662.25 1509 673.95 1518.65 685.75 1528.05 697.65 1537.25 709.65 1546.2 721.8 1554.9 734.05 1563.35 746.4 1571.55 758.85 1579.5 771.45 1587.2 784.15 1594.7 796.95 1601.95 809.85 1608.95 822.85 1615.7 836 1622.2 849.25 1628.45 862.6 1634.45 876.05 1640.2 889.6 1645.75 903.25 1651.05 917 1656.1 930.9 1660.9 944.9 1665.45 959 1669.75 973.2 1673.8 987.5 1677.6 1001.9 1681.15 1016.4 1684.5 1031 1687.6 1045.7 1690.45 1060.5 1693.05 1075.4 1695.4 1090.45 1697.5 1109.45 1699.8 1128.4 1701.7 1147.25 1703.2 1166 1704.3 1184.7 1705 1203.3 1705.3 1221.8 1705.2 1240.25 1704.7 1258.6 1703.8 1276.85 1702.5 1295 1700.8 1313.1 1698.7 1331.1 1696.2 1349 1693.3 1366.85 1690 1384.6 1686.35 1402.25 1682.3 1419.8 1677.85 1437.3 1673 1454.7 1667.75 1472 1662.1 1489.25 1656.05 1506.4 1649.6 1523.45 1642.8 1540.4 1635.6 1557.3 1628 1574.1 1620 1590.8 1611.6 1607.45 1602.8 1624 1593.65 1640.45 1584.1 1656.85 1574.15 1660.85 1571.25 1661 1570.7 1657.5 1562.35 1654.05 1553.55 1650.9 1544.8 1648.05 1536.1 1645.5 1527.4 1643.25 1518.75 1641.3 1510.15 1639.65 1501.55 1638.3 1493 1637.25 1484.5 1636.5 1476.05 1636.05 1467.65 1635.95 1459.3 1636.15 1450.95 1636.65 1442.65 1637.5 1434.4 1638.65 1426.2 1640.15 1418.05 1641.95 1410 1644.1 1402 1646.6 1394.05 1649.45 1386.15 1652.65 1378.3 1656.15 1370.5 1660 1362.75 1664.25 1355.1 1668.85 1347.5 1673.8 1339.95 1679.1 1332.5 1684.75 1325.1 1690.8 1317.75 1697.2 1310.5 1703.85 1303.45 1710.6 1296.75 1717.45 1290.4 1724.4 1284.4 1731.45 1278.75 1738.6 1273.45 1745.85 1268.5 1753.2 1263.9 1760.65 1259.65 1768.2 1255.75 1775.85 1252.15 1783.6 1248.9 1791.4 1246 1799.3 1243.4 1807.3 1241.15 1815.4 1239.2 1823.55 1237.6 1831.8 1236.3 1840.15 1235.35 1848.6 1234.7 1857.1 1234.35 1865.7 1234.35 1874.4 1234.65 1883.15 1235.25 1892 1236.15 1900.9 1237.35 1909.9 1238.85 1918.95 1240.65 1928.1 1242.75 1937.3 1245.15 1946.6 1247.85 1955.4 1250.65 1955.9 1250.4 1983.3 1188.95 1992.1 1167.95 2000.5 1146.2 2004.4 1135.25 2011.7 1113.25 2018.35 1091.05 2021.45 1079.9 2027.15 1057.45 2032.25 1034.8 2036.8 1012 2041.35 986.05 2042.1 983.1 2043.2 980.3 2043.95 979 2044.9 977.75 2078.05 942.05 2111.2 906.75 2111.7 906.4 2112.3 906.3 M1203.8 528.05 L1205.85 528.3 1208.15 529.1 1210.55 530.45 1213.2 532.35 1587.45 828.5 1594.6 834.85 1595.05 835.7 1594.9 836.7 1205 1537.8 1204.45 1538.35 1203.7 1538.55 1202.95 1538.35 1202.4 1537.8 812.3 836.05 812.5 835.05 812.85 834.65 822.15 826.9 1008.35 679.65 1194.45 532.2 1197.05 530.3 1199.5 529 1201.8 528.25 1203.8 528.05 M1204.45 613.85 L1204.25 613.8 1202.65 615.8 1201.1 618.4 1200.05 620.95 1199.3 623.45 1174.6 723.1 1162.4 772.9 1150.35 822.85 1149.3 826.45 1148.05 829.55 1146.5 832.2 1144.65 834.45 1142.45 836.3 1139.85 837.8 1136.85 839.05 1133.35 840.05 1033.15 864.5 933.05 889.25 921.85 892.95 921.85 893.25 931.3 896.45 1033.9 922 1136.6 947.2 1139.3 948 1141.7 949 1143.75 950.25 1145.45 951.75 1146.85 953.5 1148 955.55 1149 958.05 1149.75 960.7 1162.1 1011.7 1201.9 1172.3 1202.35 1172.65 1204.3 1172.6 1204.75 1172.3 1208.15 1161.7 1232.95 1061.45 1257.5 961.15 1258.3 958.3 1259.3 955.8 1260.55 953.65 1262.05 951.8 1263.85 950.25 1266 948.95 1268.5 947.9 1271.45 947.05 1373.4 922.05 1475.25 896.7 1485.85 893.05 1485.85 892.8 1473.3 889.15 1371.9 863.95 1270.4 839.05 1267.75 838.3 1265.45 837.35 1263.5 836.2 1261.85 834.8 1260.5 833.2 1259.4 831.3 1258.5 829.1 1257.75 826.6 1208.5 626.25 1204.9 613.95 1204.45 613.85 M2013.05 869.35 L2012.95 869.35 2013.7 869.55 2014.25 870.1 2014.45 871 2014.1 871.85 2002.6 884.8 1916.85 979.2 1888 1010.5 1886.05 1012.45 1883.7 1014.45 1881.25 1016.25 1878.7 1017.85 1876 1019.3 1873.3 1020.5 1870.65 1021.45 1867.75 1022.25 1699.7 1059.65 1531.4 1096.75 1525.4 1097.55 1524.65 1097.35 1524.1 1096.8 1523.9 1096.05 1524.1 1095.3 1559.8 1031 1596.05 966.4 1596.9 965.2 1598.1 964 1599.55 962.95 1601.3 961.95 1604.75 960.5 1608.15 959.5 1782.75 920.5 2013.05 869.35 M395.15 869.55 L395.15 869.5 506.15 894 799.5 959.55 802.75 960.5 806.2 961.95 807.95 962.95 809.4 964 810.4 965 811.45 966.45 847.65 1031 883.05 1094.8 883.25 1095.55 883.05 1096.3 882.5 1096.85 881.75 1097.05 876.85 1096.7 874.75 1096.35 534.7 1021.4 531.55 1020.45 528.65 1019.15 525.8 1017.4 523.25 1015.15 459.85 945.55 396.65 875.8 394.7 873.1 393.7 871.4 393.7 870.55 393.9 870.15 394.45 869.7 395.15 869.55 M2197.25 650.65 L2197.25 650.45 2198 650.65 2198.55 651.2 2198.75 651.65 2198.7 652.55 2194.95 657.3 2190.85 662.2 2131.3 727.9 2071.4 793.45 2069.65 795.15 2067.7 796.75 2065.6 798.25 2061.05 800.8 2056.45 802.6 2053.95 803.25 1852.15 847 1650.2 890.5 1639.9 892.15 1638.95 891.95 1638.4 891.4 1638.2 890.65 1638.4 889.9 1661.9 847.25 1671.65 830.3 1672.65 827.75 1673.05 825.6 1672.95 823.5 1672.25 821.4 1671 819.5 1669.2 817.6 1654.95 806.75 1620.3 779.2 1619.95 778.75 1619.75 778.2 1619.8 777.65 1620.4 776.8 1620.9 776.6 2197.25 650.65 M210.1 650.65 L210.15 650.55 786.45 776.45 786.95 776.65 787.55 777.5 787.6 778.05 787.4 778.65 787 779.1 732.35 822.65 732.25 823.2 769 889.8 769.2 890.55 769 891.3 768.45 891.85 767.45 892.05 748.2 888.7 550.55 846.1 352.8 803.25 348.8 802.1 344.95 800.55 341.15 798.35 339.5 797.1 338.05 795.7 274.55 726.2 211.3 656.5 209.65 654.25 208.65 652.55 208.65 651.7 208.85 651.3 209.4 650.8 210.1 650.65 M2404.85 426.25 L2404.8 426.25 2405.5 426.45 2406.05 426.95 2406.25 427.35 2406.2 428.25 2401.15 434.8 2340.35 504.35 2309.85 539.05 2279.15 573.7 2277.25 575.65 2275.15 577.5 2272.85 579.2 2270.35 580.75 2267.85 582.1 2265.2 583.25 2262.55 584.2 2259.9 584.9 1916.1 657.55 1572.15 730.1 1569.1 730.6 1566.35 730.8 1563.8 730.65 1560.95 730.15 1558.45 729.35 1556.15 728.25 1553.55 726.65 1501.85 685.5 1452.3 646.4 1443.9 639.1 1443.45 638.4 1443.45 637.6 1443.85 636.9 1444.55 636.5 2404.85 426.25 M2.65 426.3 L2.55 426.25 963.25 636.6 964.15 637.2 964.45 638.25 964.25 638.85 963.85 639.3 907.2 683.4 895.95 692.45 884.95 701.65 870.55 714.2 867 716.9 863.45 719.3 859.9 721.4 856.35 723.2 852.9 724.65 849.15 725.9 845.45 726.85 841.65 727.55 837.8 728 833.9 728.2 829.9 728.15 825.75 727.85 821.5 727.35 812.6 725.75 646.15 690.15 146.4 584.65 141.9 583.35 137.45 581.4 133.35 578.85 131.55 577.35 129.95 575.75 66.45 503.75 3.25 431.5 1.15 428.15 1.2 427.3 1.4 426.9 1.95 426.45 2.65 426.3 M867.25 286.85 L867.15 286.75 868.1 287.1 868.6 287.85 885.65 347.6 886.1 347.95 954.75 347.95 955.2 348 955.9 348.5 956.4 349.55 956.4 350.6 955.75 351.4 898 384.7 897.8 385.25 922.45 453.35 922.55 454.05 922.3 454.7 921 455.55 920.35 455.7 919.35 455.3 866.55 407.95 866 407.95 812.05 456.1 811.6 456.4 810.6 456.45 809.65 455.8 809.35 454.9 809.45 454.4 820.2 424.5 832.6 391.35 833.05 389 833.05 387.2 832.65 385.5 831.75 383.85 830.45 382.45 828.7 381.15 813.6 372.75 800.95 365.25 788.45 357.1 779.25 350.5 778.8 350 778.65 349.3 778.75 348.7 779.05 348.2 779.55 347.9 780.15 347.8 821.5 347.75 839.25 347.95 841.55 347.65 843.55 347.1 845.25 346.2 846.8 344.85 848 343.15 848.95 341 853.25 324.65 857.3 311.2 861.95 297.7 865.85 287.8 866.4 287.1 867.25 286.85 M1541 283.45 L1541 283.4 1541.9 283.7 1542.45 284.5 1560.5 347.5 1560.95 347.85 1630.05 347.85 1630.5 347.9 1631.2 348.35 1631.75 349.5 1631.8 350.6 1631.1 351.45 1601.2 368.4 1592.2 373.75 1587.6 376.35 1580 380.05 1577.75 381.6 1576.05 383.35 1574.9 385.45 1574.4 387.65 1574.45 390.05 1575.05 392.95 1582 411 1587.3 426 1592.15 441.35 1595.35 452.75 1595.3 453.7 1594.7 454.45 1593.9 454.7 1592.9 454.3 1541.4 408.1 1540.85 408.1 1488.05 455.2 1487.05 455.6 1486.4 455.45 1485.2 454.75 1484.8 453.75 1484.9 453.2 1509.3 385.3 1509.1 384.75 1451.5 351.75 1450.85 351 1450.75 350.5 1450.9 349.7 1451.45 348.9 1452.35 348.6 1520.85 348.6 1521.3 348.25 1539.55 284.55 1540.1 283.75 1541 283.45 M1206.05 -0.2 L1206.4 -0.2 1222.2 -0.05 1237.85 0.3 1253.4 0.9 1268.8 1.75 1284.1 2.8 1299.3 4.1 1314.35 5.6 1329.3 7.35 1344.15 9.3 1358.85 11.45 1373.45 13.85 1387.95 16.45 1402.3 19.3 1416.55 22.35 1430.7 25.65 1444.7 29.15 1458.6 32.85 1472.4 36.8 1486.1 40.95 1499.65 45.3 1513.1 49.9 1526.45 54.7 1539.65 59.7 1552.75 64.9 1565.75 70.35 1578.65 76 1591.4 81.85 1604.05 87.9 1616.6 94.15 1629.05 100.65 1641.35 107.35 1653.55 114.25 1665.65 121.35 1677.65 128.65 1689.55 136.15 1701.3 143.85 1712.95 151.75 1724.5 159.85 1735.95 168.15 1747.3 176.7 1758.5 185.4 1769.6 194.3 1780.6 203.4 1791.5 212.7 1802.3 222.2 1813 231.9 1823.55 241.8 1834 251.9 1844.35 262.2 1854.6 272.7 1864.75 283.4 1874.8 294.3 1884.7 305.4 1894.5 316.65 1904.2 328.1 1913.8 339.75 1932.7 363.6 1951.15 388.2 1960.25 400.8 1978.1 426.55 1985.85 438.15 1986.1 438.9 1985.9 439.7 1985.5 440.2 1984.9 440.45 1967.15 444.7 1958.5 446.55 1950.3 447.85 1949.1 447.8 1947.65 447.3 1946.2 446.45 1944.8 445.35 1942.2 442.65 1940.1 439.7 1927.3 418.35 1920.65 407.75 1907 386.9 1892.8 366.45 1885.5 356.4 1870.45 336.6 1854.8 317.25 1846.75 307.75 1830.15 289.1 1821.6 279.95 1810.3 268.25 1798.85 256.75 1787.25 245.5 1775.55 234.5 1763.7 223.75 1751.7 213.25 1739.55 203 1727.25 193 1714.8 183.25 1702.2 173.75 1689.45 164.5 1676.55 155.5 1663.5 146.8 1650.3 138.35 1636.95 130.15 1623.45 122.2 1609.85 114.55 1596.05 107.15 1582.1 100.05 1568 93.2 1553.75 86.65 1539.35 80.35 1524.8 74.35 1510.1 68.6 1495.25 63.15 1480.25 58 1465.1 53.1 1449.8 48.5 1434.35 44.2 1418.75 40.2 1403 36.5 1387.1 33.05 1373.55 30.35 1346.65 25.55 1319.95 21.5 1293.45 18.25 1267.15 15.75 1241.05 14 1215.15 13 1189.45 12.75 1163.95 13.25 1138.65 14.55 1113.55 16.6 1088.65 19.4 1063.95 22.95 1039.45 27.25 1015.15 32.3 991.1 38.1 967.25 44.7 943.6 52.05 920.15 60.15 896.9 69 873.85 78.6 851 88.95 828.4 100.05 806 111.9 794.85 118.1 772.75 131.1 750.85 144.85 729.2 159.35 718.45 166.9 697.1 182.55 675.95 198.95 665.45 207.4 644.65 224.9 624.05 243.15 612.55 253.8 601.3 264.7 590.35 275.8 579.65 287.1 569.2 298.65 559 310.4 549.05 322.35 539.35 334.5 529.85 346.8 520.6 359.3 511.6 372 502.8 384.9 494.25 397.95 485.9 411.2 477.8 424.6 468.15 441.05 466.25 443.65 464.3 445.7 462.2 447.15 459.85 448.05 457.35 448.3 454.4 447.95 445.7 445.2 440.3 444 429.3 441.85 423.8 439.95 423.3 439.7 422.95 439.25 422.75 438.45 423 437.7 430.9 425.9 448.8 400.1 457.9 387.5 476.45 362.85 485.9 350.8 495.45 338.95 505.1 327.3 514.85 315.8 524.7 304.5 534.65 293.4 544.7 282.5 554.9 271.8 565.2 261.3 575.6 251 586.1 240.9 596.7 231 607.4 221.25 618.25 211.7 629.2 202.35 640.25 193.2 651.4 184.25 662.65 175.5 674.05 167 685.55 158.7 697.15 150.6 708.85 142.7 720.65 135 732.6 127.5 744.65 120.2 756.8 113.1 769.05 106.2 781.45 99.55 793.95 93.1 806.55 86.85 819.25 80.8 832.1 74.95 845.05 69.35 858.1 63.95 871.25 58.75 884.55 53.75 897.95 49 911.45 44.45 925.1 40.1 938.85 36 952.7 32.1 966.65 28.4 980.75 24.95 994.95 21.7 1009.25 18.7 1023.7 15.9 1038.25 13.3 1052.9 10.95 1067.7 8.8 1082.6 6.9 1097.6 5.2 1112.75 3.75 1128 2.5 1143.4 1.5 1158.9 0.75 1174.5 0.2 1190.25 -0.1 1206.05 -0.2 M1203.45 106.35 L1203.35 106.25 1204.2 106.55 1204.75 107.3 1208.45 118.35 1219.75 158.25 1231.4 201.1 1232.45 203.45 1233.7 205.25 1235.3 206.7 1237.1 207.65 1239.2 208.3 1241.65 208.65 1295.65 208.45 1345.75 208.55 1346.7 208.9 1347.2 209.75 1347.5 211.3 1347.15 212.2 1346.75 212.5 1252.7 266.1 1252.5 266.65 1293.1 377.9 1293.2 378.35 1293 379.2 1292.05 380 1291 380 1290.55 379.7 1203.9 302 1203.35 302 1116.8 379.7 1115.8 380.1 1115.15 379.95 1114.45 379.5 1114.15 379.05 1114.05 378.5 1114.15 377.95 1154.65 266.65 1154.45 266.1 1060.7 212.75 1060.3 212.4 1059.95 211.5 1060.4 209.75 1060.95 209 1061.85 208.7 1173.15 208.7 1173.6 208.35 1202 107.45 1202.5 106.65 1203.45 106.35"/>
  </g>
</svg>