<svg width="1054.15px" height="1000.45px" viewBox="0 0 1054.15 1000.45" xmlns="http://www.w3.org/2000/svg" xmlns:xlink="http://www.w3.org/1999/xlink">
  <defs/>
  <g>
    <path stroke="none" fill="#BFFF00" d="M78.6 -0.1 L78.2 0.1 88.3 0.35 93.35 0.7 103.35 1.8 113.3 3.4 128.15 6.55 138 9.05 147.55 11.7 157 14.55 175.7 20.85 194.1 27.85 212.25 35.45 230.15 43.6 247.85 52.25 265.35 61.3 282.7 70.7 300.05 80.6 317.25 90.8 351.45 111.45 353.45 112.5 355.35 113 357.3 112.95 358.4 112.7 376.7 105.05 385.35 101.8 394.05 98.75 402.8 95.9 411.6 93.3 420.45 90.9 429.35 88.7 438.3 86.7 447.3 84.95 456.35 83.4 465.45 82.05 474.6 80.9 483.8 80 493.05 79.3 502.35 78.8 514.9 78.4 533.65 78.35 546.1 78.65 558.5 79.25 577 80.75 595.4 82.95 613.7 85.9 631.85 89.6 649.9 94.1 661.85 97.55 673.75 101.4 685.6 105.6 697.35 110.2 707.05 114.3 716.55 118.65 725.9 123.25 735.1 128.1 744.15 133.15 753.05 138.45 761.8 143.95 770.4 149.7 778.85 155.65 787.15 161.8 795.3 168.2 803.3 174.8 811.15 181.6 818.85 188.6 826.45 195.8 833.9 203.2 846.35 216.45 858.55 230 859.4 231.1 861.5 234.55 861.45 234.95 860.6 235.85 860.15 236.05 859.9 236 829.8 222.35 813.3 215.45 805 212.2 788.25 206.1 779.8 203.25 762.75 198 754.15 195.6 736.8 191.35 728.05 189.45 710.4 186.25 699.8 184.65 689.2 183.3 678.6 182.2 662.75 181.05 652.2 180.65 641.7 180.55 631.2 180.8 620.75 181.4 610.3 182.4 599.9 183.75 589.55 185.55 579.25 187.75 569 190.4 558.8 193.55 548.65 197.15 537.6 201.7 531.8 204.35 526.15 207.15 515.3 213.15 505.1 219.65 495.5 226.65 490.95 230.35 486.55 234.2 482.3 238.15 478.25 242.25 474.35 246.45 470.6 250.8 467 255.25 463.55 259.85 460.3 264.55 457.2 269.4 454.25 274.35 451.45 279.45 448.85 284.65 446.4 290 441.95 301.05 440 306.75 436.55 318.55 435.05 324.65 432.6 337.2 431.6 343.65 430.5 352.95 429.8 362.2 429.45 371.4 429.45 380.55 429.8 389.65 430.5 398.7 431.5 407.7 432.8 416.65 434.4 425.55 436.3 434.45 438.45 443.3 440.85 452.1 443.5 460.85 446.35 469.6 449.45 478.3 452.7 486.95 453.65 489.1 457.5 496.45 457.4 496.75 456.9 497.05 453.55 497.4 452.25 497.3 451.55 497.05 423.3 480.2 395.35 462.9 381.55 454.05 367.85 445 354.3 435.75 334.35 421.45 314.8 406.55 295.75 391 283.4 380.2 271.3 369.05 265.35 363.35 253.7 351.65 242.35 339.5 234.8 331 227.45 322.4 220.3 313.65 213.35 304.75 203.35 291.05 197 281.7 190.9 272.1 186.25 264.2 184.65 260.6 184.25 258.65 184.35 256.75 184.65 255.7 185.6 253.7 187.1 251.45 189.15 248.8 196.75 239.5 204.5 230.35 212.45 221.4 220.55 212.65 228.85 204.1 237.3 195.75 245.95 187.65 259.3 175.9 268.45 168.35 277.8 161.05 287.35 154 297.1 147.15 307.05 140.6 322.45 131.2 332.95 125.3 335.5 123.6 335.5 123.35 307.95 106.25 298.75 100.7 283.85 91.95 268.85 83.4 246.1 71.05 230.75 63.25 223 59.5 207.35 52.3 199.45 48.9 183.4 42.45 175.3 39.45 165.9 36.15 156.45 33.1 146.95 30.35 137.35 28.05 127.65 26.2 117.85 24.9 107.95 24.25 102.95 24.2 95.2 24.5 90 25.1 85.1 26.1 82.75 26.75 78.25 28.3 74.1 30.2 72.15 31.25 68.45 33.65 65.1 36.4 63.55 37.9 60.7 41.15 58.2 44.7 57.1 46.6 55.15 50.6 53.6 54.95 52.4 59.55 51.65 64.45 51.4 67 51.25 72.35 51.4 77.2 52.15 86.9 52.75 91.75 54.4 101.4 56.6 110.9 58.55 117.9 63 131.65 68.1 145.1 73.75 158.3 79.9 171.25 86.5 184.05 93.45 196.65 104.3 215.35 112.45 228.8 120.8 242.1 129.35 255.25 138.05 268.3 146.9 281.2 155.95 294 165.15 306.65 183.95 331.65 193.55 344 213.15 368.45 223.1 380.55 243.35 404.5 263.35 427.55 283.05 449.7 303 471.6 323.2 493.25 343.65 514.65 364.35 535.8 385.25 556.7 406.4 577.35 427.8 597.75 449.4 617.9 482.25 647.7 504.45 667.25 526.85 686.6 549.5 705.7 572.35 724.55 595.4 743.15 599.95 746.65 600.2 746.6 605.95 737.9 608.65 733.3 613.55 723.95 615.75 719.15 619.7 709.3 622.05 702.5 624.1 695.65 625.9 688.8 627.45 681.9 628.75 675 629.85 668.1 630.7 661.15 631.35 654.2 631.75 647.2 631.95 640.2 631.75 626.15 630.8 612.05 629.1 597.9 626.45 582.35 623 567.05 618.8 551.95 613.85 537.05 610.15 527.25 606.15 517.5 605.95 516.55 606.05 513.95 606.4 513.65 606.75 513.65 609.45 514.3 610.6 514.75 627.6 524 644.4 533.6 661 543.6 669.2 548.7 685.45 559.2 701.45 570.05 717.2 581.3 732.75 592.9 748 604.85 755.5 610.95 770.2 623.35 784.55 636.15 798.5 649.35 812 663 825 677.15 837.45 691.85 843.45 699.4 849.3 707.1 855.45 715.6 861.35 724.25 872.8 741.8 874.75 745.1 876.1 747.95 876.85 750.5 877 751.75 876.85 754.15 876.05 756.65 875.45 757.9 873.75 760.6 865.8 770.55 860 777.4 848.1 790.8 842 797.35 829.5 810.1 823.1 816.3 809.95 828.35 796.3 839.9 789.3 845.5 782.2 850.95 765.45 863.1 765.4 863.35 766 864.15 783.45 874.75 809.45 889.85 827 899.45 844.8 908.6 862.85 917.25 881.2 925.3 899.85 932.7 909.3 936.15 918.25 939.2 931.8 943.25 940.9 945.5 945.5 946.45 954.75 948 959.4 948.6 968.8 949.35 978.3 949.45 983.1 949.25 990.6 948.35 995.25 947.3 999.65 945.9 1003.75 944.15 1007.55 942.1 1011.05 939.7 1014.25 937 1017.15 934 1018.5 932.4 1020.95 928.95 1023.05 925.2 1023.95 923.2 1025.55 919.05 1026.8 914.6 1027.7 909.9 1028.2 904.95 1028.35 897.7 1028.2 893.05 1027.35 883.85 1026.7 879.3 1024.95 870.3 1023.9 865.85 1021.4 857 1018.5 848.25 1015.3 839.6 1011.85 831 1007.8 821.5 1003.55 812.1 999.15 802.8 994.55 793.6 984.9 775.5 974.7 757.7 969.4 748.9 958.45 731.55 947.1 714.4 929.55 689.05 918.95 674.3 908.2 659.7 897.3 645.2 875 616.65 852.15 588.6 828.75 561 804.85 533.8 780.5 507 755.7 480.55 731.1 454.95 706.7 430.25 682 405.85 657 381.8 631.7 358.05 606.1 334.65 593.2 323.05 567.15 300.15 535.65 273.15 535.4 272.7 535.6 272.2 549.75 257.45 550.25 257.25 550.65 257.4 572.5 275.8 591.65 292.3 610.6 309 629.4 325.85 648 342.85 666.45 360.05 684.7 377.45 702.75 395 720.65 412.75 738.35 430.7 755.85 448.85 781.7 476.4 807.1 504.4 832.05 532.9 848.4 552.15 866.45 573.95 886.05 598.35 905.2 623.05 923.85 648.1 941.9 673.55 950.7 686.45 959.35 699.45 967.8 712.6 976.1 725.85 984.2 739.25 992.1 752.8 999.8 766.45 1010.85 787.1 1021.2 808.05 1027.6 822.25 1033.55 836.6 1036.3 843.85 1041.4 858.55 1045.9 873.5 1047.9 881.1 1049.6 888.25 1051.1 895.45 1052.35 902.65 1053.3 909.9 1054.05 920.85 1054.05 928.2 1053.9 931.9 1053.25 939.3 1052.35 945.35 1051.75 948.25 1050.3 953.85 1048.5 959.15 1046.35 964.15 1043.85 968.85 1041 973.25 1037.8 977.3 1034.25 981.05 1030.35 984.45 1026.15 987.55 1021.6 990.3 1016.75 992.7 1011.55 994.8 1006.05 996.55 1000.2 997.95 992.25 999.25 987.35 999.8 977.55 1000.35 972.65 1000.35 962.95 999.95 958.1 999.55 948.45 998.35 938.85 996.7 929.25 994.7 919.7 992.4 910.4 989.95 901.2 987.3 892.1 984.45 874.1 978.2 865.2 974.85 847.6 967.65 830.2 959.9 821.6 955.85 804.5 947.45 779.1 934.2 763.75 925.8 748.55 917.2 733.45 908.4 718.5 899.4 703.65 890.25 688.95 880.9 674.35 871.4 645.5 851.85 617.05 831.7 589 811 561.3 789.75 535.6 769.4 500.05 740.35 476.65 720.65 442.1 690.6 419.4 670.2 385.85 639.1 363.8 618 342.05 596.65 320.55 575 299.35 553.05 288.85 541.95 268.1 519.55 247.6 496.9 227.4 473.95 207.5 450.7 197.65 438.95 177.75 414.65 158.25 390 139.25 365 120.8 339.6 103 313.8 94.35 300.7 85.85 287.5 77.55 274.15 69.45 260.7 61.55 247.1 53.85 233.35 46.35 219.45 35.65 198.3 29 184 25.85 176.8 19.9 162.2 17.1 154.85 12 139.9 7.55 124.7 5.55 117 3.85 109.65 1.8 98.6 0.8 91.2 0.15 83.8 -0.1 76.35 -0.05 72.6 0.4 65.1 1.35 57.6 2.5 51.75 4 46.2 5.8 40.95 7.95 36 10.4 31.4 13.2 27.1 16.3 23.1 19.7 19.4 23.45 16.05 25.45 14.5 29.65 11.6 34.15 9.05 38.95 6.8 44.05 4.9 49.5 3.3 55.25 2.05 63.35 0.85 68.45 0.35 78.6 -0.1 M200.75 774.45 L200.65 774.25 206.65 776.7 219.1 782.35 231.65 787.8 250.65 795.55 269.85 802.7 289.35 809.15 302.5 813 309.1 814.8 327.25 819.15 345.45 822.75 354.55 824.25 363.7 825.55 372.85 826.65 382 827.55 391.2 828.2 400.4 828.65 409.6 828.85 418.85 828.8 428.1 828.55 437.35 828.05 446.65 827.25 455.95 826.2 461.7 825.35 473.2 823.1 501.85 816.45 505.05 816.15 506.65 816.35 508 816.95 526.8 831.25 583.1 874.5 582.95 875.2 582.65 875.4 567.75 879.65 559.8 881.65 543.9 885.1 535.95 886.55 520.1 888.95 504.3 890.7 488.5 891.75 472.75 892.1 457.05 891.8 441.35 890.8 425.7 889.15 410.05 886.85 394.45 883.9 378.85 880.3 363.3 876.05 347.75 871.15 332.5 865.7 332.3 865.8 332.05 866.75 332.15 866.95 346.8 874.6 361.5 881.65 371.3 885.95 381.15 890 391.05 893.75 401.05 897.25 411.1 900.45 421.25 903.4 431.45 906.05 441.7 908.45 452.05 910.6 462.45 912.45 472.9 914.05 483.45 915.35 494.05 916.4 504.7 917.2 522.3 917.9 535.95 917.9 542.75 917.75 556.35 917.1 569.9 916 576.65 915.3 590.15 913.55 596.85 912.5 610.25 910.05 625.05 906.9 627.8 906.7 630.3 907.1 632.85 908.25 636.6 910.95 644.6 916.25 644.9 916.6 645.35 917.85 645.25 918.15 644.85 918.45 628.4 922.1 619.85 923.8 602.8 926.7 585.8 929 568.85 930.7 551.9 931.8 535 932.25 518.15 932.1 501.35 931.3 484.55 929.85 467.8 927.8 451.1 925.1 434.45 921.7 417.8 917.65 401.2 912.95 392.9 910.35 376.35 904.6 363.2 899.5 350.35 893.95 337.8 887.95 325.55 881.55 313.6 874.75 301.95 867.55 296.2 863.8 284.95 856.05 273.95 847.9 263.25 839.4 252.8 830.55 247.65 826 237.55 816.65 222.85 802 213.35 791.85 204.1 781.4 199.7 776.2 199.65 775.8 200.15 774.8 200.75 774.45 M851.75 759.85 L789.15 768.8 768.55 771.55 765.65 772.05 762.95 772.75 760.4 773.65 757.95 774.7 755.6 775.95 751.15 779.05 734.35 793.55 719.45 805.8 714.75 809.5 700.25 820.15 700.25 820.4 703.8 823.1 747 852 748.15 852.7 750.2 853.45 751.2 853.5 753.15 853.05 755.3 851.9 764.7 845.6 773.9 839.1 782.9 832.35 791.7 825.4 800.3 818.2 812.8 806.9 820.85 799 828.7 790.8 840.15 778.1 855.05 761.15 855.05 760.9 854.1 759.9 851.75 759.85 M645.6 553.25 L645.55 553.2 654.85 564.35 664.3 576.05 678.05 593.8 686.9 605.85 695.45 618.05 703.7 630.4 711.65 642.95 719.2 655.7 726.4 668.65 733.2 681.85 739.55 695.3 745.45 709 750.85 723 755.75 737.3 758 744.55 762 759.05 762.2 759.2 857.95 745.1 858.05 744.9 853.1 737.5 842.4 722.45 831.25 707.9 819.7 693.85 807.7 680.3 795.35 667.2 782.6 654.55 769.5 642.3 756.05 630.45 742.25 619 728.1 607.95 713.65 597.25 698.9 586.9 683.85 576.85 668.55 567.1 645.6 553.25 M296.95 246.55 L296.95 246.65 285.2 247.6 273.35 249 261.6 250.8 250 253 238.45 255.6 227 258.55 209.85 263.65 204.45 265.4 204.35 265.65 214.5 280.55 219.85 287.95 230.85 302.35 242.25 316.25 254.1 329.65 266.35 342.6 278.95 355.1 291.95 367.2 305.3 378.9 318.95 390.2 332.95 401.15 347.25 411.8 361.8 422.1 376.6 432.1 391.65 441.85 414.2 455.7 404.8 444.35 395.2 432.5 381.25 414.5 372.3 402.3 363.6 389.95 355.25 377.4 347.25 364.65 339.6 351.7 332.35 338.55 325.55 325.15 319.2 311.5 313.35 297.55 308 283.35 305.55 276.15 301.05 261.45 297.15 246.7 296.95 246.55 M537.45 91.65 L537.3 91.45 519.2 91.7 510.15 92.1 492.1 93.5 474.15 95.7 465.2 97.1 447.45 100.4 438.65 102.35 421.15 106.8 412.5 109.3 395.35 114.85 378.5 121.1 370.2 124.5 353.8 131.8 337.75 139.8 329.85 144.05 314.4 153.05 306.85 157.8 292.05 167.75 284.85 173 277.75 178.4 270.8 183.95 263.95 189.65 257.25 195.5 250.7 201.5 244.3 207.65 238.05 213.95 231.95 220.4 226 227 220.2 233.75 214.6 240.65 209.4 247.35 209.5 247.5 291.05 233 301.2 230.95 304.5 230 307.7 228.85 312.35 226.5 315.3 224.45 330.05 211.95 336.85 206.5 350.7 196.1 364.9 186.3 379.5 177.1 386.95 172.7 402.1 164.4 409.85 160.45 425.6 153.05 433.6 149.55 451.45 142.45 463.4 138.2 475.4 134.3 487.5 130.8 499.65 127.7 511.85 125 524.1 122.7 530.25 121.7 542.6 120 555 118.7 567.5 117.8 580.05 117.35 592.65 117.3 605.3 117.7 618.05 118.55 630.85 119.85 642.75 121.45 654.55 123.45 672.05 127.1 683.65 129.95 695.15 133.1 712.3 138.35 723.6 142.15 729.35 143.85 721.85 139.55 713.6 135.1 705.3 130.85 696.9 126.85 688.45 123.05 679.9 119.5 671.3 116.15 662.65 113.05 653.95 110.15 645.2 107.45 636.4 105 627.55 102.75 618.65 100.7 609.7 98.85 600.75 97.25 591.75 95.85 582.75 94.65 573.7 93.65 564.65 92.85 555.6 92.25 546.55 91.85 537.45 91.65"/>
  </g>
</svg>