<svg width="1000.55px" height="1000.25px" viewBox="0 0 1000.55 1000.25" xmlns="http://www.w3.org/2000/svg" xmlns:xlink="http://www.w3.org/1999/xlink">
  <defs/>
  <g>
    <path stroke="none" fill="#00FF00" d="M502.75 522.85 L502.85 522.95 504.2 523.05 505.6 523.4 508.65 524.85 801.95 696.45 806.35 699.25 806.6 699.55 806.55 700.1 806.1 700.35 112.75 764.55 112.65 764.75 121.15 776.7 125.6 782.7 134.75 794.4 139.45 800.1 149.05 811.3 153.95 816.75 163.95 827.4 169.05 832.6 179.5 842.75 184.85 847.7 195.75 857.3 201.3 861.95 212.6 871.05 218.35 875.45 230.1 884 242.15 892.2 248.3 896.15 260.8 903.8 267.15 907.5 273.6 911.1 286.7 918.05 300.05 924.6 306.75 927.7 320.25 933.6 327.05 936.35 340.7 941.55 347.55 944 361.35 948.55 368.3 950.65 382.25 954.5 389.25 956.25 403.4 959.45 410.5 960.85 424.8 963.35 432 964.45 446.45 966.3 453.7 967.05 468.3 968.2 483 968.9 490.4 969.1 505.25 969.15 520.15 968.75 527.55 968.4 542.3 967.35 556.9 965.85 564.15 964.95 571.4 963.9 585.75 961.5 592.9 960.15 607.1 957.05 614.15 955.35 628.15 951.6 635.1 949.55 648.9 945.15 655.75 942.8 669.4 937.75 676.2 935.05 689.65 929.35 696.35 926.35 709.65 919.95 722.8 913.15 735.75 906.05 736.3 906.35 751.65 931.05 751.65 931.7 751.4 931.95 741.8 937.6 731.6 943.25 721.25 948.65 710.8 953.8 700.25 958.65 689.55 963.25 678.75 967.6 667.85 971.65 656.85 975.45 645.8 978.95 634.65 982.2 623.4 985.2 612.1 987.9 600.75 990.35 589.3 992.5 577.8 994.4 566.25 996.05 554.65 997.4 543.05 998.5 531.4 999.35 519.75 999.9 508.05 1000.2 496.35 1000.2 484.65 999.95 472.95 999.45 461.25 998.65 449.55 997.6 437.85 996.25 426.2 994.65 414.55 992.8 402.95 990.65 391.4 988.25 379.9 985.55 368.45 982.6 357.05 979.4 345.7 975.9 334.45 972.15 323.25 968.1 312.15 963.8 301.15 959.2 290.2 954.35 279.35 949.25 268.65 943.85 258.05 938.2 247.55 932.25 237.2 926.05 226.95 919.55 216.85 912.8 206.9 905.8 197.05 898.5 187.35 890.95 177.85 883.1 168.5 875 159.3 866.6 150.3 857.95 137.15 844.45 128.6 835.1 120.25 825.5 112.1 815.65 104.15 805.5 92.65 789.75 85.25 778.9 78.4 768.3 78.35 767.7 78.6 767.4 497 524.65 500.05 523.25 501.35 522.95 502.75 522.85 M812.2 851.3 L812.15 851.2 812.6 851.4 833.05 872.95 833.2 873.45 833.15 873.7 781.3 914.35 780.9 914.5 780.6 914.4 764.45 889.05 764.35 888.75 764.45 888.4 811.8 851.45 812.2 851.3 M858.25 803.7 L858.2 803.7 858.6 803.85 881.75 822.25 882 822.7 881.85 823.15 859.2 848.1 858.75 848.3 858.35 848.15 836.25 828.35 836.05 827.75 836.2 827.45 857.8 803.9 858.25 803.7 M752.25 69.25 L752.6 69 763.3 75.2 773.9 81.8 784.3 88.6 794.45 95.65 804.4 102.95 814.1 110.45 823.6 118.15 832.85 126.1 841.85 134.25 850.65 142.6 859.2 151.15 867.5 159.85 875.55 168.75 883.4 177.85 891 187.1 898.35 196.5 905.45 206.1 912.3 215.85 918.9 225.75 925.25 235.8 931.35 246 937.2 256.3 942.8 266.75 948.15 277.3 953.25 288 958.1 298.8 962.7 309.7 967.05 320.7 971.15 331.8 974.95 343 978.5 354.25 981.8 365.6 984.85 377 987.6 388.5 990.1 400.05 992.35 411.65 994.3 423.3 996 435 997.4 446.75 998.55 458.55 999.4 470.35 1000 482.2 1000.3 494.05 1000.35 505.9 1000.1 517.8 999.55 529.7 998.75 541.55 997.65 553.4 996.25 565.25 994.55 577.1 992.6 588.9 990.35 600.7 987.8 612.45 984.95 624.15 981.8 635.8 978.35 647.4 974.6 658.95 970.55 670.45 966.2 681.85 961.55 693.2 956.6 704.45 951.35 715.6 945.8 726.7 940 737.45 939.35 737.45 785.95 649.25 523.45 498.9 521.35 497.45 520.45 496.6 519.35 494.85 519 493.75 518.7 491.05 520.1 147.65 520.25 146.1 520.6 145.15 521.05 144.55 521.35 144.45 521.85 144.7 920.15 709.7 920.35 709.7 925.05 699.6 929.65 689.15 934 678.65 938.1 668.15 941.95 657.65 945.55 647.1 948.9 636.55 952 626 954.85 615.4 957.45 604.8 959.8 594.2 961.9 583.55 963.75 572.9 965.35 562.25 966.7 551.55 967.8 540.85 968.65 530.1 969.2 519.35 969.5 508.6 969.55 497.8 969.35 487 968.9 476.2 968.15 465.35 967.15 454.5 965.9 443.6 964.4 432.7 962.6 421.8 960.55 410.85 958.25 399.9 955.65 388.95 952.8 377.95 949.65 366.95 946.25 356 942.65 345.2 938.85 334.6 934.8 324.15 930.55 313.85 926.1 303.7 921.45 293.75 916.55 283.95 911.45 274.3 906.15 264.8 900.65 255.45 894.9 246.3 888.95 237.3 882.8 228.45 876.45 219.75 869.9 211.2 863.15 202.8 856.2 194.6 849.05 186.55 841.7 178.65 834.15 170.9 826.4 163.3 818.45 155.85 810.3 148.55 801.95 141.4 793.4 134.4 784.65 127.55 775.7 120.85 766.55 114.3 757.2 107.9 738.2 95.65 738.15 95 750.4 71.7 751.75 69.55 752.25 69.25 M49.3 632.95 L49.25 633.05 49.6 633.15 49.85 633.45 59.3 661.8 59.2 662.35 31.35 673.5 30.9 673.5 30.5 673.1 20 640.95 20.1 640.4 20.45 640.15 49.3 632.95 M485.05 -0.05 L484.8 -0.05 485.25 0.1 485.45 0.55 485.35 487.95 485.05 491.5 484.65 492.9 484.05 494.25 483.25 495.5 482.2 496.65 480.8 497.75 479.2 498.75 184.7 666.1 179.95 668.7 179.4 668.75 178.85 668.25 178.8 667.65 472.1 31.85 472 31.7 460.7 32.65 449.15 33.85 437.75 35.3 426.45 37 415.25 38.9 404.15 41.05 393.2 43.45 382.35 46.05 371.6 48.9 361 52 350.5 55.3 340.1 58.85 329.85 62.65 319.7 66.65 309.65 70.9 299.75 75.4 289.95 80.15 280.25 85.1 270.7 90.3 261.25 95.75 251.95 101.45 242.75 107.4 233.65 113.55 224.7 119.95 215.85 126.6 207.1 133.5 198.5 140.65 190 148.05 181.65 155.7 173.4 163.6 165.25 171.7 157.25 180.05 149.4 188.6 141.85 197.25 134.55 206 127.5 214.85 120.7 223.8 114.15 232.85 107.85 242.05 101.8 251.35 96 260.75 90.45 270.25 85.15 279.85 80.1 289.55 75.3 299.35 70.75 309.25 66.45 319.25 62.4 329.35 58.6 339.55 55.05 349.85 51.75 360.25 48.65 370.75 45.8 381.35 43.2 392.05 40.85 402.85 38.75 413.75 36.9 424.7 35.25 435.75 33.85 446.9 32.7 458.15 31.8 469.5 31.1 480.95 30.4 503.85 29.85 504.2 0.2 504.15 -0.2 503.55 -0.1 492.95 0.25 481.9 0.8 470.9 1.55 460 2.5 449.15 3.7 438.35 5.1 427.65 6.7 417 8.55 406.45 10.6 395.95 12.85 385.55 15.35 375.2 18.05 364.95 20.95 354.75 24.1 344.65 27.45 334.6 31.05 324.65 34.85 314.8 38.9 305 43.15 295.3 47.65 285.65 52.35 276.1 57.3 266.65 62.45 257.25 67.85 247.95 73.45 238.75 79.3 229.6 85.4 220.55 91.7 211.6 98.25 202.7 105.05 193.9 116.6 179.75 125.8 169.1 139.9 153.75 149.5 143.95 164.25 129.85 174.3 120.85 189.7 107.95 205.45 95.8 221.55 84.4 232.5 77.2 249.25 67 260.6 60.6 277.95 51.6 289.7 46 307.65 38.2 326 31.1 344.7 24.75 357.35 20.9 376.65 15.7 389.7 12.65 409.6 8.65 423.05 6.35 443.55 3.5 464.4 1.35 485.05 -0.05 M31.3 539.15 L31.3 539.1 31.7 539.25 31.9 539.65 40.6 598.45 40.15 598.9 11.25 605.9 10.9 605.9 10.5 605.4 1 540.95 1.55 540.55 31.3 539.15 M659.8 25.6 L659.8 25.55 722.35 51.6 722.55 51.95 722.5 52.35 708.45 78.85 707.9 78.9 651.1 55.15 651 54.6 659.2 26.05 659.55 25.65 659.8 25.6 M590.55 8.15 L590.55 8.2 626.25 16.2 626.65 16.5 626.7 17 618.55 45.4 618.3 45.75 617.8 45.85 586.25 38.85 585.85 38.6 585.75 38.15 589.95 8.7 590.2 8.25 590.55 8.15"/>
  </g>
</svg>