<svg height="512pt" viewBox="0 0 512 511" width="512pt" xmlns="http://www.w3.org/2000/svg">
	<path fill="#029e4c" d="m300.84375 476.125c-2.558594 2.121094-5.121094 4.0625-7.679688 6.003906-10.859374 8.121094-19.507812 14.566406-19.507812 30.367188h44.136719c-1.113281-6.136719-3.617188-11.933594-7.328125-16.949219-3.921875-6.09375-7.148438-12.609375-9.621094-19.421875zm0 0"/>
	<path fill="#029e4c" d="m282.570312 468.003906c7.964844-4.65625 14.261719-11.695312 18.007813-20.125l.53125-1.324218c4.113281-10.335938 10.761719-19.472657 19.332031-26.570313 12.796875-10.511719 21.332032-25.324219 24.011719-41.667969.101563-.402344.160156-.816406.175781-1.234375 3.660156-22.90625-5.234375-46.015625-23.304687-60.558593-.84375-.660157-1.5625-1.46875-2.117188-2.382813l-22.777343-3.796875c-3.164063-.519531-6.363282.691406-8.386719 3.179688l-98.78125 123.585937c-2.351563 2.835937-6.199219 3.957031-9.707031 2.824219l-68.679688-22.863282c-3.03125-1.074218-6.40625-.359374-8.738281 1.855469l-102.136719 93.570313h256c0-24.628906 14.742188-35.664063 26.570312-44.492188zm0 0"/>
	<path fill="#029e4c" d="m335.449219 512.496094h167.636719c-1.414063-8.472656-12.359376-60.203125-69.476563-53.054688-.347656.074219-.703125.105469-1.058594.089844-21.042969 3.816406-42.71875-1.441406-59.671875-14.476562-10.308594-8.953126-17.972656-20.550782-22.160156-33.546876-4.976562 7.871094-11.039062 15.003907-18.007812 21.1875-6.882813 5.453126-12.1875 12.644532-15.359376 20.832032-4.058593 12.183594 1.941407 22.246094 8.296876 33.015625 5.5 7.636719 8.882812 16.589843 9.800781 25.953125zm0 0"/>
	<path fill="#029e4c" d="m368.640625 293.925781-21.1875 21.1875c-.542969.539063-1.167969.984375-1.851563 1.324219 14.371094 17.59375 20.421876 40.546875 16.59375 62.9375.972657 13.949219 5.207032 38.226562 21.894532 52.085938 13.375 9.878906 30.273437 13.722656 46.609375 10.589843h.085937c12.625-3.265625 19.773438-12.179687 27.984375-22.597656 11.476563-14.300781 24.453125-30.542969 53.230469-30.542969v-238.34375l-24.1875 56.40625c-1.382812 3.261719-4.578125 5.382813-8.121094 5.386719h-30.542968c-4.457032.011719-8.207032 3.34375-8.738282 7.765625l-7.0625 56.144531c-.480468 3.960938-3.554687 7.109375-7.503906 7.679688l-52.171875 7.417969c-1.910156.285156-3.675781 1.183593-5.03125 2.558593zm0 0"/>
	<path fill="#029e4c" d="m512 483.71875v-77.152344c-20.304688 0-28.691406 10.59375-39.460938 23.921875-3.308593 4.355469-6.875 8.511719-10.679687 12.445313 18.234375 3.800781 34.171875 14.777344 44.226563 30.457031 2.214843 3.296875 4.191406 6.75 5.914062 10.328125zm0 0"/>
	<path fill="#029e4c" d="m217.875 137.324219s97.703125 93.988281 125.519531 164.085937c0 0 14.847657-68.675781-79.015625-178.644531l6.75-6.125c6.558594-6.675781 6.769532-17.308594.480469-24.238281-6.289063-6.929688-16.894531-7.746094-24.171875-1.863282l-6.753906 6.125c-100.324219-104.113281-170.0625-96.015624-170.0625-96.015624 67.027344 34.515624 147.253906 136.675781 147.253906 136.675781zm0 0"/>
	<path fill="#029e4c" d="m229.515625 300.632812s35.3125-26.480468 52.96875-26.480468c0 0-26.484375-17.65625-44.140625-17.65625-17.652344 0-8.828125 44.136718-8.828125 44.136718zm0 0"/>
	<path fill="#029e4c" d="m370.757812 247.667969s35.3125 8.828125 35.3125-8.828125c0-17.652344-26.484374-35.308594-26.484374-35.308594 8.828124 17.65625-8.828126 44.136719-8.828126 44.136719zm0 0"/>
	<path fill="#029e4c" d="m344.277344 159.394531c4.875 0 8.824218-3.953125 8.824218-8.828125v-17.65625c0-4.875-3.949218-8.828125-8.824218-8.828125s-8.828125 3.953125-8.828125 8.828125v17.65625c0 4.875 3.953125 8.828125 8.828125 8.828125zm0 0"/>
	<path fill="#029e4c" d="m366.8125 176.164062c2.09375 1.050782 4.519531 1.222657 6.742188.480469 2.222656-.742187 4.058593-2.335937 5.105468-4.433593l8.828125-17.65625c2.179688-4.363282.40625-9.667969-3.957031-11.847657-4.363281-2.175781-9.667969-.40625-11.847656 3.957031l-8.824219 17.65625c-1.050781 2.09375-1.222656 4.519532-.480469 6.742188.742188 2.222656 2.335938 4.058594 4.433594 5.101562zm0 0"/>
	<path fill="#029e4c" d="m55.4375 312.375 161.542969-150.953125c-6.882813-7.058594-11.210938-11.210937-11.386719-11.386719l-.882812-.882812-.707032-.96875c-.175781-.179688-4.058594-5.121094-10.679687-12.976563l-161.632813 151.039063c-4.757812 4.21875-6.875 10.667968-5.550781 16.886718s5.890625 11.246094 11.957031 13.15625c6.0625 1.914063 12.6875.417969 17.339844-3.914062zm0 0"/>
</svg>