<?xml version="1.0" encoding="iso-8859-1"?>
<svg version="1.1" id="Capa_1" xmlns="http://www.w3.org/2000/svg" xmlns:xlink="http://www.w3.org/1999/xlink" x="0px" y="0px"
	 viewBox="0 0 512 512" style="enable-background:new 0 0 512 512;" xml:space="preserve">
<g>
	<g>
		<g>
			<path fill="#C0C0C0" d="M373.75,84.965c-1.712-1.721-4.041-2.685-6.469-2.679h-213.42c-2.427-0.007-4.757,0.958-6.469,2.679l-35,35
				c-1.721,1.712-2.685,4.041-2.679,6.469v56.424c0.007,5.047,4.096,9.136,9.143,9.143h36.571c5.047-0.007,9.136-4.096,9.143-9.143
				v-19.853c-0.021-7.28,2.873-14.265,8.036-19.397l7.571-7.571c5.132-5.163,12.118-8.056,19.397-8.036h112.848
				c7.28-0.021,14.265,2.873,19.397,8.036l7.571,7.571c5.163,5.133,8.056,12.118,8.036,19.397V192
				c-0.017,15.142-12.287,27.412-27.429,27.429h-47.281c-2.427-0.007-4.757,0.958-6.469,2.679l-53.285,53.285
				c-1.721,1.712-2.685,4.041-2.679,6.469V320h82.286c5.047-0.007,9.136-4.096,9.143-9.143v-28.996
				c-0.021-7.28,2.873-14.265,8.036-19.397l7.571-7.571c5.133-5.163,12.118-8.056,19.398-8.036h30.563
				c2.427,0.007,4.757-0.958,6.469-2.679l35-35c1.721-1.712,2.685-4.041,2.679-6.469v-76.277c0.007-2.427-0.958-4.757-2.679-6.469
				L373.75,84.965z"/>
			<path fill="#C0C0C0" d="M292.571,384h-73.143c-5.049,0-9.143,4.093-9.143,9.143v36.571c0,5.049,4.093,9.143,9.143,9.143h73.143
				c5.049,0,9.143-4.093,9.143-9.143v-36.571C301.714,388.093,297.621,384,292.571,384z"/>
			<circle fill="#C0C0C0" cx="59.429" cy="59.429" r="13.714"/>
			<circle fill="#C0C0C0" cx="452.571" cy="452.571" r="13.714"/>
			<path fill="#C0C0C0" d="M466.286,0H45.714C20.479,0.03,0.03,20.479,0,45.714v420.571C0.03,491.521,20.479,511.97,45.714,512h420.571
				c25.235-0.03,45.685-20.479,45.714-45.714V45.714C511.97,20.479,491.521,0.03,466.286,0z M59.429,27.429
				c17.673,0,32,14.327,32,32c0,17.673-14.327,32-32,32c-17.673,0-32-14.327-32-32C27.45,41.764,41.764,27.45,59.429,27.429z
				 M59.429,484.571c-17.673,0-32-14.327-32-32s14.327-32,32-32c17.673,0,32,14.327,32,32
				C91.407,470.236,77.093,484.55,59.429,484.571z M320,429.714c-0.017,15.142-12.287,27.412-27.429,27.429h-73.143
				c-15.142-0.017-27.412-12.287-27.429-27.429v-36.571c0.017-15.142,12.287-27.412,27.429-27.429h73.143
				c15.141,0.017,27.412,12.287,27.429,27.429V429.714z M367.281,265.143h-30.563c-2.427-0.007-4.757,0.958-6.469,2.679
				l-7.571,7.571c-1.721,1.712-2.685,4.041-2.679,6.469v28.995c-0.017,15.142-12.287,27.412-27.429,27.429h-89.714
				c-0.29,0-0.576-0.013-0.857-0.04c-2.555,0.21-5.083-0.651-6.979-2.377c-1.896-1.726-2.99-4.162-3.021-6.726v-47.281
				c-0.021-7.28,2.873-14.265,8.036-19.397l53.285-53.286c5.133-5.163,12.118-8.056,19.398-8.036H320
				c5.047-0.007,9.136-4.096,9.143-9.143v-28.996c0.007-2.427-0.958-4.757-2.679-6.469l-7.571-7.571
				c-1.712-1.721-4.041-2.685-6.469-2.679H199.576c-2.427-0.007-4.757,0.958-6.469,2.679l-7.571,7.571
				c-1.721,1.712-2.685,4.041-2.679,6.469v19.852c-0.017,15.141-12.287,27.412-27.429,27.429h-36.571
				c-15.142-0.017-27.412-12.287-27.429-27.429v-56.424c-0.021-7.28,2.873-14.265,8.036-19.397l35-35
				c5.133-5.163,12.118-8.056,19.398-8.036h213.42c7.28-0.021,14.265,2.873,19.397,8.036l35,35
				c5.163,5.133,8.056,12.118,8.036,19.398v76.277c0.021,7.28-2.873,14.265-8.036,19.397l-35,35
				C381.546,262.27,374.561,265.164,367.281,265.143z M452.571,484.571c-17.673,0-32-14.327-32-32s14.327-32,32-32s32,14.327,32,32
				C484.55,470.236,470.236,484.55,452.571,484.571z M452.571,91.429c-17.673,0-32-14.327-32-32c0.021-17.664,14.336-31.979,32-32
				c17.673,0,32,14.327,32,32C484.571,77.102,470.245,91.429,452.571,91.429z"/>
			<circle fill="#C0C0C0" cx="59.429" cy="452.571" r="13.714"/>
			<circle fill="#C0C0C0" cx="452.571" cy="59.429" r="13.714"/>
		</g>
	</g>
</g>
</svg>
