<svg width="1015.85px" height="999.55px" viewBox="0 0 1015.85 999.55" xmlns="http://www.w3.org/2000/svg" xmlns:xlink="http://www.w3.org/1999/xlink">
  <defs/>
  <g>
    <path stroke="none" fill="#00FFFF" d="M839.55 517.8 L839.6 517.85 839.95 517.95 840.15 518.15 929.05 660.05 929.15 660.25 929.15 660.45 929.1 660.65 928.95 660.85 812 757 811.8 757.1 811.6 757.15 811.3 757.1 811.05 756.9 781.05 715.3 780.8 715.3 515.1 999.7 514.9 999.85 514.65 999.9 514.4 999.85 514.2 999.7 250.15 715.3 249.9 715.3 219.8 756.95 219.55 757.15 219.25 757.2 219.05 757.15 218.85 757.05 101.9 660.85 101.75 660.65 101.65 660.3 101.75 660 190.45 518.4 190.65 518.2 190.9 518.1 191.2 518.15 191.4 518.3 515 855.25 515.25 855.25 839.1 518 839.3 517.85 839.55 517.8 M515.35 0.4 L515.3 0.35 515.6 0.45 515.85 0.65 729.15 341.05 729.4 341.1 809.5 284.9 839.6 263.9 841.25 262.85 843.05 261.85 844.9 261.05 846.85 260.4 929.7 239.65 1012.6 218.95 1015.45 218.4 1015.8 218.5 1016.05 218.75 1016.1 218.95 1016.05 219.35 1015.95 219.5 790.25 438.05 790.2 438.3 819.45 485.15 819.55 485.35 819.55 485.55 819.5 485.75 819.35 485.95 742.7 559.75 742.5 559.9 742.25 559.95 741.95 559.85 741.7 559.6 713.4 512.6 713.15 512.55 644.8 578.75 595.3 626.85 594.3 627.85 593.35 628.95 592.45 630.1 590.8 632.55 589.4 635.1 588.8 636.4 553.15 719.95 517.6 803.55 515.35 808.6 515.1 808.85 514.75 808.95 514.4 808.85 514.15 808.55 471.15 699.65 442 626 441.15 624.2 440.15 622.5 438.95 620.9 438.3 620.2 437.6 619.55 377.95 568.95 318.3 518.45 315.35 516.25 315.1 516.3 288.55 560.35 288.3 560.6 288 560.7 287.75 560.65 287.55 560.5 211 486.6 210.85 486.4 210.8 486 210.9 485.8 234.55 447.9 234.5 447.65 0.45 249.45 0.25 249.15 0.25 248.8 0.35 248.6 0.65 248.35 0.85 248.3 1.15 248.35 275.55 382.2 275.8 382.15 514.8 0.7 515.05 0.5 515.35 0.4 M515.25 182.75 L515.2 182.8 368.5 427.2 368.55 427.45 373.35 430 439 462.05 504.6 494.15 505.8 494.65 506.85 494.95 507.9 495.1 508.85 495.05 509.8 494.85 510.75 494.5 511.75 494 512.75 493.35 576.95 448.2 641.15 403.1 645.5 399.8 645.55 399.55 515.45 182.75 515.25 182.75 M550.2 295.4 L550.2 295.3 552.5 295.35 554.7 295.55 556.75 295.9 558.75 296.4 560.65 297 562.55 297.75 564.3 298.65 565.95 299.65 567.45 300.75 568.95 302.05 570.3 303.45 571.55 304.95 572.7 306.6 573.75 308.35 574.7 310.25 575.55 312.2 577.15 316.5 578.65 320.9 580.05 325.35 581.35 329.8 582.5 334.3 583.5 338.8 584.4 343.35 585.1 347.9 585.9 354.25 586.55 360.6 587.05 366.95 587.5 373.35 588.2 386.15 588.85 399 588.8 399.75 588.65 400.5 588.4 401.2 588 402.05 587.55 402.8 587.05 403.5 586.5 404.1 585.9 404.55 541.8 434.05 519.65 448.7 497.5 463.3 496.7 463.75 495.85 464.05 495 464.25 494 464.4 493 464.45 492 464.4 491.15 464.25 490.3 464 482.1 460.45 473.95 456.8 457.95 449.45 457.65 449.2 457.55 448.9 457.6 448.6 469.55 422.9 475.5 410 481.25 397.1 485.85 386.2 490.3 375.2 494.55 364.15 498.6 353.05 499.3 350.9 499.85 348.95 500.25 347.2 500.5 345.6 500.55 344.2 500.45 342.9 500.15 341.85 499.7 340.9 499 340 498.1 339.25 497.05 338.6 495.75 338.05 494.25 337.55 492.45 337.1 490.45 336.7 488.2 336.35 480.9 335.4 477.25 335.15 475.4 335.1 473.55 335.15 471.75 335.3 469.95 335.55 468.1 335.95 466.3 336.5 464.5 337.2 462.7 338.05 460.9 339.1 460 339.75 459.65 339.85 459.35 339.8 459.1 339.55 459 339.2 459 337.45 459.15 334.8 459.5 332.25 460 329.8 460.65 327.45 461.45 325.2 462.35 323.05 463.4 321 464.6 319.05 465.9 317.2 467.35 315.4 468.9 313.7 470.6 312.05 472.4 310.5 474.3 309 476.3 307.55 478.5 306.15 480.75 304.85 483.05 303.7 485.4 302.65 487.75 301.7 490.15 300.85 492.6 300.1 495.05 299.45 497.55 298.85 500.05 298.35 505.1 297.5 510.2 296.85 515.3 296.35 519.65 296 524 295.75 528.35 295.6 532.7 295.5 550.2 295.4"/>
  </g>
</svg>