<svg height="512pt" viewBox="-61 0 512 512" width="512pt" xmlns="http://www.w3.org/2000/svg">
	<path fill="#ffb000" d="m145.453125 391.765625-2.929687 30.058594h105.71875l-2.933594-30.058594zm0 0"/>
	<path fill="#ffb000" d="m385.421875 266.992188c3.390625-2.847657 5.339844-7.058594 5.339844-11.492188v-60.117188c0-4.433593-1.949219-8.632812-5.339844-11.492187-3.363281-2.847656-7.851563-4.039063-12.214844-3.320313l-117.621093 20.050782c32.671874-42.855469 45-60.085938 45-95.414063 0-58.003906-47.199219-105.207031-105.203126-105.207031-58.003906 0-105.207031 47.203125-105.207031 105.207031 0 35.515625 12.3125 52.617188 44.984375 95.414063l-117.605468-20.046875c-4.328126-.734375-8.835938.46875-12.210938 3.316406-3.390625 2.859375-5.34375 7.058594-5.34375 11.492187v60.117188c0 4.433594 1.953125 8.644531 5.34375 11.492188 3.390625 2.847656 7.835938 4.035156 12.238281 3.316406l141.753907-21.824219-10.949219 113.222656h93.988281l-10.945312-113.222656 141.75 21.824219c4.359374.703125 8.851562-.46875 12.242187-3.316406zm-178.019531-102.667969c-2.832032 3.789062-7.292969 6.019531-12.019532 6.019531-4.726562 0-9.1875-2.230469-12.023437-6.019531-20.761719-29.316407-33.066406-37.535157-33.066406-59.117188 0-24.863281 20.226562-45.089843 45.089843-45.089843 24.863282 0 45.085938 20.226562 45.085938 45.089843 0 21.820313-12.496094 30.082031-33.066406 59.117188zm0 0"/>
	<path fill="#ffb000" d="m135.351562 496.3125c-.46875 4.242188.898438 8.5 3.742188 11.683594 2.847656 3.1875 6.929688 4.003906 11.199219 4.003906h90.175781c4.273438 0 8.351562-.816406 11.199219-4.003906 2.847656-3.183594 4.210937-7.441406 3.742187-11.683594l-4.234375-44.429688h-111.585937zm0 0"/>
</svg>