<svg height="512pt" viewBox="-25 0 512 512" width="512pt" xmlns="http://www.w3.org/2000/svg">
	<path fill="#ff7100" d="m425.210938 256c1.15625-1.535156 59.636718-72.726562 27.71875-128-31.898438-55.257812-122.5625-40.253906-124.714844-39.992188-.746094-1.753906-33.164063-88.007812-96.988282-88.007812-63.8125 0-96.160156 86.0625-96.988281 88.007812-2.0625-.25-92.835937-15.21875-124.707031 39.992188-31.902344 55.253906 26.410156 126.265625 27.714844 128-1.253906 1.664062-59.59375 72.789062-27.714844 128 17.050781 29.539062 57.390625 48.21875 124.707031 39.992188.8125 1.910156 33.242188 88.007812 96.988281 88.007812 63.8125 0 96.160157-86.058594 96.988282-88.007812 67.371094 8.230468 107.683594-10.488282 124.714844-39.992188 31.902343-55.253906-26.410157-126.261719-27.71875-128zm1.738281-113c15.164062 26.265625-4 64.496094-21.546875 89.257812-14.929688-16.285156-32.269532-32.128906-51.5-47.089843-3.339844-24.128907-8.394532-47.066407-15.03125-68.132813 45.488281-4.246094 76.570312 6.027344 88.078125 25.964844zm-195.722657 222.113281c-25.136718-11.019531-59.429687-28.769531-94.496093-54.558593-4.808594-43.34375-3.015625-81.925782 0-109.113282 22.027343-16.195312 54.550781-37.042968 94.496093-54.554687 40.023438 17.542969 72.570313 38.429687 94.496094 54.554687 4.808594 43.355469 3.011719 81.941406 0 109.117188-35.195312 25.878906-69.558594 43.621094-94.496094 54.554687zm88.007813-13.621093c-2.855469 13.628906-6.332031 26.660156-10.402344 38.921874-12.65625-2.605468-25.679687-6.109374-38.910156-10.453124 22.75-11.566407 39.800781-22.28125 49.3125-28.46875zm-126.703125 28.472656c-13.230469 4.339844-26.253906 7.84375-38.90625 10.449218-4.070312-12.261718-7.550781-25.292968-10.40625-38.921874 9.515625 6.191406 26.558594 16.902343 49.3125 28.472656zm-88.011719-95.496094c-10.375-9.285156-19.917969-18.8125-28.503906-28.46875 8.585937-9.65625 18.128906-19.183594 28.503906-28.46875-.601562 11.339844-1.355469 31.449219 0 56.9375zm38.699219-123.960938c2.855469-13.628906 6.332031-26.660156 10.402344-38.921874 12.65625 2.605468 25.679687 6.109374 38.910156 10.449218-22.753906 11.570313-39.796875 22.28125-49.3125 28.472656zm126.703125-28.46875c13.230469-4.34375 26.253906-7.847656 38.910156-10.453124 4.070313 12.261718 7.546875 25.292968 10.402344 38.921874-21.390625-13.917968-39.203125-23.328124-49.3125-28.46875zm88.007813 95.484376c10.378906 9.289062 19.925781 18.816406 28.511718 28.476562-8.585937 9.660156-18.132812 19.1875-28.511718 28.476562 1.355468-25.464843.605468-45.5625 0-56.953124zm-126.703126-197.523438c30.3125 0 53.839844 35.695312 66.523438 63.292969-21.5625 4.785156-43.953125 11.882812-66.523438 21.050781-22.566406-9.167969-44.957031-16.265625-66.519531-21.050781 12.667969-27.574219 36.230469-63.292969 66.519531-63.292969zm-195.714843 113c11.558593-20.023438 42.777343-30.195312 88.070312-25.964844-6.636719 21.066406-11.691406 44.003906-15.035156 68.136719-19.226563 14.960937-36.5625 30.804687-51.492187 47.085937-17.546876-24.765624-36.691407-63.023437-21.542969-89.257812zm0 226c-15.167969-26.265625 3.996093-64.492188 21.542969-89.253906 14.925781 16.28125 32.265624 32.121094 51.492187 47.082031 3.34375 24.132813 8.398437 47.070313 15.035156 68.136719-30.402343 2.839844-72.96875.199218-88.070312-25.964844zm195.714843 113c-30.324218 0-53.851562-35.71875-66.519531-63.292969 21.5625-4.785156 43.949219-11.882812 66.519531-21.050781 22.570313 9.167969 44.960938 16.265625 66.519532 21.050781-12.75 27.761719-36.289063 63.292969-66.519532 63.292969zm195.722657-113c-15.160157 26.265625-57.855469 28.785156-88.074219 25.964844 6.636719-21.066406 11.6875-44.003906 15.03125-68.132813 19.226562-14.960937 36.570312-30.808593 51.496094-47.089843 17.550781 24.761718 36.695312 63.023437 21.546875 89.257812zm0 0"/>
	<path fill="#ff7100" d="m231.226562 192.800781c-34.847656 0-63.199218 28.351563-63.199218 63.199219s28.351562 63.199219 63.199218 63.199219c34.847657 0 63.199219-28.351563 63.199219-63.199219s-28.351562-63.199219-63.199219-63.199219zm0 0"/>
</svg>