<svg height="512" viewBox="0 0 56 56" width="512" xmlns="http://www.w3.org/2000/svg">
	<g id="Theatre">
		<path fill="#029e4c" d="m27.164 26.983c2.5071187.3054296 4.9496612 1.00788 7.236 2.081.0756893.0528915.1787218.0422477.242-.025-.423-1.492-1.284-3.358-3.01-3.866s-3.482.611-4.642 1.641c.032.117.081.158.174.169z"/>
		<path fill="#029e4c" d="m55.691 24.653c.1735673-.4797939-.0419109-1.0133177-.5-1.238-4.4799688-2.35083-9.1559237-4.3075372-13.975-5.848h-.02l-.035-.01c-4.8874861-1.3114711-9.8795353-2.1964557-14.92-2.645-.5070732-.0579884-.9764491.2751866-1.089.773-.207.921-.42 1.841-.633 2.761-.581 2.506-1.183 5.1-1.693 7.65-.232 1.163-.5 2.327-.767 3.492-.878 3.812-1.786 7.756-1.359 11.662.467 4.22 2.878 8.734 6.971 13.056.6162117.7010556 1.3930103 1.2424814 2.264 1.578.9097661.1822884 1.8499452.1442286 2.742-.111 5.776-1.419 10.246-3.911 12.922-7.207 2.473-3.052 3.844-6.861 5.17-10.545.406-1.125.811-2.248 1.245-3.352.951-2.423 1.847-4.928 2.715-7.351.3213333-.8893333.642-1.7776667.962-2.665zm-17.122 8.814c.529492.1559292.8325082.7113842.677 1.241-.4064854 1.3031629-.654604 2.6505238-.739 4.013.0659569 1.0826989-.7494089 2.0178536-1.831 2.1-.165.015-.331.022-.5.022-.6032277-.002498-1.2029866-.0914011-1.781-.264-.7425615-.2120483-1.4386473-.5617874-2.052-1.031-.8641241-.6554046-1.0422365-1.8830447-.4-2.757.6660248-1.1915779 1.1861036-2.4590391 1.549-3.775.0927992-.3519623.3695115-.6257043.7224547-.7146999.3529433-.0889955.7263687.0208126.9749585.2866927.2485898.2658802.3330783.6458355.2205868.9920072-.4270771 1.5401505-1.050528 3.0189558-1.855 4.4.4261999.3065635.9017345.5379046 1.406.684.4984821.1526724 1.0212772.2100069 1.541.169.0783637-1.5902186.3565495-3.1642533.828-4.685.1542178-.5300889.708825-.8349214 1.239-.681zm-12.913-8.147c2.205-1.961 4.467-2.676 6.535-2.065s3.569 2.411 4.365 5.224c.2234473.7690151-.0311641 1.5972883-.648 2.108-.3930677.3266079-.8889607.5037125-1.4.5-.3408418-.0002022-.6772273-.0774615-.984-.226-2.0884931-.979297-4.3192896-1.6206215-6.609-1.9-.8617307-.1017931-1.5851671-.6963234-1.852-1.522-.2389492-.7614484-.0064692-1.5921822.593-2.119zm16.866 19.68c-2.494 2.994-5.371 4.559-8.29 4.559-.8045628-.0018315-1.6047058-.1190242-2.376-.348-3.707-1.09-6.084-4.4-6.69-9.311-.1006786-.8345714.3312587-1.6430244 1.0809745-2.0232503.7497159-.3802258 1.6571753-.251061 2.2710255.3232503 1.5597367 1.5820062 3.4416781 2.8098042 5.518 3.6 2.1738375.4570299 4.420461.4420251 6.588-.044.8270318-.1505596 1.6599412.2321075 2.0844529.9576691s.3500085 1.6391377-.1864529 2.2863309zm6.817-10.467c-.393327.3261529-.8890483.5031962-1.4.5-.3405475.0000281-.6766586-.0772467-.983-.226-2.0887882-.9794461-4.3199379-1.620775-6.61-1.9-.8615775-.1013893-1.5850606-.6955674-1.852-1.521-.242543-.7635384-.0097245-1.59823.593-2.126 2.2-1.96 4.466-2.676 6.536-2.066s3.566 2.411 4.364 5.225c.2280602.7714608-.0270591 1.6045357-.648 2.116z"/>
		<path fill="#029e4c" d="m.816 13.422c.106 1.182.177 2.375.248 3.57.236 3.908.476 7.946 1.989 11.573 1.638 3.916 5.224 7.569 10.37 10.561.7880742.4987016 1.6854395.7986241 2.615.874.9119038-.0776309 1.7920338-.3721505 2.567-.859.0541084-2.5876367.3836332-5.1621536.983-7.68-1.1477386-.43906-2.3599708-.6860338-3.588-.731-2.216441.1603391-4.3704115.8066327-6.309 1.893-.87733652.4544455-1.95540492.1929275-2.527-.613-.41303609-.5896705-.48557979-1.3530884-.191-2.01 1.964-4.513 5.168-7 9.027-7 1.833908-.0136537 3.6205409.5814217 5.08 1.692.467-2.25.981-4.509 1.489-6.7.2813333-1.206.5583333-2.4123333.831-3.619.2158747-.9966478 1.1518124-1.6675832 2.165-1.552l.467.054c-2.1537938-.2861903-4.3380594-.2524929-6.482.1-.1207382.0190527-.242768.0287483-.365.029-.806461.0320882-1.5595762-.4021632-1.9358141-1.1162038s-.3086167-1.5807495.1738141-2.2277962c1.545-2.398 3.47-3.66 5.577-3.66 2.144 0 4.1 1.308 5.661 3.782.4312347.6747008.4206262 1.5410608-.027 2.205-.4708339.6861069-1.2870155 1.049756-2.112.941 1.611.183 3.18.373 4.713.583l.006-.08c.231-2.6.385-5.256.534-7.824.0546667-.944.111-1.88766667.169-2.831.0308095-.50904438-.3263747-.95972563-.829-1.046-4.9604234-.99210537-9.9977396-1.55087774-15.055-1.67-.011 0-.02-.006-.03-.006s-.02.006-.03.006c-5.05885.11931483-10.09778122.67774618-15.06 1.669-.50262768.08725011-.85900351.53886058-.827 1.048.05933333.93733333.11533333 1.87533333.168 2.814.151 2.573.306 5.234.535 7.831zm16.712 6.306c-.3736728-1.5476048-.551067-3.1360892-.528-4.728 0-.5522847.4477153-1 1-1s1 .4477153 1 1c-.0236186 1.3650708.1180785 2.7279824.422 4.059.3669461 1.0196334-.1503066 2.1453139-1.163 2.531-1.4558217.5460093-3.0601783.5460093-4.516 0-1.0136179-.3853152-1.5318048-1.5115377-1.165-2.532.3038412-1.3306921.4455378-2.693263.422-4.058 0-.5522847.4477153-1 1-1s1 .4477153 1 1c.0233521 1.5966461-.1584688 3.1896794-.541 4.74.994667.3447079 2.0770591.3404757 3.069-.012zm-14.214-9.9c1.563-2.506 3.53-3.828 5.686-3.828s4.1 1.308 5.661 3.782c.4312347.6747008.4206262 1.5410608-.027 2.205-.4888996.7180314-1.3516754 1.0849456-2.208.939-2.2805059-.3499953-4.60215859-.3351432-6.878.044-.12005271.0192852-.2414101.0293148-.363.03-.73726919.0058961-1.42847476-.3579161-1.841-.969-.4476826-.6639752-.45946122-1.5300963-.03-2.206z"/>
		<path fill="#029e4c" d="m8.788 30.837c2.2215172-1.22002 4.683083-1.9391713 7.212-2.107 1.3747193.0386112 2.7343364.2975698 4.027.767.027-.121.055-.242.082-.362.171-.743.329-1.485.49-2.227-1.2194229-1.2205603-2.8736715-1.906863-4.599-1.908-3.876 0-6.062 3.174-7.212 5.837z"/>
		<path fill="#029e4c" d="m45.06 29.12c-1.733-.51-3.483.61-4.643 1.642.037.116.086.157.179.169 2.5058341.3054438 4.9470572 1.0079031 7.232 2.081.054438.0298879.1186805.0363843.178.018-.36-1.535-1.222-3.403-2.946-3.91z"/>
		<path fill="#029e4c" d="m12.754 10.953c.167.026.224-.077.225-.093-.827-1.311-2.179-2.86-3.979-2.86s-3.169 1.568-3.99 2.884c.03754101.0855292.12928388.1336838.221.116 2.4892064-.4156853 5.0287941-.4315514 7.523-.047z"/>
		<path fill="#029e4c" d="m26.979 10.86c-.827-1.311-2.179-2.86-3.979-2.86s-3.169 1.568-3.99 2.884c.0390277.0827268.129206.1284336.219.111 2.4894725-.4140277 5.0290599-.4282059 7.523-.042.17.026.226-.077.227-.093z"/>
		<path fill="#029e4c" d="m33.472 43.718c-2.3791236-.8768441-4.5375924-2.2636022-6.324-4.063.359 2.884 1.562 6.548 5.273 7.64s6.7-1.341 8.564-3.572c-2.4747879.5457248-5.0389407.5440183-7.513-.005z"/>
	</g>
</svg>