<svg width="1127.1px" height="997.85px" viewBox="0 0 1127.1 997.85" xmlns="http://www.w3.org/2000/svg" xmlns:xlink="http://www.w3.org/1999/xlink">
  <defs/>
  <g>
    <path stroke="none" fill="#0040FF" d="M79.55 437.25 L78.45 436.55 78.85 436.7 79.1 437.05 94.3 480.95 99.25 495.9 100.65 500.45 102.8 509.55 103.55 514.1 104.55 523.2 104.8 527.75 104.75 536.9 104.5 541.45 103.5 550.6 101.95 559.75 99.45 570.65 98.95 574.35 98.9 578.15 99.3 581.85 100.9 588.05 105 601.25 110.8 618.75 111.3 620 113.1 623.4 113.3 623.5 114.45 623.3 114.65 623.1 115.2 619.8 115.5 616.3 114.95 590.4 115.35 583.2 116.5 576.3 117.3 572.95 119.4 566.4 120.65 563.2 123.5 556.95 128.55 547.85 134.3 539 137.35 534.75 140.6 530.35 140.85 530.15 141.3 530.1 141.65 530.3 141.85 530.65 150.15 570 154.1 589.85 157.45 609.65 157.95 613.65 158.2 617.6 158.2 621.5 157.95 625.35 157.45 629.1 156.7 632.8 155.75 636.45 154.55 640 153.15 643.5 151.5 646.9 149.65 650.25 147.6 653.5 145.35 656.65 142.9 659.75 140.2 662.75 136.4 666.6 135.7 667.5 135.2 668.4 134.95 669.3 134.9 670.2 135.1 671.15 136.15 673.35 163.15 716.95 163.4 717.05 164.85 716.55 165 716.3 162.95 705.85 158.65 688.75 156.7 680.2 155.95 675.9 155.4 671.55 155.1 664.85 155.2 661.55 155.9 655.05 156.45 651.85 157.9 645.5 159.8 639.2 162 632.95 164.4 626.75 166.5 621.65 166.75 621.4 167.45 621.4 167.75 621.7 179.2 641.8 185 652.3 187.75 657.6 192.7 668.05 197.15 678.4 201.2 688.95 204.7 699.65 206.95 708.15 207.5 711.2 208 717.25 208 720.25 207.45 726.2 206.25 732.05 205.45 734.95 203.4 740.65 200.8 746.25 197.05 752.85 196.6 753.95 196.35 755.8 196.55 756.75 196.95 757.65 198.45 759.5 234.65 795.55 235.75 796.45 239.35 798.45 239.6 798.4 240.6 797.5 240.65 797.25 233.5 782.65 227.9 773.35 224.35 766.4 221.55 759.35 220.05 754.6 218.85 749.8 217.95 745 217.3 740.15 216.9 735.25 216.75 730.35 216.8 725.4 217.5 715.45 218.85 705.4 219.75 700.3 220.55 699.25 221.2 699.25 255.5 739.8 266.7 753.65 269.9 757.95 272.85 762.3 275.5 766.7 278.95 773.4 281.75 780.3 283.8 787.35 285.1 794.55 285.65 801.95 285.35 809.5 284.7 814.65 283 822.55 280.45 830.35 280.55 830.6 330.9 855.25 331.15 855.2 332.1 853.85 332.1 853.6 319.65 839.8 311.35 831.6 307.9 827.7 304.75 823.65 301.9 819.5 299.35 815.2 297.1 810.8 295.1 806.3 293.35 801.7 291.8 797 290.45 792.2 289.3 787.3 287.5 777.3 286.25 767 285.9 763.05 286.05 762.6 286.65 762.3 287.05 762.4 295.85 768.3 326.55 789.1 337.15 796.5 347.4 804.3 352.1 808.2 356.35 811.95 360.2 815.6 363.65 819.2 368.1 824.6 371.8 830.15 374.8 835.95 377.2 842.15 378.5 846.55 379.55 851.2 380.4 856.15 381.1 861.45 382.05 873.1 382.2 873.3 435.65 889.7 435.9 889.6 436.35 889 436.3 888.75 428.65 882.75 412.6 871.5 408.25 868.25 404.05 864.85 400.05 861.2 396.35 857.2 394.6 855.05 391.15 850.2 387.85 844.9 384.85 839.4 380.85 830.8 378.45 824.85 374.15 812.3 372.55 807 372.6 806.4 373.2 806.05 412.85 823.9 432.55 833.05 442.25 837.8 454.15 843.95 458.5 846.55 462.6 849.35 468.2 853.95 473.2 859 477.6 864.45 480.2 868.3 482.5 872.35 485.45 878.75 487.8 885.55 489.05 890.3 490 895.2 490.7 900.25 491.25 906.1 491.8 907.55 493.25 909.55 494.45 910.45 522.65 926.1 550.95 941.5 552.95 942.05 555.15 941.95 556.45 941.5 585.05 926 613.5 910.25 614.55 909.4 615.8 907.55 616.3 906.2 616.85 900.3 617.55 895.25 618.5 890.4 619.75 885.7 622.1 878.95 625.05 872.6 627.35 868.55 629.95 864.7 634.35 859.25 637.6 855.85 641.1 852.6 646.9 848.05 651.1 845.25 655.55 842.65 661.4 839.5 667.35 836.45 679.35 830.7 707.5 818.1 719.1 813.45 733.95 807.8 734.55 808.15 734.6 808.7 732.05 816.8 728.8 825.85 725.1 834.65 720.8 843.1 718.4 847.15 715.8 851.1 712.95 854.9 709.9 858.55 706.6 862.05 701.15 867 697.15 870.1 689.05 875.7 683.15 880.05 677.35 884.65 672.1 889.2 674.4 888.85 697.95 881.7 721.45 874.4 722.85 873.7 724.75 872.05 725.5 870.8 725.75 862.45 726.65 855 728.25 847.95 730.5 841.25 732.35 836.95 734.5 832.8 736.9 828.8 739.55 824.95 742.45 821.2 745.55 817.6 748.9 814.1 752.45 810.7 756.2 807.4 767.7 798.45 775.4 792.8 791 781.85 798.4 776.9 820.45 762.75 820.85 762.65 821.45 762.95 821.55 763.45 820.75 771.55 819.5 780.75 817.75 789.75 815.4 798.5 813.95 802.75 812.3 806.95 810.4 811.05 808.3 815.1 805.95 819.05 803.3 822.9 800.4 826.65 797.2 830.25 775.35 853.5 775.35 853.75 776.35 855.2 776.6 855.25 826.9 830.6 827 830.35 825.55 826.1 824.3 821.65 823.3 817.25 822.55 812.9 822.05 808.6 821.8 804.35 821.85 800.1 822.15 795.9 822.7 791.75 823.5 787.65 824.6 783.6 825.95 779.6 827.55 775.65 829.45 771.75 831.6 767.85 834 764 840.65 754.55 847.65 745.3 854.85 736.2 865.15 723.7 874.4 713.3 886.7 700.05 887.35 700.1 887.65 700.55 889.7 712.15 890.85 721.8 891.2 728.2 891.1 734.6 890.45 740.95 889.9 744.1 888.25 750.4 886.1 756.5 883.7 762.5 878.4 774.5 867.1 798.7 867.2 798.85 871.55 796.5 872.65 795.65 909.2 759.2 910.55 757.55 910.95 756.75 911.15 755.2 911 754.3 910.6 753.35 907.9 748.7 906.05 745.1 904.4 741.5 903 737.85 901.8 734.2 900.85 730.5 900.15 726.8 899.65 723.05 899.4 719.3 899.4 715.5 899.6 711.7 900.05 707.9 900.75 704.1 901.7 700.3 902.9 696.45 904.35 692.65 907.05 686.2 912.9 673.45 931.2 636.75 939.45 622.25 940.15 622.25 940.4 622.5 943 627.4 945.6 633.25 947.75 639.1 949.4 645 950.6 650.9 951.4 656.8 951.8 662.75 951.8 668.7 951.45 674.65 950.75 680.65 949.75 686.65 948.45 692.65 946.9 698.65 945.1 704.65 940.95 716.35 941.1 716.6 942.95 716.75 945.6 713.7 971 673.5 972.1 671.4 972.35 670.45 972.4 669.55 972.2 668.65 971.75 667.7 971.1 666.75 967.15 662.65 964.4 659.55 961.85 656.35 959.55 653.05 957.45 649.65 955.6 646.2 954 642.65 952.6 639.05 951.45 635.35 950.55 631.6 949.9 627.75 949.45 623.85 949.25 619.85 949.3 615.8 949.6 611.7 950.15 607.55 952.8 592.75 955.9 578 964.45 539.95 966.35 532.05 966.55 531.7 966.9 531.5 967.35 531.55 967.6 531.75 970.7 535.85 974.4 541 979.55 548.9 984.05 557.1 986.6 562.8 987.7 565.7 989.55 571.7 990.3 574.8 990.85 577.95 991.55 584.3 992.25 606.2 992.2 623.25 992.35 623.45 993.95 623.75 994.2 623.65 996.05 620.35 996.55 619.1 1008.65 580.55 1009.1 578.7 1009.35 576.8 1009.2 574 1007.15 566.85 1005.05 557.5 1004.05 551.3 1003.1 542 1002.85 535.85 1002.9 529.7 1003.2 523.55 1003.8 517.45 1004.65 511.35 1005.75 505.25 1007.1 499.15 1008.7 493.1 1010.5 487.05 1012.55 481 1018.45 465.5 1028.55 437.8 1029 437.35 1029.6 437.45 1029.85 437.75 1031.6 441.75 1033.75 447.15 1037.5 458.1 1040.55 469.25 1042.9 480.55 1044.3 489.45 1044.85 493.9 1045.6 502.75 1045.75 511.55 1045.6 515.95 1044.75 524.7 1044.05 529.05 1043.15 533.35 1042.05 537.65 1040.7 541.9 1039.15 546.15 1037.35 550.35 1035.55 553.9 1033.55 557.35 1029.05 564 1019.7 577.1 1017.15 581.2 1016.05 583.4 1015.2 585.6 1013.4 591.85 1008.9 608.7 1009 608.85 1077.3 553 1077.75 552.85 1078.25 553.05 1078.7 554.1 1079.8 558.65 1080.15 561.75 1080.2 564.7 1080 567.65 1079.55 570.55 1078.9 573.4 1076.6 580.6 1073.4 589.15 1071.7 593.3 1068 601.35 1063.95 609.05 1059.55 616.4 1054.75 623.4 1049.6 630.05 1044.05 636.35 1041.15 639.35 1035 645.05 1028.45 650.35 1021.5 655.3 1014.15 659.8 1010.3 661.9 1002.3 665.8 993.85 669.3 983.65 672.8 982.3 673.35 981.05 674.1 980.2 675 974.9 683.55 960.55 707.35 960.6 707.45 1042.45 669.15 1043 669.1 1043.35 669.4 1043.45 669.9 1042.7 675.45 1041.85 680.05 1040.55 684.15 1038.45 689.3 1036 694.2 1033.2 698.9 1030.1 703.4 1025 709.85 1017.55 718 1013.05 722.45 1008.45 726.7 1003.75 730.75 998.95 734.6 994 738.2 988.95 741.6 983.8 744.75 978.5 747.65 973.1 750.35 967.55 752.8 961.9 755 956.1 756.9 950.15 758.55 944.1 759.95 937.9 761.05 930.65 762.05 926.1 761.7 922.7 761.95 919.6 762.75 918.15 763.35 915.4 764.85 912.8 766.8 909.1 770.3 901.55 778.55 890.85 789.5 886 794.8 891.2 792.65 897 790.5 902.85 788.65 908.75 787 914.7 785.55 926.75 783.15 951.15 779.05 963.4 776.75 969.5 775.4 980.6 772.4 981.05 772.4 981.4 772.7 981.45 773.3 980 777.75 978.5 781.65 976.55 785.35 975.1 787.75 971.9 792.25 968.4 796.5 964.65 800.45 960.65 804.2 956.45 807.7 952.05 811.05 942.25 817.7 936.9 820.95 931.5 824 926.05 826.85 920.5 829.5 914.9 831.9 909.25 834.1 903.5 836.05 897.7 837.75 891.8 839.2 885.85 840.4 879.8 841.3 873.65 841.95 867.45 842.35 861.15 842.45 854.8 842.25 849.95 841.9 845.1 841.3 840.35 840.45 834.05 838.9 832.5 838.7 829.55 838.85 826.75 839.6 823.85 840.9 800.1 853.15 792.75 857.2 798.6 856.4 805.05 855.8 811.5 855.5 817.95 855.45 824.4 855.6 837.35 856.35 869.95 859.2 876.55 859.65 889.85 860.1 895.4 860.05 895.9 860.25 896.1 860.75 895.95 861.15 892.5 866.1 889.5 870.05 884.95 874.5 881.3 877.5 877.5 880.25 873.55 882.75 869.45 885.05 860.95 889.05 849.85 893.3 843.1 895.5 836.35 897.45 829.6 899.15 822.85 900.55 816.05 901.65 809.25 902.45 802.45 902.95 795.65 903.15 785.4 902.8 778.55 902.15 771.7 901.2 761.4 899.1 751.05 896.2 744.15 893.75 740.75 892.35 737.4 890.8 733.05 888.5 725.55 882.85 688.9 894.95 789 920.2 789.5 920.7 789.4 921.25 789.2 921.45 780.3 928.9 776.55 931.35 774.5 932.3 760.05 937.5 750.25 940.55 745.3 941.85 740.35 942.95 735.35 943.8 728.7 944.65 722.05 945.25 715.45 945.6 708.9 945.65 702.4 945.45 695.95 945 689.55 944.25 683.2 943.25 676.9 941.95 670.65 940.35 664.45 938.5 658.3 936.35 652.2 933.9 646.15 931.15 640.15 928.1 631.15 923 629 921.45 626.45 918.95 625.5 918.25 623.55 917.25 622.55 916.95 620.55 916.7 618.55 916.9 616.5 917.45 614.35 918.35 612.15 919.55 562.85 948.15 562.8 948.4 614.3 993.4 614.55 993.95 614.3 994.5 610.55 997.85 608.3 999.55 607.9 999.7 607.45 999.55 576.95 973.95 562.5 962.2 559.25 959.85 557.8 959 555.3 958.05 554.1 957.95 552.95 958.05 550.5 958.95 549.15 959.75 545.85 962.1 531.45 973.9 500.9 999.6 500.45 999.75 500 999.6 493.95 994.75 493.7 994.2 493.95 993.65 544.8 949.15 544.8 948.9 534.25 941.8 528.6 938.1 522.8 934.55 515 930.15 491.4 917.45 490.3 916.9 488.3 916.45 487.4 916.5 485.6 917.05 475.3 923.7 471.1 926.2 462.65 930.75 454.1 934.65 445.5 937.95 436.8 940.7 428.05 942.85 419.2 944.45 410.3 945.5 401.35 946 392.3 945.95 383.2 945.35 374.05 944.25 364.8 942.6 355.5 940.45 350.85 939.2 341.45 936.3 337.5 934.85 334 933.25 330.85 931.5 328.05 929.6 325.65 927.6 323.45 925.35 321.6 923.05 320.45 921.35 320.35 921 320.5 920.5 320.95 920.25 326.45 919.15 339.15 916.05 376.8 905.05 389.45 901.8 395.85 900.4 402.3 899.25 408.8 898.35 415.35 897.75 421.65 897.45 421.85 897.25 421.7 896.1 421.55 895.9 382.7 883.05 382.5 883.1 376.6 887.95 374.55 889.25 369.75 891.6 364.9 893.7 360 895.6 355.05 897.3 350.1 898.75 345.1 900 340.05 901.05 335 901.9 324.8 903 319.65 903.25 309.25 903.25 298.75 902.55 289.2 901.35 280.7 899.9 272.35 898.05 264.15 895.75 256.1 893 248.2 889.75 240.5 886 233 881.7 229.35 879.3 224.25 875.6 221.85 873.6 219.65 871.5 216.55 867.85 214 863.7 213 861.45 212.95 861.15 213.15 860.65 213.65 860.45 219.25 860.5 232.25 860.05 270.95 856.85 283.8 856.2 290.25 856.15 296.7 856.3 303.15 856.75 309.6 857.5 315.75 858.55 315.95 858.4 316.2 857.2 316.1 856.95 312.3 854.9 281.25 839.6 278.9 838.85 277.7 838.75 276.55 838.9 266.95 841 257.5 842.3 248.15 842.85 238.9 842.7 232.75 842.2 226.65 841.4 220.6 840.3 214.6 838.95 208.65 837.35 202.7 835.45 196.8 833.3 190.95 830.95 185.15 828.35 179.35 825.55 172.9 822.15 163.55 816.55 157.6 812.45 154.7 810.3 149.15 805.7 143.9 800.7 141.4 798.05 136.7 792.45 134.5 789.45 132.15 785.7 126.4 774.05 126.35 773.65 126.75 773.1 127.2 773.05 150.3 778.15 174.55 782.05 190.95 785.4 207.2 789.55 222.8 794.2 208.05 779.85 199.4 770.6 195.25 767.3 192.3 765.55 189.15 764.1 187.45 763.5 183.85 762.6 179.95 762.05 172.2 761.45 166.75 760.75 161.4 759.8 156.15 758.55 151 757.05 145.9 755.35 140.9 753.4 136 751.25 131.2 748.85 126.5 746.25 121.9 743.45 117.35 740.5 108.5 734.05 100 727 95.3 722.7 90.75 718.25 86.45 713.65 80.45 706.4 76.8 701.3 73.5 695.95 72 693.15 69.25 687.35 67.75 683.15 64.4 669.95 64.5 669.4 64.85 669.1 65.4 669.15 147.95 707.75 148.05 707.65 133.55 683.6 128.15 675 127.65 674.45 127.05 674 125.55 673.35 122 672.3 112.9 668.9 104.25 665.05 96.05 660.8 88.3 656.15 81 651.1 74.1 645.65 67.65 639.8 64.6 636.75 58.8 630.3 56.1 626.95 51 619.9 46.3 612.5 42.05 604.7 38.2 596.5 34.8 587.95 31.8 579 29.25 569.65 28.7 565.7 28.7 561.4 29.05 553.1 29.2 552.65 29.75 552.35 30.2 552.5 99.45 609.1 99.55 609.05 92.35 581.5 91.5 580.1 88.25 576.85 84.6 572.85 79.7 566.65 75.5 560.2 71.95 553.5 69.95 548.9 68.2 544.2 66.75 539.45 65.55 534.6 64.55 529.65 63.8 524.65 63.3 519.55 63 514.35 63 503.8 63.55 495.1 64 490.8 65.25 482.25 66.05 478 67.95 469.55 69.05 465.35 71.55 457 76.05 444.5 78.9 437.65 79.15 437.35 79.55 437.25 M1127.05 180.2 L1127 180.2 1127.35 180.3 1127.6 180.6 1127.65 181.05 1127.45 181.45 658.45 635.5 657 637.1 655.7 638.85 653.65 642.65 573.9 829.95 571.3 835.8 571.05 836.1 570.65 836.2 570.25 836.1 570 835.8 565.8 825.55 490.2 634.15 488.25 630.35 485.65 626.9 483.6 624.9 2.55 217.6 1.05 216.1 0.55 215.3 0.8 214.6 1.25 214.45 1.55 214.5 6.15 216.55 558.05 485.8 561.15 487 562.55 487.25 563.9 487.25 565.25 487.05 566.6 486.6 569.45 484.95 749.4 358.55 929.5 232.35 932.7 230.35 937.85 227.85 943.2 226.1 1122.9 181 1127.05 180.2 M591.2 265.25 L591.1 265.5 600.7 265.6 615.15 266.5 618.75 267.05 622.2 268.1 623.8 268.8 626.8 270.5 628.2 271.5 630.8 273.75 633.15 276.3 635.3 279.15 638.6 284.7 641 289.7 643.9 297.4 645.45 302.65 646.7 308 647.7 313.4 649.1 324.3 650.35 338.45 651.4 352.65 653.2 381.05 653.05 382.55 652 385 651 386.2 650.35 386.75 600.6 419.95 550.75 453 549.55 453.65 548.15 454.1 546.7 454.3 546 454.25 535.85 449.85 507.45 436.9 507.15 436.65 507.05 436.3 521.65 405.1 526.3 394.65 539.6 363.35 546 347.6 552.15 331.75 554 326.45 555.05 322.2 555.25 320.45 555.2 318.9 554.9 317.55 554.35 316.4 553.5 315.4 552.4 314.55 551.05 313.8 549.35 313.15 547.4 312.6 542.4 311.6 531.85 310.2 526.1 309.9 520.3 310.3 516.4 311.1 514.45 311.7 512.5 312.45 509.55 313.9 508.9 313.9 508.5 313.45 508.5 313.15 510.05 303.5 511.1 300.05 513.25 295.3 515.8 291 518.75 287.1 522.1 283.6 525.85 280.5 529.95 277.8 534.45 275.5 539.25 273.6 548.55 270.75 553.25 269.6 562.65 267.7 567.4 266.95 576.9 265.9 581.65 265.55 591.2 265.25 M563.35 1.9 L563.1 2.05 563.55 2.2 563.8 2.6 565.35 7.6 568.1 14.5 571.4 20.8 575.25 26.55 578.15 30.05 581.25 33.3 584.6 36.3 588.2 39.1 592.05 41.65 596.1 43.95 600.4 46.05 604.9 47.9 609.65 49.55 613.85 50.75 614.3 51.2 614.25 51.85 607.55 62 605.35 65.6 603.6 68.75 602.05 72 600.7 75.35 599.65 78.7 598.85 82.1 598.35 85.65 598.2 89.25 598.4 92.95 598.7 95 599.7 98.75 601.25 102.2 603.3 105.25 605.85 107.9 608.8 110.1 612.15 111.8 615.85 112.95 619.9 113.55 626 113.7 629.85 113.35 635.2 112.1 638.5 110.8 640.05 110.05 643 108.25 644.4 107.25 647 104.95 649.3 102.35 650.35 100.95 652.25 97.9 653.1 96.25 654.55 92.8 656.1 87.1 656.7 82.95 656.95 78.6 656.8 73.05 655 56.45 655.2 55.9 655.7 55.7 666.65 55.15 674.25 54.3 681.7 52.95 685.35 52.05 692.55 49.7 696.05 48.25 699.5 46.55 702.9 44.65 706.2 42.45 711.05 38.65 711.7 38.75 711.95 39.1 711.95 39.55 711.15 41.6 650.25 182.7 648.6 185.6 647.5 186.85 645.2 188.65 642.4 190 633.85 192.55 626.85 194.2 619.8 195.55 612.7 196.6 605.6 197.4 598.45 198 584.1 198.7 562.8 199.15 552.15 199.1 541.55 198.8 530.95 198.2 520.35 197.25 509.8 195.9 493.05 192.95 490.95 192.35 487.15 190.9 483.65 188.95 480.5 186.45 477.7 183.45 475.25 179.9 473.05 175.75 458.3 140.45 451.25 124 415.55 41.95 414.3 38.5 414.45 37.85 415 37.6 415.25 37.65 420.2 41.8 423.45 44.05 426.8 46.05 430.2 47.8 433.7 49.35 437.25 50.65 440.85 51.75 444.5 52.7 451.95 54.1 459.55 54.95 470.5 55.45 471 55.65 471.2 56.2 469.7 74.9 469.65 81.15 469.9 84.6 470.4 87.85 471.1 90.95 472.05 93.85 473.25 96.55 474.65 99.1 476.3 101.45 478.15 103.6 480.2 105.55 482.5 107.3 485 108.85 487.65 110.2 490.5 111.3 493.55 112.2 496.8 112.9 500.15 113.35 505.3 113.5 510.05 112.85 513 112.05 517 110.25 520.5 107.85 523.4 104.9 525.65 101.4 526.8 98.8 527.9 94.55 528.2 91.5 528.1 88.3 527.65 84.95 526.25 79.75 524.95 76.3 521.8 69.55 514.9 56.3 514.15 55.05 511.7 51.8 511.6 51.15 512.1 50.7 516.25 49.55 521.1 47.95 525.7 46.15 530.1 44.15 534.3 41.9 538.25 39.4 541.95 36.7 545.4 33.75 548.6 30.5 551.5 27 555.4 21.25 557.65 17.05 559.6 12.55 561.25 7.75 562.65 2.45 562.9 2.05 563.35 1.9"/>
  </g>
</svg>