<svg width="1000.1px" height="1038.1px" viewBox="0 0 1000.1 1038.1" xmlns="http://www.w3.org/2000/svg" xmlns:xlink="http://www.w3.org/1999/xlink">
  <defs/>
  <g>
    <path stroke="none" fill="#FF7F00" d="M509.4 197.7 L509.5 198 520.25 198.2 530.9 198.65 541.45 199.35 551.95 200.3 562.35 201.5 572.65 202.95 582.9 204.65 593.05 206.6 603.1 208.8 613.05 211.25 622.95 213.95 632.75 216.9 642.45 220.1 652.05 223.55 661.6 227.25 671.05 231.2 680.4 235.4 689.65 239.85 698.85 244.55 707.95 249.5 716.95 254.7 725.85 260.15 734.65 265.85 743.4 271.8 752.05 278 760.6 284.45 769.05 291.15 777.4 298.1 785.7 305.3 792.85 311.85 799.85 318.5 806.65 325.25 813.25 332.1 819.65 339.05 825.9 346.1 831.95 353.25 837.8 360.5 843.45 367.85 848.95 375.3 854.25 382.85 859.35 390.5 864.25 398.25 869 406.1 873.55 414.05 877.9 422.1 882.05 430.25 886.05 438.5 889.85 446.85 893.45 455.3 896.85 463.85 900.1 472.5 903.15 481.25 906 490.1 908.65 499.05 911.15 508.1 913.45 517.25 915.55 526.5 917.5 535.85 919.25 545.3 920.8 554.8 923 571.25 924.35 584.85 925.25 598.4 925.75 611.9 925.8 625.35 925.4 638.75 924.55 652.1 923.3 665.4 921.6 678.65 919.45 691.85 916.9 704.95 913.9 718 910.45 731 906.6 743.95 902.3 756.85 894.65 777.25 894.35 779.3 894.5 780.25 895.35 781.9 902.8 789.3 905.5 792.3 908.1 795.35 912.85 801.75 917.05 808.45 918.95 811.9 922.3 818.95 923.75 822.55 926.25 829.9 928.15 837.4 928.9 841.2 929.9 848.9 930.2 852.8 930.3 860.6 929.8 868.4 928.7 876.2 926.95 883.95 924.6 891.65 921.6 899.25 919.9 902.9 916.1 909.95 911.75 916.6 909.4 919.8 904.35 925.85 898.85 931.45 892.95 936.6 886.7 941.3 880.1 945.5 873.2 949.15 866.05 952.3 858.65 954.9 854.85 956 847.15 957.7 843.25 958.35 835.35 959.15 831.35 959.3 823.3 959.15 819.25 958.8 813.75 958.1 808.35 957.15 803.05 955.9 797.85 954.35 792.75 952.5 787.75 950.35 782.85 947.85 776.8 944.35 775.65 943.9 774.55 943.65 773.5 943.65 772.5 943.85 770.4 944.9 754 957.55 738.35 968.6 722.35 978.9 705.95 988.45 689.2 997.2 672.1 1005.15 660.5 1010 654.65 1012.3 642.8 1016.6 630.75 1020.5 624.65 1022.3 612.35 1025.65 606.15 1027.15 593.6 1029.9 587.25 1031.15 569.1 1034.2 557.1 1035.85 545.15 1037.2 527.35 1038.6 509.75 1039.3 492.3 1039.3 480.75 1038.9 469.3 1038.2 452.25 1036.6 441 1035.15 429.8 1033.35 413.15 1030.1 402.15 1027.55 391.25 1024.65 375.05 1019.75 364.35 1016.1 353.75 1012.1 337.95 1005.55 327.55 1000.75 317.2 995.65 301.85 987.4 291.7 981.5 281.65 975.3 266.75 965.4 256.9 958.4 247.15 951.05 237.5 943.4 230.1 937.25 222.9 931 215.85 924.6 209 918.1 202.35 911.5 195.85 904.8 189.55 897.95 183.4 891 177.45 883.95 171.7 876.8 166.1 869.55 160.7 862.15 155.5 854.65 150.45 847.05 145.6 839.35 140.9 831.55 136.4 823.65 132.1 815.65 127.95 807.5 124 799.25 120.2 790.9 116.6 782.45 113.2 773.9 109.95 765.25 106.9 756.5 104 747.65 98.75 729.65 96.4 720.5 92.25 701.9 89.65 687.85 87.65 674.1 85.7 656 82.6 621.95 83.95 599.3 86.15 577.15 89.15 555.55 91.6 541.45 92.95 534.5 95.95 520.75 97.6 513.95 101.15 500.55 103.1 493.95 107.25 480.9 109.45 474.45 114.15 461.75 116.65 455.5 121.9 443.15 124.65 437.05 130.5 425.05 133.55 419.15 139.95 407.5 143.3 401.75 150.3 390.45 153.95 384.9 161.5 373.95 165.4 368.55 173.55 358 177.75 352.8 186.45 342.6 190.95 337.6 200.25 327.75 205.05 322.9 214.95 313.4 225.25 304.15 235.95 295.1 241.45 290.65 252.75 281.95 258.55 277.7 270.45 269.4 276.55 265.35 289.05 257.4 295.45 253.5 311.25 244.55 327.3 236.4 338.15 231.4 349.1 226.75 365.75 220.45 377 216.7 388.35 213.3 405.6 208.85 417.2 206.3 428.9 204.1 446.65 201.4 458.6 200.05 470.65 199 487.7 198.05 498.6 197.75 509.4 197.7 M505.8 204.35 L505.7 204.25 486.25 204.8 466.5 206.2 446.45 208.5 429.3 211.2 412.45 214.6 395.95 218.7 379.8 223.5 371.85 226.15 356.2 232 340.9 238.55 325.95 245.75 311.4 253.65 304.25 257.85 290.2 266.75 276.55 276.3 263.25 286.5 250.3 297.35 243.95 303 231.6 314.8 219.6 327.25 209.95 338.05 202.55 346.8 192.05 360.05 185.4 369 179.05 378.05 170.05 391.8 164.45 401.1 159.1 410.5 151.65 424.75 147.05 434.35 142.75 444.05 136.85 458.75 133.3 468.65 130 478.65 125.6 493.8 123.05 504 120.8 514.3 117.95 529.9 116.4 540.4 115.15 551 114.2 561.7 113.55 572.45 113.2 583.3 113.1 594.25 113.5 610.8 114.15 621.95 115.1 633.15 116.3 644.45 117.8 655.85 120.15 670.25 123 684.4 124.6 691.4 128.2 705.25 130.2 712.1 134.55 725.6 136.9 732.25 142 745.4 147.6 758.3 150.6 764.65 156.95 777.2 160.3 783.4 167.35 795.6 174.9 807.6 178.85 813.5 187.1 825.15 191.4 830.85 200.4 842.1 205.05 847.65 214.75 858.55 221.65 865.9 228.65 873.05 235.75 879.95 243 886.65 250.35 893.15 257.8 899.4 265.35 905.45 273 911.3 280.75 916.95 288.6 922.35 296.55 927.55 304.6 932.55 312.75 937.3 321 941.85 329.35 946.2 337.8 950.3 346.35 954.2 355 957.9 363.75 961.35 372.65 964.6 381.65 967.65 390.75 970.45 399.95 973.05 409.25 975.4 418.65 977.55 428.15 979.5 437.75 981.2 447.45 982.7 457.25 984 467.15 985.05 477.15 985.9 487.25 986.5 494 986.8 507.4 987.05 520.7 986.8 533.9 986.1 547 984.95 560 983.35 566.45 982.4 579.3 980.15 592.05 977.45 598.4 975.95 611 972.6 623.5 968.8 629.7 966.75 642.05 962.3 654.3 957.4 666.45 952.05 678.5 946.25 684.5 943.2 696.95 936.4 703.35 932.65 716.05 924.8 741.1 908.9 741.2 908.65 735.35 893.7 732.5 885.4 731.4 881.65 729.7 874.7 729.1 871.4 728.7 868.15 728.3 861.65 728.4 854.8 728.95 847.25 729.65 841.7 730.65 836.25 731.95 830.95 733.5 825.75 735.35 820.7 738.65 813.35 742.5 806.35 745.35 801.9 748.45 797.6 751.75 793.45 755.25 789.5 758.95 785.75 762.85 782.2 766.9 778.85 771.15 775.7 775.55 772.8 780.1 770.1 784.75 767.65 789.55 765.45 794.45 763.5 799.45 761.8 804.55 760.35 812.35 758.7 820.3 757.65 828.35 757.25 836.5 757.55 844.7 758.55 854.7 760.7 856.3 760.85 857.65 760.75 858.8 760.4 859.8 759.75 860.7 758.8 861.55 757.5 862.35 755.85 867.7 743.1 872.6 730.3 877.05 717.45 881.05 704.55 882.85 698.05 886.15 685.05 887.65 678.5 890.25 665.4 891.4 658.8 893.35 645.6 894.15 638.95 895.4 625.65 895.85 618.95 896.2 612.25 896.5 598.8 896.35 585.3 896.1 578.55 895.75 571.75 894.65 558.1 893.1 544.4 892.15 537.4 889.9 523.6 888.6 516.75 885.65 503.2 884 496.5 880.4 483.25 878.45 476.7 874.2 463.7 871.9 457.3 866.95 444.6 861.55 432.15 858.65 426 852.55 413.85 849.3 407.85 842.5 396 838.9 390.15 831.35 378.65 823.35 367.4 819.15 361.85 810.4 350.9 805.85 345.5 796.9 335.35 783.15 320.85 769.1 307.2 754.7 294.4 739.95 282.45 724.9 271.35 709.5 261.1 693.75 251.7 683.1 245.9 677.7 243.15 666.8 237.9 655.75 233.05 644.55 228.55 633.25 224.45 621.8 220.75 616 219.05 604.3 215.9 598.4 214.45 586.5 211.85 580.5 210.7 562.3 207.8 543.8 205.8 524.95 204.65 505.8 204.35 M505.8 360.7 L505.55 360.8 513.8 360.85 521.95 361.15 530 361.7 537.95 362.5 545.85 363.5 553.65 364.75 561.35 366.25 568.95 368 576.45 369.95 583.9 372.15 591.25 374.6 598.5 377.3 605.65 380.2 612.7 383.35 619.65 386.75 626.5 390.4 633.3 394.25 640 398.35 646.6 402.7 653.1 407.25 659.5 412.05 665.8 417.1 672 422.4 678.1 427.9 684.1 433.65 690 439.65 695.8 445.85 701.5 452.3 709.9 462.5 717.65 472.95 724.8 483.6 731.3 494.5 737.2 505.6 742.45 516.9 747.1 528.4 751.15 540.1 754.55 552 757.35 564.1 759.55 576.4 761.1 588.9 762.05 601.6 762.4 614.45 762.15 627.5 761.3 640.7 760.2 650.95 757.85 666.1 755.8 676 752.05 690.6 749.1 700.15 744.05 714.15 740.25 723.25 733.95 736.55 729.35 745.15 721.85 757.7 716.45 765.8 707.8 777.55 698.5 788.75 688.55 799.4 678 809.5 666.85 819 655.15 827.9 647.05 833.45 634.45 841.25 625.75 846.05 612.3 852.7 603.05 856.75 588.8 862.15 579.05 865.35 565.1 869.2 553 871.85 544.9 873.25 536.75 874.4 528.55 875.25 520.35 875.85 512.1 876.2 503.8 876.3 498.45 876.2 487.8 875.7 477.3 874.8 472.1 874.2 466.95 873.5 456.7 871.8 446.6 869.7 436.65 867.2 426.8 864.3 417.1 861 407.55 857.35 402.8 855.35 393.45 851.1 384.2 846.45 375.1 841.4 370.6 838.7 361.7 833.05 348.6 823.85 347.3 823.25 345.55 822.95 343 823.2 337.8 825.25 333.35 826.7 328.9 827.8 324.45 828.5 317.85 828.9 313.5 828.75 309.2 828.25 305 827.4 300.9 826.2 296.9 824.65 293.05 822.75 289.35 820.5 285.8 817.95 280.8 813.45 276.25 808.3 273.65 804.65 271.4 800.85 269.5 796.9 267.95 792.85 266.75 788.7 265.9 784.5 265.3 778.1 265.35 773.8 266.1 767.35 267.05 763.05 269.15 756.7 271 752.55 273.2 748.5 276.35 743.65 276.75 742.75 277 741.9 277 740.3 276.5 738.55 271.8 728.25 267.85 718.95 262.55 705.05 258 691.25 254.15 677.5 252 668.35 250.2 659.25 248.1 645.65 247.1 636.65 246.45 627.65 246.1 614.25 246.5 600.9 247.7 587.65 249.65 574.5 251.35 565.75 254.55 552.75 258.55 539.8 263.3 526.95 266.9 518.45 272.95 505.75 279.75 493.15 287.35 480.65 295.7 468.25 304.85 455.95 312.9 446.1 321.3 436.8 330.05 428 339.1 419.75 348.5 412.05 358.2 404.85 368.25 398.2 378.6 392.1 389.25 386.55 400.2 381.55 411.45 377.05 423 373.1 434.85 369.7 446.95 366.85 459.35 364.55 472 362.8 480.6 361.9 489.1 361.25 497.5 360.85 505.8 360.7 M507.85 368.25 L507.75 368.1 496.45 368.25 490.8 368.5 479.5 369.45 468.25 370.9 457.05 372.9 445.95 375.45 434.95 378.5 424.05 382.1 413.3 386.25 402.7 390.95 392.3 396.15 382.1 401.9 372.1 408.2 362.35 415.05 352.85 422.45 343.65 430.35 334.9 438.65 326.75 447.15 319.1 455.9 312 464.85 305.45 474 299.4 483.3 293.9 492.75 288.9 502.35 286.6 507.2 282.35 516.95 278.55 526.8 275.25 536.75 272.4 546.75 271.15 551.75 269 561.8 267.3 571.85 266 581.9 265.15 591.9 264.85 596.9 264.6 606.85 264.75 616.75 265.7 631.4 267.5 645.8 270.15 659.85 273.6 673.55 277.8 686.8 282.75 699.55 288.4 711.75 292.55 719.55 296.85 726.85 297.05 726.95 301.15 725.6 305.4 724.5 309.6 723.65 315.75 722.95 319.75 722.85 323.7 723.05 327.6 723.55 331.4 724.35 335.15 725.45 338.8 726.85 342.35 728.6 345.85 730.7 349.25 733.1 352.55 735.85 355.75 738.95 358.85 742.35 362.85 747.65 365.1 751.25 367 754.9 368.55 758.6 369.75 762.35 370.65 766.15 371.2 770 371.45 773.9 371.35 777.85 370.95 781.85 370.25 785.9 369.25 790 367.95 794.1 366.35 798.25 364.6 802.2 364.65 802.45 372.45 808.05 380.75 813.45 385 816 393.7 820.85 402.65 825.35 411.8 829.45 421.15 833.15 430.7 836.45 440.45 839.35 450.35 841.85 455.35 842.95 465.45 844.85 475.65 846.3 485.95 847.35 496.3 847.95 501.5 848.1 511.95 848.05 517.2 847.85 527.7 847.1 538.2 845.9 548.65 844.2 559.1 842.05 564.3 840.8 574.65 837.9 584.9 834.55 595.1 830.7 605.15 826.35 615.1 821.45 624.9 816.05 634.5 810.15 643.95 803.7 653.15 796.7 662.15 789.15 670.9 781.1 679.45 772.4 687.6 763.3 695.2 753.95 702.25 744.3 708.75 734.45 714.7 724.35 720.15 714.05 725.05 703.55 729.4 692.9 733.2 682.1 736.5 671.15 739.25 660.1 741.45 649 743.1 637.8 744.25 626.55 744.6 620.9 744.95 609.6 744.75 598.3 744.45 592.65 743.45 581.4 741.9 570.2 739.8 559.05 737.2 548 734.05 537.05 730.35 526.2 726.1 515.5 721.35 504.95 716.05 494.6 710.2 484.4 703.85 474.45 696.95 464.7 689.5 455.25 681.55 446.05 673.15 437.25 664.5 429.05 655.5 421.35 646.2 414.15 636.65 407.5 626.85 401.35 616.8 395.75 606.55 390.65 596.1 386.05 585.45 382 574.65 378.45 563.75 375.45 552.7 372.95 541.6 371 530.4 369.55 519.15 368.65 507.85 368.25 M505.2 447.55 L505.15 447.6 505.6 447.75 505.8 448.05 507.25 452.75 538.1 578.05 539.1 580.85 539.75 581.9 540.55 582.8 542.6 584.15 545.3 585.05 670.7 615.95 673.35 616.95 675.25 618.3 675.45 618.9 675 619.4 671 620.65 544.65 651.85 542.1 652.75 540.3 654.05 539.1 655.9 538.3 658.3 507.35 783.65 505.85 788.95 505.6 789.3 505.2 789.45 504.05 789.35 503.65 788.9 471.5 658.6 470.6 656 469.25 654.05 467.35 652.7 464.7 651.8 338.8 620.7 333.95 619.25 333.7 618.95 333.65 618.15 333.75 617.75 334.1 617.5 338.8 616 464.1 585.15 467 584.15 468.15 583.5 469.15 582.7 469.95 581.75 470.65 580.6 471.65 577.75 502.5 452.35 503.45 449.7 504.7 447.8 505.2 447.55 M27.9 464.85 L28.3 465 28.55 465.35 31.65 476 32.85 481.2 33.35 482.4 33.95 483.25 34.7 483.9 35.65 484.4 36.75 484.65 37.95 484.75 43.4 484.6 47.45 484.7 54.2 485.35 54.75 485.8 54.7 486.35 54.45 486.55 38 496.2 37.9 496.45 45.35 517.4 45.4 517.7 45.05 518.2 44.75 518.25 44.3 518.1 27.95 503.6 27.7 503.6 11.55 518 11.1 518.15 10.6 518 10.35 517.55 10.4 517.25 17.85 496.4 17.75 496.15 0.25 486.1 -0.1 485.65 0.05 484.95 0.6 484.65 18.7 484.7 19.7 484.55 21.15 483.9 21.75 483.3 22.6 481.7 23.9 476.6 27.25 465.35 27.5 465 27.9 464.85 M972.25 465 L972.3 464.9 972.7 465.05 972.95 465.4 978.4 484.4 978.6 484.55 999.3 484.55 999.8 484.8 1000 485.6 999.65 486.05 982.3 496.1 982.2 496.35 989.4 516.7 989.4 517.1 989.15 517.45 988.5 517.75 988.05 517.6 972.25 503.5 972 503.5 956.05 517.75 955.45 517.9 954.9 517.55 954.8 516.95 961.35 498.95 961.55 498 961.4 496.55 961.05 495.85 959.85 494.75 951.6 490 945.9 486 945.65 485.65 945.65 485.25 945.9 484.95 946.3 484.85 965.75 484.85 965.95 484.7 971.6 465.5 971.85 465.15 972.25 465 M912.7 268.15 L912.75 268.1 913.15 268.25 913.35 268.6 917.55 283.35 919.35 290.2 919.85 291.35 920.45 292.25 921.25 293 922.15 293.5 924.45 294 931.8 293.85 949 293.9 949.4 294.05 949.6 294.45 949.7 295.2 949.4 295.7 925.7 309.3 925.6 309.55 935.8 337.65 935.8 338.05 935.1 338.75 934.45 338.65 912.5 319.1 912.25 319.1 890.05 338.95 889.6 339.1 889.25 339 888.8 338.55 888.8 338.1 899.15 309.55 899.05 309.3 875.3 295.75 875 295.35 875.1 294.5 875.3 294.1 875.7 293.95 893.3 293.9 900.7 294.05 901.95 293.85 902.9 293.5 903.7 293 904.4 292.25 905.4 290.3 908.8 278 912.1 268.55 912.35 268.25 912.7 268.15 M87.05 266.8 L87.1 267.05 87.5 267.2 87.75 267.55 92.3 283.7 94.1 290.6 94.6 291.75 95.2 292.6 95.95 293.3 96.9 293.8 99.2 294.25 106.55 294.1 123.75 294.15 124.15 294.3 124.35 294.7 124.45 295.55 124.15 295.95 100.45 309.45 100.35 309.7 110.6 338.15 110.5 338.75 110.1 339 109.65 339.05 109.2 338.9 87.25 319.25 87 319.25 64.95 338.85 64.5 339 63.9 338.75 63.6 338.4 63.6 337.95 73.75 309.65 73.65 309.4 50.05 295.85 49.75 295.5 49.8 294.4 50.4 294 66.55 293.9 73.9 294.15 76.2 293.85 78 293 79.4 291.55 80.4 289.45 82.1 282.35 86.4 267.3 86.65 266.95 87.05 266.8 M233.95 96.9 L234.1 96.95 234.5 97.1 234.7 97.45 242.6 125.05 243.8 128.05 244.45 129.2 245.15 130.15 246 130.95 248 131.95 249.25 132.25 252.4 132.6 284.2 133.05 284.85 133.35 285.35 133.9 285.35 134.3 285.05 134.65 251.7 153.75 251.6 154 266.25 194.5 265.75 195.1 265.05 195 233.65 166.95 233.4 166.95 202 195.15 201.55 195.3 201.2 195.2 200.85 194.8 200.85 194.35 215.55 153.95 215.45 153.7 181.8 134.45 181.5 134.05 181.6 133.2 181.8 132.8 182.2 132.65 207.9 132.6 218.25 132.75 219.65 132.55 220.75 132.2 221.7 131.6 222.55 130.75 223.2 129.75 223.75 128.5 226.25 119.15 228.5 111.35 232.45 99.65 233.35 97.3 233.6 97 233.95 96.9 M756.15 95.3 L756.1 95.35 756.5 95.5 756.75 95.85 767.2 132.65 767.4 132.8 807.25 132.8 807.75 133.05 808.1 133.85 808.1 134.3 807.8 134.65 774.2 153.8 774.1 154.05 788.65 194.1 788.65 194.5 788.05 195.1 787.4 194.95 756.2 167 755.95 167 724.65 195.05 724.2 195.2 723.85 195.1 723.45 194.7 723.45 194.25 738.05 154 737.95 153.75 704.5 134.65 704.2 134.2 704.25 133.7 704.45 133.3 704.9 133.15 744.75 133.15 744.95 133 755.5 95.8 755.75 95.45 756.15 95.3 M500.55 1.2 L500.45 1.2 500.85 1.35 501.1 1.7 514.3 48.35 514.5 48.5 567.55 48.5 567.95 48.65 568.2 49 568.35 49.65 568 50.15 523.35 75.55 523.25 75.8 542.5 128.75 542.4 129.35 541.9 129.7 541.3 129.55 500.2 92.6 499.95 92.6 459.35 129.05 458.75 129.2 457.9 128.5 457.9 128.1 474.25 82.85 475 79.85 475.15 78.6 474.85 76.55 474.4 75.6 473.75 74.75 472.9 73.9 470.45 72.1 456.55 64.05 444.3 56.75 433.7 49.8 433.5 49.55 433.45 49 434.05 48.6 458.15 48.6 475.25 48.4 482.25 48.5 483.5 48.3 484.45 47.95 485.25 47.45 485.95 46.7 486.95 44.75 493.4 21.75 496.8 10.85 499.9 1.6 500.15 1.3 500.55 1.2"/>
  </g>
</svg>